<svg xmlns="http://www.w3.org/2000/svg" viewBox="0 0 1920 1080"><defs><style>.cls-1{fill:#f6f1eb;}.cls-2,.cls-3,.cls-4{fill:#4e4d4e;}.cls-3{stroke:#f6f1eb;}.cls-3,.cls-4,.cls-6{stroke-miterlimit:10;}.cls-3,.cls-4{stroke-width:1.32px;}.cls-4{stroke:#f6f1e8;}.cls-5{fill:#e36c5c;}.cls-6{fill:none;stroke:#e36c5c;stroke-width:16.12px;}</style></defs><title>cover</title><g id="背景"><rect class="cls-1" x="-19" y="-22" width="1959" height="1117"/></g><g id="重點縣市"><path class="cls-2" d="M1095.32,886.4A58.06,58.06,0,0,1,1104,896l-2.58,1.92a26.4,26.4,0,0,0-1.92-2.71c-18.19,1-20.3,1-21.79,1.55a28.86,28.86,0,0,0-1-3,6.09,6.09,0,0,0,2.71-1.89,53.05,53.05,0,0,0,7.31-9.16l3.08,1.32a65.1,65.1,0,0,1-7.9,9.13l15.38-.63c-1.42-1.59-2.94-3.17-4.37-4.5Zm-16.11,12.86h21.43v14h-3.27V911.6h-15v1.75h-3.11Zm3.11,2.94v6.42h15v-6.42Z"/><path class="cls-2" d="M1091.22,922.34c-.13,1.06-.3,2.08-.46,3h12.14v18c0,1.65-.43,2.41-1.59,2.84s-3.08.46-5.69.46a12.09,12.09,0,0,0-1.09-2.65c1.89.1,3.9.07,4.46,0s.76-.17.76-.69V928.2h-19.64v18.49H1077V925.35h10.75c.1-.89.26-2,.36-3h-12.67v-2.88h13c.1-1.09.17-2.15.2-3.08l3.37.33c-.1.89-.23,1.82-.36,2.74h12.73v2.88Zm.07,18.19V946h-2.91v-5.42h-6.65v-2.48h6.65v-2.84h-6v-2.41h3a15.93,15.93,0,0,0-1.55-3.67l2.41-.63a17.07,17.07,0,0,1,1.72,3.77l-1.75.53h5.42a37.37,37.37,0,0,0,1.59-4.4l2.78.63c-.56,1.29-1.12,2.61-1.69,3.77h3.14v2.41h-6.25v2.84h6.88v2.48Z"/><path class="cls-2" d="M1091.42,957.46v4.1H1102V972.9c0,1.62-.33,2.55-1.55,3s-3.08.53-5.75.53a10.63,10.63,0,0,0-1.09-3c2,.07,4,.07,4.5.07s.73-.17.73-.63v-8.3h-7.44V980h-3.21V964.57h-7v11.94h-3.11V961.56h10.09v-4.1h-13.1v-3h13.69c-.53-1.26-1.29-2.81-2-4l3-.89a36.92,36.92,0,0,1,2.51,4.93h12.4v3Z"/><path class="cls-2" d="M1128.9,1058a30.51,30.51,0,0,1-3.34,6.65,17,17,0,0,0-2.12-1.46,20.37,20.37,0,0,0,3-5.92Zm4.27-2.15v11.21h-3V1055.9h-6.35v-2.61h6.35v-3h-6.55v-2.58h3.6a16.58,16.58,0,0,0-1.16-4.13l2.51-.63a20.66,20.66,0,0,1,1.22,4.07l-2.45.69h5.22a34.08,34.08,0,0,0,1.62-4.8l2.85.6c-.56,1.45-1.13,3-1.69,4.2h3.87v2.58h-6.08v3h5.62v2.61Zm5.56-13h-14.55v-2.55h6c-.36-.93-.79-2-1.19-2.81l3-.79c.56,1.12,1.22,2.51,1.65,3.61h5Zm-2.35,14.19a28.12,28.12,0,0,1,2.74,5l-2.15,1.29a34.61,34.61,0,0,0-2.64-5.13Zm17.4-6.28h-3.37v16.37h-3v-16.37h-3.87v.79c0,4.76-.43,11.38-3.37,15.58a10.42,10.42,0,0,0-2.35-1.82c2.61-3.84,2.84-9.43,2.84-13.76v-11.44a51,51,0,0,0,10.12-2.68l2.41,2.25a54.1,54.1,0,0,1-9.66,2.45v5.79h10.25Z"/><path class="cls-2" d="M1153.8,1079.91h-4.66v16.93c0,1.82-.36,2.74-1.55,3.24s-3.08.6-5.66.6a12.29,12.29,0,0,0-1.06-3.24c1.92.07,3.84.07,4.4.07s.73-.2.73-.69v-16.9h-4.33a29.52,29.52,0,0,1-3.27,6,16.31,16.31,0,0,0-2.65-1.89,20.35,20.35,0,0,0,2.55-4.07h-5.09v20.8h-3.11v-20.8h-1a34.32,34.32,0,0,1-3.31,6.05,20.82,20.82,0,0,0-2.81-1.89c2.65-3.27,4.66-8.5,5.82-13.72l3.24.66c-.5,2-1.09,4-1.75,5.85h8.27v2.48a43.39,43.39,0,0,0,2.91-9l3.11.63c-.5,2-1.06,4-1.72,5.89h10.95Z"/><path class="cls-2" d="M965.16,471.81v4h11.08v2.78H965.16V486h12.67v2.81H949.45V486h12.43v-7.37H951v-2.78h10.91v-4H955v-1.72a36.28,36.28,0,0,1-4.79,2.12,11.91,11.91,0,0,0-2-2.84c6.15-1.89,12.14-5.52,15.28-10.38l2.88,1.29c-.3.43-.56.86-.86,1.26a35.67,35.67,0,0,0,13.76,7.87,12.85,12.85,0,0,0-2.12,2.68,34.44,34.44,0,0,1-4.93-2.28v2ZM956,478.92a26,26,0,0,1,3.11,5.72l-2.68,1.16a27.88,27.88,0,0,0-2.94-5.89Zm14.65-10a37.08,37.08,0,0,1-7-5.36A29.92,29.92,0,0,1,957,469Zm-3,15.87a31,31,0,0,0,3.21-5.92l3,1.09c-1.26,2.08-2.71,4.33-3.84,5.82Z"/><path class="cls-2" d="M962.15,506.4h-9V523h-3V494.1h12.07Zm-9-9.72V499h6.15v-2.35Zm6.15,7.21v-2.58h-6.15v2.58Zm18.06,15.18c0,1.92-.43,2.84-1.69,3.37s-3.31.56-6.38.56a11,11,0,0,0-1.09-3.17c2.18.1,4.5.07,5.16.07s.86-.23.86-.83V506.43h-9.33V494.1h12.47Zm-9.52-22.39V499h6.38v-2.35Zm6.38,7.28v-2.65h-6.38V504Z"/><path class="cls-2" d="M953.32,547.54a33.63,33.63,0,0,1-2.94,7,15.61,15.61,0,0,0-2.18-1.26,25.92,25.92,0,0,0,2.68-6.35Zm4-1.89v10.52h-2.58V545.65h-6.12v-2.45H950v-16h11.67v16H963v2.45Zm-4.76-16.17v2.05h6.55v-2.05Zm6.55,4h-6.55v2h6.55Zm-6.55,5.72h6.55v-1.82h-6.55Zm0,4h6.55v-2h-6.55Zm7.84,3.54a27.53,27.53,0,0,1,2.35,5l-2.15,1a28.53,28.53,0,0,0-2.25-5.06Zm7.71.13a32,32,0,0,1-3.84,7.84,17.44,17.44,0,0,0-2.12-1.32,23.52,23.52,0,0,0,3.31-7.18Zm7-18.88a46.75,46.75,0,0,1-11.38,4.56,10.4,10.4,0,0,0-1-2.18c3.74-1.19,7.9-2.91,10.28-4.66Zm-3.21,16.8v9.26c0,1.16-.2,1.65-1,2a9.58,9.58,0,0,1-3.44.36,9.43,9.43,0,0,0-.73-2h2.15c.33,0,.4-.1.4-.4v-9c-3.84.3-4.63.43-5.22.63a20.86,20.86,0,0,0-.79-2.45,8.39,8.39,0,0,0,3.08-1.75,54,54,0,0,0,4.33-3.74c-4.93.36-5.82.53-6.41.76a15.75,15.75,0,0,0-.73-2.35,5.39,5.39,0,0,0,2-.93,27.34,27.34,0,0,0,5.33-4.56l2.25,1.16a36.79,36.79,0,0,1-4.53,3.74l4.56-.23c.79-.83,1.55-1.69,2.28-2.55l2.15,1.49a69.35,69.35,0,0,1-9.1,8.4l6.42-.33c-.53-1-1.12-2.05-1.69-2.91l2.08-1a42.39,42.39,0,0,1,3.6,6.51L976.6,546c-.17-.46-.36-1-.63-1.52Zm3.24,1.16c1.22,2.28,2.78,5.29,3.47,7l-2.41,1.16a63.27,63.27,0,0,0-3.34-7.18Z"/><path class="cls-2" d="M1238.75,514a58.06,58.06,0,0,1,8.7,9.59l-2.58,1.92a26.4,26.4,0,0,0-1.92-2.71c-18.19,1-20.3,1-21.79,1.55a28.86,28.86,0,0,0-1-3,6.09,6.09,0,0,0,2.71-1.89,53.05,53.05,0,0,0,7.31-9.16l3.08,1.32a65.1,65.1,0,0,1-7.9,9.13l15.38-.63c-1.42-1.59-2.94-3.17-4.37-4.5Zm-16.11,12.86h21.43v14h-3.27V539.2h-15V541h-3.11Zm3.11,2.94v6.42h15v-6.42Z"/><path class="cls-2" d="M1232.4,565.62l.53,2.74c-4.7,2-9.79,4.07-13.59,5.59l-1.39-3.11c2.31-.76,5.59-1.92,9.06-3.21v-12.5h-8v-3.08h8v-7.47h3.17v21.86Zm10.88,4.53c1.35,0,1.55-1.55,1.75-7.67a8.71,8.71,0,0,0,2.94,1.45c-.3,6.81-1,9.23-4.43,9.23h-4.2c-3.21,0-4.13-1.12-4.13-5V544.59h3.21V552h8.9v3h-8.9v13.1c0,1.69.2,2,1.36,2Z"/><path class="cls-2" d="M1234.85,585.07v4.1h10.62v11.34c0,1.62-.33,2.55-1.55,3s-3.08.53-5.75.53a10.63,10.63,0,0,0-1.09-3c2,.07,4,.07,4.5.07s.73-.17.73-.63v-8.3h-7.44v15.48h-3.21V592.18h-7v11.94h-3.11V589.17h10.09v-4.1h-13.1v-3h13.69c-.53-1.26-1.29-2.81-2-4l3-.89a36.92,36.92,0,0,1,2.51,4.93h12.4v3Z"/><path class="cls-2" d="M838.09,914.62a30.51,30.51,0,0,1-3.34,6.65,17,17,0,0,0-2.12-1.46,20.37,20.37,0,0,0,3-5.92Zm4.27-2.15v11.21h-3V912.47H833v-2.61h6.35v-3h-6.55v-2.58h3.6a16.58,16.58,0,0,0-1.16-4.13l2.51-.63a20.66,20.66,0,0,1,1.22,4.07l-2.45.69h5.22a34.09,34.09,0,0,0,1.62-4.8l2.85.6c-.56,1.45-1.13,3-1.69,4.2h3.87v2.58h-6.08v3H848v2.61Zm5.56-13H833.36v-2.55h6c-.36-.93-.79-2-1.19-2.81l3-.79c.56,1.12,1.22,2.51,1.65,3.61h5Zm-2.35,14.19a28.12,28.12,0,0,1,2.74,5l-2.15,1.29a34.61,34.61,0,0,0-2.64-5.13Zm17.4-6.28h-3.37v16.37h-3V907.34H852.7v.79c0,4.76-.43,11.38-3.37,15.58a10.42,10.42,0,0,0-2.35-1.82c2.61-3.84,2.84-9.43,2.84-13.76V896.69A51,51,0,0,0,859.94,894l2.41,2.25a54.1,54.1,0,0,1-9.66,2.45v5.79H863Z"/><path class="cls-2" d="M846.85,948.55l.53,2.74c-4.7,2-9.79,4.07-13.59,5.59l-1.39-3.11c2.31-.76,5.59-1.92,9.06-3.21v-12.5h-8V935h8v-7.47h3.17v21.86Zm10.88,4.53c1.35,0,1.55-1.55,1.75-7.67a8.71,8.71,0,0,0,2.94,1.45c-.3,6.81-1,9.23-4.43,9.23h-4.2c-3.21,0-4.13-1.12-4.13-5V927.51h3.21V935h8.9v3h-8.9v13.1c0,1.69.2,2,1.36,2Z"/><path class="cls-2" d="M849.3,968v4.1h10.62v11.34c0,1.62-.33,2.55-1.55,3s-3.08.53-5.75.53a10.63,10.63,0,0,0-1.09-3c2,.07,4,.07,4.5.07s.73-.17.73-.63v-8.3H849.3v15.48h-3.21V975.1h-7V987H836V972.09h10.09V968H833v-3h13.69c-.53-1.26-1.29-2.81-2-4l3-.89a36.92,36.92,0,0,1,2.51,4.93h12.4v3Z"/><path class="cls-2" d="M894.64,1046.94H876.12v-2.41H881a10.12,10.12,0,0,0-.93-2.25l2.05-.53h-5.09v-2.38h7.31a13,13,0,0,0-.93-1.79l2.45-.89a13.53,13.53,0,0,1,1.36,2.68H894v2.38h-4.53l2.08.43c-.46.83-1,1.65-1.39,2.35h4.43ZM887,1062.38v5h-2.91v-5h-7.24v-2.48h7.24v-2h-5.59v-9.42h14.32v9.42H887v2h7v2.48Zm-5.69-10.15h8.57v-1.82h-8.57Zm0,3.7h8.57V1054h-8.57Zm1.29-14.19a14.5,14.5,0,0,1,1.16,2.61l-.56.17h4.27a24.11,24.11,0,0,0,1.19-2.78Zm24,14.78a28.61,28.61,0,0,1-11.44,10.35,16.33,16.33,0,0,0-2.15-2.45c4.27-1.88,8.5-5.22,10.68-9Zm-.63-9a34.62,34.62,0,0,1-9.46,8.14,11.33,11.33,0,0,0-2.18-2.18,28.63,28.63,0,0,0,8.8-7.14Zm-.76-8.83a30.21,30.21,0,0,1-8.4,7.77,16.29,16.29,0,0,0-2.18-2.05,24.69,24.69,0,0,0,7.71-6.85Z"/><path class="cls-2" d="M887.46,1071.44a49,49,0,0,1-3.24,6.25v23h-2.91v-18.75a34.28,34.28,0,0,1-3.94,4.4,15.94,15.94,0,0,0-1.69-3.11,35.78,35.78,0,0,0,9-12.7ZM901,1097c1.78,0,2.08-1.39,2.35-6.94a9,9,0,0,0,2.78,1.36c-.43,6.18-1.19,8.37-4.93,8.37h-5.92c-3.64,0-4.66-1.09-4.66-5.06v-23.78h2.94v8.73h11.64v2.94H893.55v12.17c0,1.85.33,2.22,2,2.22Z"/><path class="cls-2" d="M674.73,948.23h-7.11v-2.84h7.11v-3.14h3v3.14h3.8v2.84h-3.8v3.41h-3Zm-4.23,4.63h23.21v19.71h-3.08v-1.42h-17.2v1.42H670.5Zm2.94,2.78v4.83h6.94v-4.83Zm6.94,12.73v-5.13h-6.94v5.13Zm16.14-23v2.84h-7.31v3.41h-3.08v-3.41H682.6v-2.84h3.54v-3.14h3.08v3.14Zm-5.89,10.25h-7.28v4.83h7.28Zm0,12.73v-5.13h-7.28v5.13Z"/><path class="cls-2" d="M679.16,998.49a23,23,0,0,1-10.45,6.48,12.84,12.84,0,0,0-2.05-2.55c3.74-.86,7.87-2.74,10-4.89Zm4.37-1.72V1006h-3.11v-9.23h-13v-2.71h13v-2.41h3.11v2.41h13.13v2.71Zm-6.81-16.83h-9v-2.68h28.7v2.68H686.9v2.51h7.47v8.63H669.61v-8.63h7.11Zm-4.23,8.6h4.23V985h-4.23Zm11.54-8.6h-4.43v2.51H684Zm-4.43,8.6H684V985h-4.43Zm7.77,8.8a65.88,65.88,0,0,1,9.66,5.75l-2.31,2.05a62.36,62.36,0,0,0-9.49-6ZM686.9,985v3.54h4.46V985Z"/><path class="cls-2" d="M671.72,1030.47a33.63,33.63,0,0,1-2.94,7,15.6,15.6,0,0,0-2.18-1.26,25.85,25.85,0,0,0,2.68-6.35Zm4-1.89v10.52h-2.58v-10.52H667v-2.45h1.42v-16h11.67v16h1.36v2.45Zm-4.76-16.17v2.05h6.55v-2.05Zm6.55,4h-6.55v2h6.55Zm-6.55,5.72h6.55v-1.82h-6.55Zm0,4h6.55v-2h-6.55Zm7.84,3.54a27.58,27.58,0,0,1,2.35,5l-2.15,1a28.39,28.39,0,0,0-2.25-5.06Zm7.71.13a32,32,0,0,1-3.84,7.84,17.35,17.35,0,0,0-2.12-1.32,23.56,23.56,0,0,0,3.31-7.18Zm7-18.88a46.77,46.77,0,0,1-11.38,4.56,10.43,10.43,0,0,0-1-2.18c3.74-1.19,7.9-2.91,10.28-4.66Zm-3.21,16.8V1037c0,1.16-.2,1.65-1,2a9.59,9.59,0,0,1-3.44.36,9.43,9.43,0,0,0-.73-2h2.15c.33,0,.4-.1.4-.4v-9c-3.84.3-4.63.43-5.22.63a20.72,20.72,0,0,0-.79-2.45,8.39,8.39,0,0,0,3.08-1.75,54.22,54.22,0,0,0,4.33-3.74c-4.93.36-5.82.53-6.42.76a15.68,15.68,0,0,0-.73-2.35,5.39,5.39,0,0,0,2-.93,27.32,27.32,0,0,0,5.32-4.56l2.25,1.16a36.7,36.7,0,0,1-4.53,3.74l4.56-.23c.79-.83,1.55-1.69,2.28-2.55l2.15,1.49a69.38,69.38,0,0,1-9.09,8.4l6.42-.33c-.53-1-1.12-2.05-1.69-2.91l2.08-1a42.35,42.35,0,0,1,3.6,6.51l-2.25,1.16c-.17-.46-.36-1-.63-1.52Zm3.24,1.16c1.22,2.28,2.78,5.29,3.47,7l-2.41,1.16a63.39,63.39,0,0,0-3.34-7.18Z"/><path class="cls-2" d="M226.84,467.95a58.06,58.06,0,0,1,8.7,9.59L233,479.46a26.3,26.3,0,0,0-1.92-2.71c-18.19,1-20.3,1-21.79,1.55a28.56,28.56,0,0,0-1-3A6.09,6.09,0,0,0,211,473.4a53,53,0,0,0,7.31-9.16l3.08,1.32a65.1,65.1,0,0,1-7.9,9.13l15.38-.63c-1.42-1.59-2.94-3.17-4.37-4.5Zm-16.11,12.86h21.43v14h-3.27v-1.69h-15v1.75h-3.11Zm3.11,2.94v6.42h15v-6.42Z"/><path class="cls-2" d="M225.38,518.38a31.27,31.27,0,0,0,11.38,6.85,12.92,12.92,0,0,0-2.22,2.65A33.78,33.78,0,0,1,223,519.8v8.47h-3.21v-8.33a33.45,33.45,0,0,1-11.38,7.9,14.42,14.42,0,0,0-2.12-2.58,31.47,31.47,0,0,0,11.11-6.88h-7.44V506.14h9.82v-2.41H207.13v-2.84h12.63v-2.94H223v2.94H235.9v2.84H223v2.41h10.32v12.24Zm-12.43-7.24h6.81v-2.65h-6.81Zm0,4.89h6.81v-2.68h-6.81Zm10-7.54v2.65h7.21v-2.65Zm7.21,4.86H223V516h7.21Z"/><path class="cls-2" d="M211.16,552.8a33.63,33.63,0,0,1-2.94,7,15.6,15.6,0,0,0-2.18-1.26,25.85,25.85,0,0,0,2.68-6.35Zm4-1.89v10.52h-2.58V550.92h-6.12v-2.45h1.42v-16h11.67v16h1.36v2.45Zm-4.76-16.17v2.05h6.55v-2.05Zm6.55,4h-6.55v2h6.55Zm-6.55,5.72h6.55v-1.82h-6.55Zm0,4h6.55v-2h-6.55Zm7.84,3.54a27.58,27.58,0,0,1,2.35,5l-2.15,1a28.39,28.39,0,0,0-2.25-5.06Zm7.71.13a32,32,0,0,1-3.84,7.84,17.35,17.35,0,0,0-2.12-1.32,23.56,23.56,0,0,0,3.31-7.18Zm7-18.88a46.77,46.77,0,0,1-11.38,4.56,10.43,10.43,0,0,0-1-2.18c3.74-1.19,7.9-2.91,10.28-4.66Zm-3.21,16.8v9.26c0,1.16-.2,1.65-1,2a9.59,9.59,0,0,1-3.44.36,9.43,9.43,0,0,0-.73-2h2.15c.33,0,.4-.1.4-.4v-9c-3.84.3-4.63.43-5.22.63a20.72,20.72,0,0,0-.79-2.45,8.39,8.39,0,0,0,3.08-1.75,54.22,54.22,0,0,0,4.33-3.74c-4.93.36-5.82.53-6.42.76a15.68,15.68,0,0,0-.73-2.35,5.39,5.39,0,0,0,2-.93,27.32,27.32,0,0,0,5.32-4.56l2.25,1.16a36.7,36.7,0,0,1-4.53,3.74l4.56-.23c.79-.83,1.55-1.69,2.28-2.55l2.15,1.49a69.38,69.38,0,0,1-9.09,8.4l6.42-.33c-.53-1-1.12-2.05-1.69-2.91l2.08-1a42.35,42.35,0,0,1,3.6,6.51l-2.25,1.16c-.17-.46-.36-1-.63-1.52Zm3.24,1.16c1.22,2.28,2.78,5.29,3.47,7L234,559.38a63.39,63.39,0,0,0-3.34-7.18Z"/><path class="cls-2" d="M440.16,871.17h-7.77a53.7,53.7,0,0,1,6.38,5.49L436,878a21.55,21.55,0,0,0-1.55-1.69c-16.7.76-18.49.79-19.71,1.22a22.72,22.72,0,0,0-1-2.91,4.77,4.77,0,0,0,1.92-1,22.65,22.65,0,0,0,2.94-2.41h-7.94v-2.38h29.46Zm-26.09-12.1h-2.74v-6.91h12.53v-1.49H413.37v-2.28h24v2.28H426.87v1.49h12.67v6.91h-2.84v-4.86h-9.82v9h-3v-9h-9.79Zm-.23,2.48c2.18-.63,5.39-1.65,8.53-2.71l.4,2.08c-2.74,1.09-5.56,2.22-7.87,3.08Zm22.52,5.32H414.46v-2.28h21.89Zm-20.17-12.24a54.37,54.37,0,0,1,6.38,2.25l-1.12,1.92a52,52,0,0,0-6.38-2.45ZM432,874.05c-.93-.79-1.89-1.59-2.78-2.22l1.46-.66h-7.9a45.49,45.49,0,0,1-3.9,3.34Zm4-17.43a45.32,45.32,0,0,1-7,2.25l-1.16-1.72a45,45,0,0,0,6.75-2.45Zm-7.08,2.28a59.72,59.72,0,0,1,8.17,2.88l-1,2.08a77.33,77.33,0,0,0-8.13-3.11Z"/><path class="cls-2" d="M422.6,899.84c-.69-1.16-2.05-3.11-3.24-4.73v16h-3V896.37a31.82,31.82,0,0,1-4.83,9,15.91,15.91,0,0,0-1.62-2.94,32,32,0,0,0,6-11.71h-5.09v-2.91h5.59v-7h3v7h4.5v2.91h-4.5v.66c1.06,1,4.43,4.89,5.19,5.82Zm12-9.13c1.45,4.89,3.8,9.85,6.35,12.67a11.63,11.63,0,0,0-2.35,2.41,37,37,0,0,1-4.73-9.66v15H430.8V896.34a32.68,32.68,0,0,1-6.28,10.15,13.91,13.91,0,0,0-1.79-2.81c3.11-2.94,6-8,7.51-13h-5.13v-2.91h5.69v-7h3.08v7h6.05v2.91Z"/><path class="cls-2" d="M415.13,935.72a33.63,33.63,0,0,1-2.94,7,15.6,15.6,0,0,0-2.18-1.26,25.85,25.85,0,0,0,2.68-6.35Zm4-1.89v10.52h-2.58V933.84H410.4v-2.45h1.42v-16h11.67v16h1.36v2.45Zm-4.76-16.17v2.05h6.55v-2.05Zm6.55,4h-6.55v2h6.55Zm-6.55,5.72h6.55V925.6h-6.55Zm0,4h6.55v-2h-6.55Zm7.84,3.54a27.58,27.58,0,0,1,2.35,5l-2.15,1a28.39,28.39,0,0,0-2.25-5.06Zm7.71.13A32,32,0,0,1,426,942.9a17.35,17.35,0,0,0-2.12-1.32,23.56,23.56,0,0,0,3.31-7.18Zm7-18.88a46.77,46.77,0,0,1-11.38,4.56,10.43,10.43,0,0,0-1-2.18c3.74-1.19,7.9-2.91,10.28-4.66ZM433.71,933v9.26c0,1.16-.2,1.65-1,2a9.59,9.59,0,0,1-3.44.36,9.43,9.43,0,0,0-.73-2h2.15c.33,0,.4-.1.4-.4v-9c-3.84.3-4.63.43-5.22.63a20.72,20.72,0,0,0-.79-2.45,8.39,8.39,0,0,0,3.08-1.75,54.22,54.22,0,0,0,4.33-3.74c-4.93.36-5.82.53-6.42.76a15.68,15.68,0,0,0-.73-2.35,5.39,5.39,0,0,0,2-.93,27.32,27.32,0,0,0,5.32-4.56l2.25,1.16a36.7,36.7,0,0,1-4.53,3.74l4.56-.23c.79-.83,1.55-1.69,2.28-2.55l2.15,1.49a69.38,69.38,0,0,1-9.09,8.4l6.42-.33c-.53-1-1.12-2.05-1.69-2.91l2.08-1a42.35,42.35,0,0,1,3.6,6.51l-2.25,1.16c-.17-.46-.36-1-.63-1.52Zm3.24,1.16c1.22,2.28,2.78,5.29,3.47,7L438,942.3a63.39,63.39,0,0,0-3.34-7.18Z"/><path class="cls-2" d="M480.75,903.07v2.78h-29.1v-2.78h6.12V885.84h16.6v17.23Zm-25.33-15.68h-3v-7.31h12.7a18.85,18.85,0,0,0-1.39-3.17l3-.73a16,16,0,0,1,1.69,3.77l-.53.13H480v7.31h-3.14v-4.53H455.42Zm5.32,1.12v3h10.52v-3Zm10.52,5.56H460.75v3.17h10.52Zm-10.52,9h10.52v-3.31H460.75Z"/><path class="cls-2" d="M458,914.08h-6.32v-2.55H458v-1.72h3v1.72h4.43v2.55H461v1.55h-3ZM456,924v16.2h-2.84v-24h11.54V924Zm0-5.92v1.26h6V918Zm6,4.07v-1.26h-6v1.26Zm10.25,16.63c-.86-.76-3.31-2.48-4.89-3.57v4.4h-2.45v-4.27a19.77,19.77,0,0,1-6.12,3.6,10.84,10.84,0,0,0-1.62-1.88,19.61,19.61,0,0,0,6.09-2.74H459v-6.22h5.89v-1.12H458v-1.72h6.81v-1.59h2.45v1.59h7.11v1.72h-7.11v1.12h6.15v6.22h-4.6c1.65.89,4,2.28,4.66,2.71ZM461,932.6h4.07v-2.88H461Zm2-2.65a16.27,16.27,0,0,1,1.29,1.92l-1.22.6c-.3-.56-.83-1.42-1.26-2.05Zm17.76-18.42v2.55h-6.25v1.55h-3v-1.55h-4.7v-2.55h4.7v-1.72h3v1.72Zm-9.46,18.19H467.1v2.88h4.23Zm8.07,7.18c0,1.39-.3,2.12-1.19,2.55a9.5,9.5,0,0,1-4.07.5,9.34,9.34,0,0,0-.89-2.55c1.19,0,2.31,0,2.71,0s.5-.13.5-.53V924h-9.06v-7.8h12ZM467.82,932c.43-.66,1-1.55,1.32-2.12l1.36.63c-.56.76-1.12,1.45-1.59,2Zm2.35-14v1.22h6.28v-1.22Zm6.28,4v-1.22h-6.28v1.22Z"/><path class="cls-2" d="M455.92,964.67a33.63,33.63,0,0,1-2.94,7,15.6,15.6,0,0,0-2.18-1.26,25.85,25.85,0,0,0,2.68-6.35Zm4-1.89V973.3h-2.58V962.79h-6.12v-2.45h1.42v-16h11.67v16h1.36v2.45Zm-4.76-16.17v2.05h6.55v-2.05Zm6.55,4h-6.55v2h6.55Zm-6.55,5.72h6.55v-1.82h-6.55Zm0,4h6.55v-2h-6.55Zm7.84,3.54a27.58,27.58,0,0,1,2.35,5l-2.15,1a28.39,28.39,0,0,0-2.25-5.06Zm7.71.13a32,32,0,0,1-3.84,7.84,17.35,17.35,0,0,0-2.12-1.32,23.56,23.56,0,0,0,3.31-7.18Zm7-18.88a46.77,46.77,0,0,1-11.38,4.56,10.43,10.43,0,0,0-1-2.18c3.74-1.19,7.9-2.91,10.28-4.66Zm-3.21,16.8v9.26c0,1.16-.2,1.65-1,2a9.59,9.59,0,0,1-3.44.36,9.43,9.43,0,0,0-.73-2h2.15c.33,0,.4-.1.4-.4v-9c-3.84.3-4.63.43-5.22.63a20.72,20.72,0,0,0-.79-2.45,8.39,8.39,0,0,0,3.08-1.75,54.22,54.22,0,0,0,4.33-3.74c-4.93.36-5.82.53-6.42.76a15.68,15.68,0,0,0-.73-2.35,5.39,5.39,0,0,0,2-.93,27.32,27.32,0,0,0,5.32-4.56l2.25,1.16a36.7,36.7,0,0,1-4.53,3.74l4.56-.23c.79-.83,1.55-1.69,2.28-2.55l2.15,1.49a69.38,69.38,0,0,1-9.09,8.4l6.42-.33c-.53-1-1.12-2.05-1.69-2.91l2.08-1a42.35,42.35,0,0,1,3.6,6.51l-2.25,1.16c-.17-.46-.36-1-.63-1.52Zm3.24,1.16c1.22,2.28,2.78,5.29,3.47,7l-2.41,1.16a63.39,63.39,0,0,0-3.34-7.18Z"/><path class="cls-2" d="M582.13,861.4a58.06,58.06,0,0,1,8.7,9.59l-2.58,1.92a26.3,26.3,0,0,0-1.92-2.71c-18.19,1-20.3,1-21.79,1.55a28.56,28.56,0,0,0-1-3,6.09,6.09,0,0,0,2.71-1.89,53,53,0,0,0,7.31-9.16l3.08,1.32a65.1,65.1,0,0,1-7.9,9.13l15.38-.63c-1.42-1.59-2.94-3.17-4.37-4.5ZM566,874.26h21.43v14h-3.27V886.6h-15v1.75H566Zm3.11,2.94v6.42h15V877.2Z"/><path class="cls-2" d="M590.06,897.18V913h-3.21V911.2h-8.6v10.52H575V911.2h-8.56v2h-3.08v-16H575v-5.75h3.21v5.75Zm-15,11v-8h-8.56v8Zm11.81,0v-8h-8.6v8Z"/><path class="cls-2" d="M578.22,932.46v4.1h10.62V947.9c0,1.62-.33,2.55-1.55,3s-3.08.53-5.75.53a10.67,10.67,0,0,0-1.09-3c2,.07,4,.07,4.5.07s.73-.17.73-.63v-8.3h-7.44V955H575V939.57h-7v11.94h-3.11V936.56H575v-4.1h-13.1v-3h13.69c-.53-1.26-1.29-2.81-2-4l3-.89a36.7,36.7,0,0,1,2.51,4.93h12.4v3Z"/><path class="cls-2" d="M34.24,599.52a36.63,36.63,0,0,1-2.56,4.43l.19,16-3,0-.14-12.1a32.24,32.24,0,0,1-3.37,3.38,27.43,27.43,0,0,0-2.57-2.15,28.1,28.1,0,0,0,8.41-10.52Zm-.11-6.78,3.24,0,0,2.91-3.24,0,0,2.94-3,0,0-2.94-7.67.09,0-2.91,7.67-.09,0-3.11,3,0Zm7.81,2.79-3.37,0,0-2.88,3.37,0,0-3.11,3.08,0,0,3.11,7.44-.09,0,2.88-7.44.09,0,3.11-3.08,0Zm6.79,21c1.46,0,1.68-.88,1.83-5a9.57,9.57,0,0,0,2.79,1.22c-.31,5.06-1.11,6.59-4.32,6.63l-5.65.07c-3.54,0-4.51-.91-4.55-4.45l-.19-16,3,0,.06,5.16L52.51,604l0,2.91L41.76,607l.09,7.9c0,1.39.28,1.65,1.84,1.63Z"/><path class="cls-2" d="M32.14,640.75a28.17,28.17,0,0,1-3,6.75c.6.32,1.3.88,2.37,1.53,2.3,1.33,5.31,1.53,9.21,1.48A129,129,0,0,0,54,649.59a12.74,12.74,0,0,0-.79,3c-2.61.23-8.69.5-12.53.54-4.37.05-7.21-.28-9.61-1.64-1.4-.78-2.57-1.85-3.26-1.85s-1.86,2.1-2.83,4.13l-2-2.66a14.75,14.75,0,0,1,3.1-3.38,21.27,21.27,0,0,0,2.62-5.06l-4.23,0c.91-1.53,2-3.63,2.94-5.62l-3.54,0,0-2.48,7.6-.09c-.87,1.86-1.94,3.89-2.88,5.69l1.52,0,.46-.14ZM30.2,627.51l-6.32.07,0-2.55,6.32-.07,0-2,3,0,0,2,4.43-.05,0,2.55-4.43.05,0,1.89-3,0ZM28,629c.77,1.21,1.75,2.76,2.29,3.71L27.82,634c-.51-1-1.55-2.66-2.23-3.88ZM41,649.54l0-2.08-8.86.1,0-2.25,8.86-.1,0-1.59-7.21.08-.11-9.16,7.21-.08,0-1.52-8.3.1,0-2.18,8.3-.1,0-1.72,2.84,0,0,1.72,8.6-.1,0,2.18-8.6.1,0,1.52,7.44-.09.11,9.16-7.44.09,0,1.59,9.16-.11,0,2.25-9.16.11,0,2.08ZM36.4,638.15l4.43-.05,0-1.72-4.43.05Zm4.47,3.55,0-1.75-4.43.05,0,1.75Zm2.78-14.35L39,627.4l0-2.55,4.66-.05,0-2,3,0,0,2,6.25-.07,0,2.55-6.25.07,0,1.49-3,0Zm0,9,0,1.72,4.5-.05,0-1.72Zm4.54,3.52-4.5.05,0,1.75,4.5-.05Z"/><path class="cls-2" d="M28.67,677.93a33.65,33.65,0,0,1-2.86,7,15.59,15.59,0,0,0-2.2-1.23,25.88,25.88,0,0,0,2.6-6.38ZM32.61,676l.12,10.52-2.58,0L30,676l-6.12.07,0-2.45,1.42,0-.19-16,11.67-.14.19,16,1.36,0,0,2.45Zm-4.95-16.12,0,2.05,6.55-.08,0-2.05Zm6.59,4-6.55.08,0,2,6.55-.08Zm-6.48,5.8,6.55-.08,0-1.82-6.55.08Zm0,4,6.55-.08,0-2-6.55.08ZM35.7,677A27.58,27.58,0,0,1,38.1,682L36,683a28.43,28.43,0,0,0-2.31-5Zm7.71,0A32,32,0,0,1,39.66,685a17.32,17.32,0,0,0-2.13-1.3,23.58,23.58,0,0,0,3.22-7.21Zm6.82-19a46.8,46.8,0,0,1-11.32,4.69,10.43,10.43,0,0,0-1-2.17c3.72-1.23,7.87-3,10.23-4.78Zm-3,16.84.11,9.26c0,1.16-.18,1.66-1,2a9.6,9.6,0,0,1-3.43.4,9.43,9.43,0,0,0-.75-2l2.15,0c.33,0,.4-.1.39-.4l-.1-9c-3.83.34-4.62.48-5.22.69a20.71,20.71,0,0,0-.82-2.44,8.39,8.39,0,0,0,3.05-1.79,54.36,54.36,0,0,0,4.29-3.79c-4.92.42-5.81.6-6.41.84a15.65,15.65,0,0,0-.76-2.34,5.39,5.39,0,0,0,1.94-.95A27.33,27.33,0,0,0,46,660.76l2.26,1.13a36.76,36.76,0,0,1-4.49,3.79l4.56-.28c.78-.84,1.53-1.7,2.25-2.57l2.17,1.46a69.33,69.33,0,0,1-9,8.5l6.41-.41c-.54-1-1.15-2-1.72-2.89l2.07-1A42.31,42.31,0,0,1,54.16,675l-2.23,1.18c-.17-.46-.38-1-.65-1.51Zm3.25,1.12c1.25,2.27,2.84,5.26,3.55,7l-2.4,1.19a63.31,63.31,0,0,0-3.42-7.14Z"/><path class="cls-2" d="M163.52,863.94c-.13,1.06-.3,2.08-.46,3H175.2v18c0,1.65-.43,2.41-1.59,2.84s-3.08.46-5.69.46a12.09,12.09,0,0,0-1.09-2.65c1.88.1,3.9.07,4.46,0s.76-.17.76-.69V869.8H152.41v18.49h-3.08V867h10.75c.1-.89.26-2,.36-3H147.78v-2.88h13c.1-1.09.17-2.15.2-3.08l3.37.33c-.1.89-.23,1.82-.36,2.74h12.73v2.88Zm.07,18.19v5.42h-2.91v-5.42H154v-2.48h6.65v-2.84h-6v-2.41h3a15.88,15.88,0,0,0-1.55-3.67l2.41-.63a17,17,0,0,1,1.72,3.77l-1.75.53H164a37.25,37.25,0,0,0,1.59-4.4l2.78.63c-.56,1.29-1.12,2.61-1.69,3.77h3.14v2.41h-6.25v2.84h6.88v2.48Z"/><path class="cls-2" d="M157.74,908.52c-1.06.33-2.15.66-3.21.93v8.66c0,1.59-.33,2.38-1.29,2.81s-2.41.56-4.7.56a11.3,11.3,0,0,0-.89-2.78c1.45,0,2.84,0,3.24,0s.66-.17.66-.66v-7.77l-3.84,1.06-.83-2.94c1.32-.3,2.91-.69,4.66-1.16v-6.55h-4.23v-2.84h4.23v-6.45h3v6.45h3.84v2.84h-3.84v5.75l2.81-.76Zm17.53-2.05a20.92,20.92,0,0,1-6.08,9.52,26.37,26.37,0,0,0,8.23,3,14.39,14.39,0,0,0-2,2.84,26.22,26.22,0,0,1-8.9-3.87,31.57,31.57,0,0,1-9.33,3.87,9.64,9.64,0,0,0-1.52-2.81,26.89,26.89,0,0,0,8.37-3,23.07,23.07,0,0,1-5.06-7l.83-.3H158.2v-2.88h14.55l.53-.1Zm-11.14-10.25a9.31,9.31,0,0,1-5.16,8.9,12.91,12.91,0,0,0-2-2.25c3.74-1.88,4.27-4.43,4.27-6.75v-3.57h10.88V900c0,.93.07,1.29.59,1.29h2.22a7.45,7.45,0,0,0,1.72-.2c0,.79.13,1.88.23,2.58a6.45,6.45,0,0,1-1.92.2h-2.48c-2.68,0-3.27-1.09-3.27-3.9v-4.53h-5.09ZM162,908.62a17.46,17.46,0,0,0,4.63,5.59,17.94,17.94,0,0,0,4.56-5.59Z"/><path class="cls-2" d="M151.95,946.25a33.63,33.63,0,0,1-2.94,7,15.6,15.6,0,0,0-2.18-1.26,25.85,25.85,0,0,0,2.68-6.35Zm4-1.89v10.52h-2.58V944.37h-6.12v-2.45h1.42v-16h11.67v16h1.36v2.45Zm-4.76-16.17v2.05h6.55v-2.05Zm6.55,4h-6.55v2h6.55Zm-6.55,5.72h6.55v-1.82h-6.55Zm0,4h6.55v-2h-6.55Zm7.84,3.54a27.58,27.58,0,0,1,2.35,5l-2.15,1a28.39,28.39,0,0,0-2.25-5.06Zm7.71.13a32,32,0,0,1-3.84,7.84,17.35,17.35,0,0,0-2.12-1.32,23.56,23.56,0,0,0,3.31-7.18Zm7-18.88a46.77,46.77,0,0,1-11.38,4.56,10.43,10.43,0,0,0-1-2.18c3.74-1.19,7.9-2.91,10.28-4.66Zm-3.21,16.8v9.26c0,1.16-.2,1.65-1,2a9.59,9.59,0,0,1-3.44.36,9.43,9.43,0,0,0-.73-2h2.15c.33,0,.4-.1.4-.4v-9c-3.84.3-4.63.43-5.22.63a20.72,20.72,0,0,0-.79-2.45A8.39,8.39,0,0,0,165,940.1a54.22,54.22,0,0,0,4.33-3.74c-4.93.36-5.82.53-6.42.76a15.68,15.68,0,0,0-.73-2.35,5.39,5.39,0,0,0,2-.93,27.32,27.32,0,0,0,5.32-4.56l2.25,1.16a36.7,36.7,0,0,1-4.53,3.74l4.56-.23c.79-.83,1.55-1.69,2.28-2.55l2.15,1.49a69.38,69.38,0,0,1-9.09,8.4l6.42-.33c-.53-1-1.12-2.05-1.69-2.91l2.08-1a42.35,42.35,0,0,1,3.6,6.51l-2.25,1.16c-.17-.46-.36-1-.63-1.52Zm3.24,1.16c1.22,2.28,2.78,5.29,3.47,7l-2.41,1.16a63.39,63.39,0,0,0-3.34-7.18Z"/><path class="cls-2" d="M251.23,916.94c0,5.32-.46,12.8-3.74,17.56a13.76,13.76,0,0,0-2.68-1.72c3.08-4.5,3.31-10.95,3.31-15.84V905.57h25.33v8.07H251.23Zm0-8.73V911h18.95v-2.81ZM275,926.93h-6v7.47H266v-7.47h-6.15c-.56,2.88-2.22,5.62-6.55,7.54a11.31,11.31,0,0,0-2.05-2.31c3.31-1.42,4.8-3.27,5.42-5.22h-5v-2.61h5.49a8.74,8.74,0,0,0,0-.93v-3.14h-4.73V917.7H257a29.42,29.42,0,0,0-1.69-3.08l2.81-.86a31.23,31.23,0,0,1,1.82,2.94l-2.84,1h8.8a29.61,29.61,0,0,0,1.85-3.93l3.27.89c-.66,1-1.39,2.05-2.08,3h5.16v2.55h-5v4.07h6ZM266,924.32v-4.07h-5.85v4.07Z"/><path class="cls-2" d="M264.19,957.88a31.27,31.27,0,0,0,11.38,6.85,12.92,12.92,0,0,0-2.22,2.65,33.78,33.78,0,0,1-11.57-8.07v8.47h-3.21v-8.33a33.45,33.45,0,0,1-11.38,7.9,14.42,14.42,0,0,0-2.12-2.58,31.47,31.47,0,0,0,11.11-6.88h-7.44V945.65h9.82v-2.41H245.93v-2.84h12.63v-2.94h3.21v2.94h12.93v2.84H261.78v2.41h10.32v12.24Zm-12.43-7.24h6.81V948h-6.81Zm0,4.89h6.81v-2.68h-6.81Zm10-7.54v2.65H269V948Zm7.21,4.86h-7.21v2.68H269Z"/><path class="cls-2" d="M250,992.31a33.63,33.63,0,0,1-2.94,7,15.6,15.6,0,0,0-2.18-1.26,25.85,25.85,0,0,0,2.68-6.35Zm4-1.89v10.52h-2.58V990.42h-6.12V988h1.42V972h11.67v16h1.36v2.45Zm-4.76-16.17v2.05h6.55v-2.05Zm6.55,4h-6.55v2h6.55ZM249.18,984h6.55v-1.82h-6.55Zm0,4h6.55v-2h-6.55Zm7.84,3.54a27.58,27.58,0,0,1,2.35,5l-2.15,1A28.39,28.39,0,0,0,255,992.4Zm7.71.13a32,32,0,0,1-3.84,7.84,17.35,17.35,0,0,0-2.12-1.32,23.56,23.56,0,0,0,3.31-7.18Zm7-18.88a46.77,46.77,0,0,1-11.38,4.56,10.43,10.43,0,0,0-1-2.18c3.74-1.19,7.9-2.91,10.28-4.66Zm-3.21,16.8v9.26c0,1.16-.2,1.65-1,2a9.59,9.59,0,0,1-3.44.36,9.43,9.43,0,0,0-.73-2h2.15c.33,0,.4-.1.4-.4v-9c-3.84.3-4.63.43-5.22.63a20.72,20.72,0,0,0-.79-2.45,8.39,8.39,0,0,0,3.08-1.75,54.22,54.22,0,0,0,4.33-3.74c-4.93.36-5.82.53-6.42.76a15.68,15.68,0,0,0-.73-2.35,5.39,5.39,0,0,0,2-.93,27.32,27.32,0,0,0,5.32-4.56l2.25,1.16a36.7,36.7,0,0,1-4.53,3.74l4.56-.23c.79-.83,1.55-1.69,2.28-2.55l2.15,1.49a69.38,69.38,0,0,1-9.09,8.4l6.42-.33c-.53-1-1.12-2.05-1.69-2.91l2.08-1a42.35,42.35,0,0,1,3.6,6.51l-2.25,1.16c-.17-.46-.36-1-.63-1.52Zm3.24,1.16c1.22,2.28,2.78,5.29,3.47,7l-2.41,1.16a63.39,63.39,0,0,0-3.34-7.18Z"/><path class="cls-2" d="M365.42,865.65a18.91,18.91,0,0,0,7,4.5,12.62,12.62,0,0,0-2,2.38,21,21,0,0,1-8.33-6.88h-9.85a21.1,21.1,0,0,1-2.91,3.34h6.05v-2.48h3.11V869H365v2.45h-6.55v2.94h11.11v2.55h-24.9v-2.55h10.68v-2.94H349v-2.18a23.1,23.1,0,0,1-5.46,3.64,10.39,10.39,0,0,0-2-2.35,19.71,19.71,0,0,0,7.14-4.89h-6.81V863.1h6.42V852.89h-4.8v-2.51h4.8V847.5h3.08v2.88h11.24v-2.84h3.14v2.84h4.73v2.51h-4.73V863.1H372v2.55Zm-14-12.76v1.85h11.24v-1.85Zm0,6h11.24V857H351.43Zm0,4.23h11.24v-2H351.43Z"/><path class="cls-2" d="M352.92,883.34c-.93,2.78-2.12,6.28-3.14,8.9a10.28,10.28,0,0,1,2.74,7c0,1.92-.43,3.31-1.39,4a4.09,4.09,0,0,1-1.79.63,11.76,11.76,0,0,1-2.18,0,6.56,6.56,0,0,0-.69-2.65,10.27,10.27,0,0,0,1.72,0,1.57,1.57,0,0,0,1-.3,2.65,2.65,0,0,0,.66-2.15,9.45,9.45,0,0,0-2.71-6.25,78.33,78.33,0,0,0,2.31-7.51h-3.54v26.19h-2.71v-29h7.31l.43-.1Zm10.71,13.06v2.84h6.81v2.28h-6.81v2h6.32v2.22h-6.32V908h8.43v2.45H351.63V908h9.09v-2.28H355.1v-2.22h5.62v-2h-4.6a16.9,16.9,0,0,1-1.82,3,15.46,15.46,0,0,0-2.18-1.42,16.69,16.69,0,0,0,3.11-6.38l2.55.53c-.2.69-.4,1.32-.66,2h3.6V896.4h-4.66v-2.15c-1,.36-2.05.63-3.08.89a10.2,10.2,0,0,0-1.46-2.41,34.45,34.45,0,0,0,8.3-2.74A18.39,18.39,0,0,1,357,887a21.51,21.51,0,0,1-3.31,2.88,8.1,8.1,0,0,0-2-2,18.12,18.12,0,0,0,6.45-7.37l2.94.46a23.34,23.34,0,0,1-1.19,2.15h7.9l.5-.1,1.85,1.06a18,18,0,0,1-5.46,6,28.2,28.2,0,0,0,8,2.45,12.88,12.88,0,0,0-1.75,2.41c-.83-.17-1.62-.36-2.45-.59v2.05Zm4.36-2.22a25.31,25.31,0,0,1-5.75-2.55,38,38,0,0,1-6,2.55Zm-9.13-8.7a13.44,13.44,0,0,0,3.37,3.14,16.57,16.57,0,0,0,3.7-3.14Z"/><path class="cls-2" d="M358.47,921.93V926h10.62v11.34c0,1.62-.33,2.55-1.55,3s-3.08.53-5.75.53a10.67,10.67,0,0,0-1.09-3c2,.07,4,.07,4.5.07s.73-.17.73-.63V929h-7.44v15.48h-3.21V929h-7V941h-3.11V926h10.09v-4.1h-13.1v-3h13.69c-.53-1.26-1.29-2.81-2-4l3-.89a36.7,36.7,0,0,1,2.51,4.93h12.4v3Z"/><path class="cls-2" d="M1794.73,868.56a30.51,30.51,0,0,1-3.34,6.65,17,17,0,0,0-2.12-1.46,20.37,20.37,0,0,0,3-5.92Zm4.27-2.15v11.21h-3V866.41h-6.35V863.8H1796v-3h-6.55v-2.58h3.6a16.58,16.58,0,0,0-1.16-4.13l2.51-.63a20.66,20.66,0,0,1,1.22,4.07l-2.45.69h5.22a34.09,34.09,0,0,0,1.62-4.8l2.85.6c-.56,1.45-1.13,3-1.69,4.2h3.87v2.58H1799v3h5.62v2.61Zm5.56-13H1790v-2.55h6c-.36-.93-.79-2-1.19-2.81l3-.79c.56,1.12,1.22,2.51,1.65,3.61h5Zm-2.35,14.19a28.12,28.12,0,0,1,2.74,5l-2.15,1.29a34.61,34.61,0,0,0-2.64-5.13Zm17.4-6.28h-3.37v16.37h-3V861.29h-3.87v.79c0,4.76-.43,11.38-3.37,15.58a10.42,10.42,0,0,0-2.35-1.82c2.61-3.84,2.84-9.43,2.84-13.76V850.64a51,51,0,0,0,10.12-2.68l2.41,2.25a54.1,54.1,0,0,1-9.66,2.45v5.79h10.25Z"/><path class="cls-2" d="M1819.63,890.42H1815v16.93c0,1.82-.36,2.74-1.55,3.24s-3.08.6-5.66.6a12.29,12.29,0,0,0-1.06-3.24c1.92.07,3.84.07,4.4.07s.73-.2.73-.69v-16.9h-4.33a29.52,29.52,0,0,1-3.27,6,16.31,16.31,0,0,0-2.65-1.89,20.35,20.35,0,0,0,2.55-4.07H1799v20.8h-3.11v-20.8h-1a34.32,34.32,0,0,1-3.31,6.05,20.82,20.82,0,0,0-2.81-1.89c2.65-3.27,4.66-8.5,5.82-13.72l3.24.66c-.5,2-1.09,4-1.75,5.85h8.27v2.48a43.39,43.39,0,0,0,2.91-9l3.11.63c-.5,2-1.06,4-1.72,5.89h10.95Z"/><path class="cls-2" d="M1794.17,935.72a33.63,33.63,0,0,1-2.94,7,15.61,15.61,0,0,0-2.18-1.26,25.92,25.92,0,0,0,2.68-6.35Zm4-1.89v10.52h-2.58V933.84h-6.12v-2.45h1.42v-16h11.67v16h1.36v2.45Zm-4.76-16.17v2.05h6.55v-2.05Zm6.55,4h-6.55v2h6.55Zm-6.55,5.72h6.55V925.6h-6.55Zm0,4h6.55v-2h-6.55Zm7.84,3.54a27.53,27.53,0,0,1,2.35,5l-2.15,1a28.53,28.53,0,0,0-2.25-5.06Zm7.71.13a32,32,0,0,1-3.84,7.84,17.44,17.44,0,0,0-2.12-1.32,23.52,23.52,0,0,0,3.31-7.18Zm7-18.88a46.75,46.75,0,0,1-11.38,4.56,10.4,10.4,0,0,0-1-2.18c3.74-1.19,7.9-2.91,10.28-4.66Zm-3.21,16.8v9.26c0,1.16-.2,1.65-1,2a9.58,9.58,0,0,1-3.44.36,9.43,9.43,0,0,0-.73-2h2.15c.33,0,.4-.1.4-.4v-9c-3.84.3-4.63.43-5.22.63a20.86,20.86,0,0,0-.79-2.45,8.39,8.39,0,0,0,3.08-1.75,54,54,0,0,0,4.33-3.74c-4.93.36-5.82.53-6.41.76a15.75,15.75,0,0,0-.73-2.35,5.39,5.39,0,0,0,2-.93,27.34,27.34,0,0,0,5.33-4.56l2.25,1.16a36.79,36.79,0,0,1-4.53,3.74l4.56-.23c.79-.83,1.55-1.69,2.28-2.55l2.15,1.49a69.35,69.35,0,0,1-9.1,8.4l6.42-.33c-.53-1-1.12-2.05-1.69-2.91l2.08-1a42.39,42.39,0,0,1,3.6,6.51l-2.25,1.16c-.17-.46-.36-1-.63-1.52Zm3.24,1.16c1.22,2.28,2.78,5.29,3.47,7l-2.41,1.16a63.28,63.28,0,0,0-3.34-7.18Z"/><rect class="cls-2" x="14.84" y="702.68" width="105.27" height="105.27"/><rect class="cls-2" x="425.4" y="710.57" width="122.38" height="122.38"/><rect class="cls-3" x="446.45" y="763.21" width="101.32" height="101.32"/><rect class="cls-4" x="491.19" y="742.15" width="100.01" height="100.01"/><rect class="cls-2" x="665.54" y="815.19" width="110.53" height="110.53"/><rect class="cls-2" x="833.32" y="771.1" width="107.9" height="107.9"/><rect class="cls-2" x="941.88" y="569.12" width="96.06" height="96.06"/><rect class="cls-2" x="1213.61" y="617.15" width="56.58" height="56.58"/><rect class="cls-2" x="1072.15" y="758.6" width="111.85" height="111.85"/><rect class="cls-4" x="1086.63" y="752.02" width="103.95" height="103.95"/><rect class="cls-2" x="1783.38" y="735.58" width="97.38" height="97.38"/><rect class="cls-4" x="851.74" y="748.73" width="80.27" height="80.27"/><rect class="cls-3" x="-79.9" y="750.05" width="118.43" height="118.43"/><rect class="cls-2" x="200.38" y="577.67" width="150.01" height="150.01"/><rect class="cls-2" x="149.06" y="727.68" width="114.48" height="114.48"/><rect class="cls-3" x="263.54" y="721.1" width="111.85" height="111.85"/><rect class="cls-3" x="188.54" y="734.26" width="143.43" height="143.43"/><path class="cls-5" d="M75.38-14.65a41.5,41.5,0,0,1-2.68,8.53c.6.33,1.32.89,2.38,1.55C77.4-3.18,80.41-3,84.28-3a121.73,121.73,0,0,0,13.26-.76,12.71,12.71,0,0,0-.89,3.17C94.07-.4,88-.2,84.15-.2,79.82-.2,77-.57,74.59-2,73.24-2.71,72-3.87,71.35-3.87S69.47-1.72,68.54.29L66.49-2.55A15.07,15.07,0,0,1,69.8-6,31.07,31.07,0,0,0,72-12.4H67.75c.79-2,1.79-4.63,2.61-7.21H67v-2.78h7.14C73.43-20,72.51-17.33,71.68-15h1.85l.46-.13Zm-4.93-9.13c-.4-1.46-1.19-3.77-1.72-5.52l2.68-.79c.63,1.72,1.42,3.9,1.82,5.32ZM84.21-7.51h-8.6V-10h8.6v-2H77V-22.89h7.18V-25h-8.6v-2.51h8.6V-30.2h3v2.68h9V-25h-9v2.12H94.6V-12H87.19v2h9.43v2.51H87.19V-4h-3Zm-4.33-11h4.33v-2.15H79.88Zm4.33,4.27v-2.18H79.88v2.18Zm3-6.42v2.15h4.46v-2.15Zm4.46,4.23H87.19v2.18h4.46Z"/><path class="cls-5" d="M72.94,18.38a53.26,53.26,0,0,0-6.05-3.57l1.65-2.25a42,42,0,0,1,6.12,3.27Zm3.51,4.27c-1.72,3.41-3.94,7.37-5.85,10.48L68,31A85.49,85.49,0,0,0,74.19,20.6ZM74.56,9.72a47.83,47.83,0,0,0-5.82-3.9l1.79-2.15a52.63,52.63,0,0,1,5.92,3.6ZM97.11,28.4v3.08H76V28.4h8.6V9.19H77.7V6.11H95.42V9.19H88V28.4Z"/><path class="cls-5" d="M71.68,58a33.63,33.63,0,0,1-2.94,7,15.6,15.6,0,0,0-2.18-1.26,25.85,25.85,0,0,0,2.68-6.35Zm4-1.89V66.66H73.07V56.15H67V53.7h1.42v-16H80v16H81.4v2.45ZM70.89,40V42h6.55V40Zm6.55,4H70.89v2h6.55Zm-6.55,5.72h6.55V47.91H70.89Zm0,4h6.55v-2H70.89Zm7.84,3.54a27.58,27.58,0,0,1,2.35,5l-2.15,1a28.39,28.39,0,0,0-2.25-5.06Zm7.71.13a32,32,0,0,1-3.84,7.84,17.35,17.35,0,0,0-2.12-1.32,23.56,23.56,0,0,0,3.31-7.18Zm7-18.88A46.77,46.77,0,0,1,82.1,43.05a10.43,10.43,0,0,0-1-2.18C84.88,39.68,89,38,91.42,36.21Zm-3.21,16.8v9.26c0,1.16-.2,1.65-1,2a9.59,9.59,0,0,1-3.44.36,9.43,9.43,0,0,0-.73-2h2.15c.33,0,.4-.1.4-.4v-9c-3.84.3-4.63.43-5.22.63a20.72,20.72,0,0,0-.79-2.45,8.39,8.39,0,0,0,3.08-1.75A54.22,54.22,0,0,0,89,48.14c-4.93.36-5.82.53-6.42.76a15.68,15.68,0,0,0-.73-2.35,5.39,5.39,0,0,0,2-.93,27.32,27.32,0,0,0,5.32-4.56l2.25,1.16A36.7,36.7,0,0,1,86.89,46l4.56-.23c.79-.83,1.55-1.69,2.28-2.55l2.15,1.49a69.38,69.38,0,0,1-9.09,8.4l6.42-.33c-.53-1-1.12-2.05-1.69-2.91l2.08-1a42.35,42.35,0,0,1,3.6,6.51L95,56.51c-.17-.46-.36-1-.63-1.52Zm3.24,1.16c1.22,2.28,2.78,5.29,3.47,7l-2.41,1.16a63.39,63.39,0,0,0-3.34-7.18Z"/><path class="cls-5" d="M378.51,362.64a33.74,33.74,0,0,0-5.26-3.67l1.46-2.28a32.1,32.1,0,0,1,5.32,3.41Zm2.61,4.17c-1.46,3.44-3.24,7.31-4.89,10.38l-2.31-2.05a103.49,103.49,0,0,0,5.19-10.35Zm-1.46-13a37.16,37.16,0,0,0-5.06-3.67l1.52-2.25a43,43,0,0,1,5.13,3.44Zm15,20.24c-4.66,1.06-9.62,2.05-13.19,2.81l-.79-2.74c2-.33,4.66-.79,7.54-1.36a50.51,50.51,0,0,0,1.85-6.15l2.81.76c-.59,1.59-1.32,3.37-2,4.86l3.47-.66Zm-8.5-21.43h-4.73v-2.48h4.73v-2.58h2.91v2.58H394v2.48h-4.89V355h4.1v2.41H382V355h4.17ZM393,366.38H382.32v-7.21H393Zm-8.76,6.32a17.43,17.43,0,0,0-1.55-5.09l2.45-.73a16.22,16.22,0,0,1,1.72,5Zm6-11.38H385v2.91h5.26Zm13.36,6.18a21.78,21.78,0,0,1-9.06,10.22,10.43,10.43,0,0,0-2-2.18,18.4,18.4,0,0,0,8.23-8.9ZM402.69,349a27.13,27.13,0,0,1-7.11,8.5,8.82,8.82,0,0,0-2.12-2,22.13,22.13,0,0,0,6.48-7.47Zm.4,9.13a23.78,23.78,0,0,1-7.24,8.47,9.77,9.77,0,0,0-2.12-2.08,19.23,19.23,0,0,0,6.55-7.34Z"/><path class="cls-5" d="M378.64,395.34a23.07,23.07,0,0,0-5.29-3.21l1.65-2.22a20.31,20.31,0,0,1,5.39,3Zm-4.73,13.89a103.2,103.2,0,0,0,4.43-10.52l2.48,1.62c-1.19,3.47-2.74,7.41-4.13,10.48Zm5.89-22.42a20.3,20.3,0,0,0-5.13-3.44l1.72-2.18a23.57,23.57,0,0,1,5.22,3.21Zm4.5,19.91v2.48h-2.65V395.81h3.57v-5.56H380.6v-2.78h4.63v-5.69H388v5.69h4.1v2.78H388v5.56h3.34v10.91Zm0-8.23v5.59h4.37v-5.59Zm18.49,9.26c0,1.36-.3,2.15-1.19,2.61s-2.25.53-4.37.5a9.88,9.88,0,0,0-.93-2.55c1.39,0,2.74,0,3.14,0s.59-.17.59-.63v-8.6L397,402l-1.12-2.41c-.36,4.17-1.36,8.63-4.1,11.71a12.23,12.23,0,0,0-2.28-1.59c3.54-4,3.87-9.79,3.87-14.45V382h9.46ZM396,395.25c0,1.32,0,2.74-.17,4.23,1.12-.69,2.65-1.82,4.2-3v-2.84l-1.12.93A27.19,27.19,0,0,0,396,391Zm0-10.48v5.42l1.16-.83a31.09,31.09,0,0,1,2.88,3.11v-7.71Z"/><path class="cls-5" d="M378.28,435.69a33.63,33.63,0,0,1-2.94,7,15.6,15.6,0,0,0-2.18-1.26,25.85,25.85,0,0,0,2.68-6.35Zm4-1.89v10.52h-2.58V433.8h-6.12v-2.45H375v-16h11.67v16H388v2.45Zm-4.76-16.17v2.05H384v-2.05Zm6.55,4h-6.55v2H384Zm-6.55,5.72H384v-1.82h-6.55Zm0,4H384v-2h-6.55Zm7.84,3.54a27.58,27.58,0,0,1,2.35,5l-2.15,1a28.39,28.39,0,0,0-2.25-5.06ZM393,435a32,32,0,0,1-3.84,7.84,17.35,17.35,0,0,0-2.12-1.32,23.56,23.56,0,0,0,3.31-7.18Zm7-18.88a46.77,46.77,0,0,1-11.38,4.56,10.43,10.43,0,0,0-1-2.18c3.74-1.19,7.9-2.91,10.28-4.66Zm-3.21,16.8v9.26c0,1.16-.2,1.65-1,2a9.59,9.59,0,0,1-3.44.36,9.43,9.43,0,0,0-.73-2h2.15c.33,0,.4-.1.4-.4v-9c-3.84.3-4.63.43-5.22.63a20.72,20.72,0,0,0-.79-2.45,8.39,8.39,0,0,0,3.08-1.75,54.22,54.22,0,0,0,4.33-3.74c-4.93.36-5.82.53-6.42.76a15.68,15.68,0,0,0-.73-2.35,5.39,5.39,0,0,0,2-.93,27.32,27.32,0,0,0,5.32-4.56l2.25,1.16a36.7,36.7,0,0,1-4.53,3.74l4.56-.23c.79-.83,1.55-1.69,2.28-2.55l2.15,1.49a69.38,69.38,0,0,1-9.09,8.4l6.42-.33c-.53-1-1.12-2.05-1.69-2.91l2.08-1a42.35,42.35,0,0,1,3.6,6.51l-2.25,1.16c-.17-.46-.36-1-.63-1.52Zm3.24,1.16c1.22,2.28,2.78,5.29,3.47,7l-2.41,1.16a63.39,63.39,0,0,0-3.34-7.18Z"/><path class="cls-5" d="M669.78,581.12c-.4.63-.73,1.22-1.09,1.75h7.84v2.35H656.05c-.07.66-.17,1.32-.26,1.92l6.25,0s0,.63-.07,1c-.36,3.44-.69,5-1.36,5.69a2.64,2.64,0,0,1-1.92.76,28.63,28.63,0,0,1-3.41,0,6.23,6.23,0,0,0-.66-2.28,18.53,18.53,0,0,0,2.74.13c.46,0,.73,0,.93-.23a5.75,5.75,0,0,0,.76-2.84h-3.84c-1,2.58-2.81,4.4-6.68,5.59a6.82,6.82,0,0,0-1.46-2.05c2.81-.79,4.37-2,5.26-3.54h-4v-2.25h4.7a16.65,16.65,0,0,0,.3-1.92h-5.42v-2.35h8.17A8.16,8.16,0,0,0,655,581l1.85-.3h-5.52V574.4h22.06v6.32h-5.72Zm6.94-14.48v2.31h-13v1.69h10.75v2.22H650.23v-2.22h10.38v-1.69H647.95v-2.31h12.67v-2.08h3.08v2.08Zm-22.59,12h16.24v-2.18H654.13Zm3.94,2.08a7.32,7.32,0,0,1,1.22,2l-.66.13h6.88c.33-.69.73-1.52,1-2.15Zm5.62,5.85H675.2v8.23h-2.88v-.86h-5.89v.93h-2.74Zm2.74,2.18v3h5.89v-3Z"/><path class="cls-5" d="M674.64,620a17.41,17.41,0,0,1-4.2,3.84,4.93,4.93,0,0,0,3.51,1.62c.86,0,1.09-.69,1.26-2.81a6.7,6.7,0,0,0,2.31,1.19c-.46,3.57-1.42,4.43-3.74,4.43a7.85,7.85,0,0,1-5.89-2.88,41.84,41.84,0,0,1-7,2.84,13.42,13.42,0,0,0-1.59-2.45,32.3,32.3,0,0,0,7.11-2.48,19.54,19.54,0,0,1-1.88-4.37h-7.11v1.79l5.46-.4v2.15c-1.82.17-3.67.33-5.46.46v2.48c0,1.49-.33,2.15-1.42,2.48a18.22,18.22,0,0,1-5.16.4,13.31,13.31,0,0,0-.89-2.41c1.65.1,3.41.1,3.84.07s.66-.13.66-.6v-2.15l-6.61.53-.26-2.38c1.89-.1,4.27-.23,6.88-.43v-2h-6.75V616.6h6.75v-1.85c-1.92.2-3.84.33-5.62.4a7.35,7.35,0,0,0-.66-1.92,77.77,77.77,0,0,0,12.43-1.52l1.82,1.85c-1.46.36-3.17.63-5,.89v2.15h6.51a32.37,32.37,0,0,1-.59-4.56h3a24.54,24.54,0,0,0,.6,4.56h6.61a24,24,0,0,0-5.32-3l1.72-1.79a20.42,20.42,0,0,1,5.42,2.91l-1.75,1.92H677v2.35h-9.46a14.2,14.2,0,0,0,1.36,2.94,12.79,12.79,0,0,0,3.11-2.78Zm2.25-8.43h-29.2v-2.41h13v-1.69h-9.76v-2.22h9.76v-1.69H649.14v-2.31h6.35a13.79,13.79,0,0,0-1.59-2.41l2.68-.89a11.65,11.65,0,0,1,2.18,3.24l-.17.07h7.34a29.87,29.87,0,0,0,1.75-3.37l3.34.73c-.66,1-1.29,1.89-1.89,2.65h6.32v2.31H663.79v1.69h9.92v2.22h-9.92v1.69h13.1Z"/><path class="cls-5" d="M652,652.81a33.63,33.63,0,0,1-2.94,7,15.6,15.6,0,0,0-2.18-1.26,25.85,25.85,0,0,0,2.68-6.35Zm4-1.89v10.52h-2.58V650.92h-6.12v-2.45h1.42v-16h11.67v16h1.36v2.45Zm-4.76-16.17v2.05h6.55v-2.05Zm6.55,4h-6.55v2h6.55Zm-6.55,5.72h6.55v-1.82h-6.55Zm0,4h6.55v-2h-6.55ZM659,652a27.58,27.58,0,0,1,2.35,5l-2.15,1a28.39,28.39,0,0,0-2.25-5.06Zm7.71.13A32,32,0,0,1,662.9,660a17.35,17.35,0,0,0-2.12-1.32,23.56,23.56,0,0,0,3.31-7.18Zm7-18.88a46.77,46.77,0,0,1-11.38,4.56,10.43,10.43,0,0,0-1-2.18c3.74-1.19,7.9-2.91,10.28-4.66Zm-3.21,16.8v9.26c0,1.16-.2,1.65-1,2a9.59,9.59,0,0,1-3.44.36,9.43,9.43,0,0,0-.73-2h2.15c.33,0,.4-.1.4-.4v-9c-3.84.3-4.63.43-5.22.63a20.72,20.72,0,0,0-.79-2.45,8.39,8.39,0,0,0,3.08-1.75,54.22,54.22,0,0,0,4.33-3.74c-4.93.36-5.82.53-6.42.76a15.68,15.68,0,0,0-.73-2.35,5.39,5.39,0,0,0,2-.93,27.32,27.32,0,0,0,5.32-4.56l2.25,1.16a36.7,36.7,0,0,1-4.53,3.74l4.56-.23c.79-.83,1.55-1.69,2.28-2.55l2.15,1.49a69.38,69.38,0,0,1-9.09,8.4l6.42-.33c-.53-1-1.12-2.05-1.69-2.91l2.08-1a42.35,42.35,0,0,1,3.6,6.51l-2.25,1.16c-.17-.46-.36-1-.63-1.52Zm3.24,1.16c1.22,2.28,2.78,5.29,3.47,7l-2.41,1.16a63.39,63.39,0,0,0-3.34-7.18Z"/><path class="cls-5" d="M879.27,519.17v2.61H850.43v-2.61h13.13c-.3-.89-.63-1.89-.93-2.71l3.11-.73c.43,1.06,1,2.38,1.29,3.44Zm-.89,24c0,1.46-.36,2-1.39,2.41a15.21,15.21,0,0,1-4.76.36,10.36,10.36,0,0,0-1-2.28c1.39.07,3,.07,3.41,0s.59-.13.59-.53v-8.9H854.5v11.94h-3V531.73h26.89ZM875,523.37v6.78H855.16v-6.78Zm-14.45,19.51v1.52H857.7v-8.5h14v7Zm11.21-17.36H858.2V528h13.56Zm-11.21,12.6v2.55H869v-2.55Z"/><path class="cls-5" d="M857,557.49c-1,6.35-2.64,11.77-5.26,15.74a23.11,23.11,0,0,0-2.58-1.75c2.48-3.41,4-8.33,4.89-14h-3.64v-2.94h4.1c.23-1.72.4-3.51.53-5.29l2.94.26c-.16,1.72-.36,3.41-.56,5h6.58v2.94Zm5.16,9.79a76.62,76.62,0,0,1,2.71,10.25l-2.48.89c-.1-.73-.26-1.49-.43-2.35-6.58,1.19-7.64,1.45-8.27,1.85a14.94,14.94,0,0,0-1-2.61c.63-.2,1.13-1.16,1.79-2.58a58.77,58.77,0,0,0,3.7-11.74l2.91.69a73.76,73.76,0,0,1-4.66,12.8l4.93-.83c-.46-1.92-1-3.9-1.52-5.62ZM879.76,578H868.52v1.62h-2.71V560.24a23.7,23.7,0,0,1-2.18,3.14,14.63,14.63,0,0,0-1.79-2.41,32.37,32.37,0,0,0,5.79-11.54l2.61.69a51.34,51.34,0,0,1-2,5.32H879.4v2.71h-4.07v3.94h4v2.61h-4v3.9h4v2.61h-4v4h4.43Zm-11.24-19.81v3.94h4v-3.94Zm4,6.55h-4v3.9h4Zm-4,10.48h4v-4h-4Zm5.26-25.5a26.82,26.82,0,0,1,2.22,4.7l-2.74,1a30.7,30.7,0,0,0-2.08-4.86Z"/><path class="cls-5" d="M866.4,590.33v4.1H877v11.34c0,1.62-.33,2.55-1.55,3s-3.08.53-5.75.53a10.63,10.63,0,0,0-1.09-3c2,.07,4,.07,4.5.07s.73-.17.73-.63v-8.3H866.4v15.48h-3.21V597.44h-7v11.94h-3.11V594.43h10.09v-4.1H850.1v-3h13.69c-.53-1.26-1.29-2.81-2-4l3-.89a36.92,36.92,0,0,1,2.51,4.93h12.4v3Z"/><path class="cls-5" d="M1832.61,594.18c-.43-1-1.26-2.55-2.08-4v16.57h-2.91V593.19a31.85,31.85,0,0,1-2.94,7.24,24.35,24.35,0,0,0-1.52-3.08c1.82-2.68,3.54-7.67,4.33-11.87h-3.87v-2.84h4v-6.22h2.91v6.22h3v2.84h-3v.93c1,1.22,3.37,4.66,4,5.52Zm9.62-17.73v13.62c0,6.08-.83,13-7.41,16.8a13.82,13.82,0,0,0-2-2.25c4.3-2,5.79-5.62,6.32-9.36-1.46,1.29-2.94,2.58-4.3,3.77l-1.52-2.88c1.55-.93,3.8-2.55,6.05-4.17,0-.66,0-1.29,0-1.92V576.46Zm-5.59,4.8a36.4,36.4,0,0,1,2.81,6.81l-2.45,1.09a33.38,33.38,0,0,0-2.64-7Zm14.12,22.32c.66,0,.79-.86.86-4a7.51,7.51,0,0,0,2.58,1.26c-.3,4-1,5.46-3.21,5.46h-2.94c-2.45,0-3.18-.89-3.18-4.33V576.42h2.91V591.7l.89-.76a50.58,50.58,0,0,1,5.49,5.72l-2,1.92a45.1,45.1,0,0,0-4.43-5V602c0,1.36.1,1.55.79,1.55Zm2.91-21.43c-1.19,2.35-2.55,5-3.67,6.81l-2.18-1a42.42,42.42,0,0,0,3-6.94Z"/><path class="cls-5" d="M1852.45,611.18v29h-3v-1.29h-21.69v1.29h-2.88v-29Zm-3,24.9V614h-21.69v22.12Zm-9.62-4.27a7.07,7.07,0,0,0,0,1.89c-5.89,1.59-6.78,1.82-7.31,2.18a5.59,5.59,0,0,0-.76-1.75,1.7,1.7,0,0,0,1.19-1.79v-1.88c-1.06.4-2.12.76-3.14,1.06a12.21,12.21,0,0,0-1.49-1.79,32.69,32.69,0,0,0,7-2.38h-4.23v-4.8h15.21v4.8h-7.51a18.21,18.21,0,0,1-3.54,2.12v3.41Zm8.2-10.38h-18.85v-1.82h8v-1.72h-6.22v-1.79h6.22v-1.62h2.78v1.62h6.55v1.79h-6.55v1.72h8.1Zm-14.35,4.46h9.92V624h-9.92Zm14.48,3.21a26.79,26.79,0,0,1-3.31,2c1.32.93,2.55,1.82,3.44,2.58l-2,1.22a62.44,62.44,0,0,0-8.43-6l1.88-1.09c1.06.63,2.28,1.36,3.44,2.12a26,26,0,0,0,3.08-2.08Z"/><path class="cls-5" d="M1840.15,650.86V655h10.62V666.3c0,1.62-.33,2.55-1.55,3s-3.08.53-5.75.53a10.63,10.63,0,0,0-1.09-3c2,.07,4,.07,4.5.07s.73-.17.73-.63V658h-7.44v15.48h-3.21V658h-7v11.94h-3.11V655h10.09v-4.1h-13.1v-3h13.69c-.53-1.26-1.29-2.81-2-4l3-.89a36.92,36.92,0,0,1,2.51,4.93h12.4v3Z"/><rect class="cls-6" x="651.73" y="682.94" width="146.06" height="146.06"/><rect class="cls-6" x="378.02" y="463.19" width="163.17" height="163.17"/><rect class="cls-6" x="70.11" y="85.53" width="259.23" height="259.23"/><rect class="cls-6" x="1830.1" y="696.76" width="107.9" height="107.9"/><rect class="cls-6" x="857.66" y="633.59" width="106.59" height="106.59"/></g></svg>