<svg xmlns="http://www.w3.org/2000/svg" viewBox="0 0 1920 720"><defs><style>.cls-1{fill:#f6f1eb;}.cls-2,.cls-5{fill:#6b6a6b;}.cls-3{font-size:11.36px;}.cls-10,.cls-14,.cls-3,.cls-6,.cls-8{fill:none;}.cls-10,.cls-3,.cls-6,.cls-8{font-family:MyriadPro-Regular, Myriad Pro;}.cls-11,.cls-12,.cls-4,.cls-7,.cls-9{fill:#b58859;}.cls-11,.cls-4,.cls-7,.cls-9{stroke:#b58859;}.cls-11,.cls-14,.cls-4,.cls-5,.cls-7,.cls-9{stroke-miterlimit:10;}.cls-4{stroke-width:0.61px;}.cls-14,.cls-5{stroke:#6b6a6b;}.cls-6{font-size:11.22px;}.cls-7{stroke-width:0.5px;}.cls-8{font-size:14.02px;}.cls-9{stroke-width:0.61px;}.cls-10{font-size:14.56px;}.cls-11{stroke-width:0.62px;}.cls-13{fill:#a8a5a8;}.cls-15,.cls-16{font-size:15px;fill:#fff;font-family:NotoSansCJKtc-Bold-B5pc-H, Noto Sans CJK TC;font-weight:700;}.cls-15{letter-spacing:0.1em;}.cls-16{letter-spacing:0.1em;}</style></defs><title>cp-rank</title><g id="背景"><rect class="cls-1" x="-24" y="-1" width="1945" height="722"/><path class="cls-2" d="M1710.53,53.93a13.18,13.18,0,0,1,3.94-9.6l1.9.84a12.51,12.51,0,0,0,0,17.52l-1.9.84A13.18,13.18,0,0,1,1710.53,53.93Z"/><path class="cls-2" d="M1737.49,54.71h-7.88v8.56h-2.56V54.71h-7.68V52.37h7.68v-4c-2,.26-4,.46-6,.6a7.67,7.67,0,0,0-.64-2.12,73.82,73.82,0,0,0,13.4-2.1l1.8,2a49.22,49.22,0,0,1-6,1.26v4.36h7.88Z"/><path class="cls-2" d="M1756.63,60.71c.66,0,.78-.52.88-3.4a6.66,6.66,0,0,0,2.2,1c-.24,3.58-.84,4.62-2.88,4.62h-2.4c-2.26,0-2.84-.76-2.84-3.1V53.71h-3c-.36,4.16-1.28,7.58-6.06,9.52a6.87,6.87,0,0,0-1.48-1.94c4.16-1.56,4.72-4.26,5-7.58h-4.52V51.39h17.84v2.32h-5.28v6.12c0,.76.12.88.78.88Zm.86-12.42h-14.2V46h14.2Z"/><path class="cls-2" d="M1768.25,53.93a13.18,13.18,0,0,1-3.94,9.6l-1.9-.84a12.51,12.51,0,0,0,0-17.52l1.9-.84A13.18,13.18,0,0,1,1768.25,53.93Z"/></g><g id="長條圖-artboard2"><text class="cls-3" transform="translate(557.84 723.85) scale(1.52 1)">0.0</text><text class="cls-3" transform="translate(619.34 723.85) scale(1.52 1)">0.5</text><text class="cls-3" transform="translate(680.85 723.85) scale(1.52 1)">1.0</text><text class="cls-3" transform="translate(742.35 723.85) scale(1.52 1)">1.5</text><text class="cls-3" transform="translate(803.86 723.85) scale(1.52 1)">2.0</text><text class="cls-3" transform="translate(865.36 723.85) scale(1.52 1)">2.5</text><text class="cls-3" transform="translate(926.87 723.85) scale(1.52 1)">3.0</text><rect class="cls-4" x="568.5" y="87.37" width="136.54" height="15.89"/><rect class="cls-4" x="568.5" y="116.75" width="126.21" height="15.89"/><rect class="cls-4" x="568.5" y="144.14" width="194.35" height="16.89"/><rect class="cls-4" x="568.5" y="172.52" width="340.73" height="15.89"/><rect class="cls-4" x="568.5" y="200.9" width="220.19" height="15.89"/><rect class="cls-5" x="568.5" y="229.29" width="114.4" height="15.89"/><rect class="cls-5" x="568.5" y="258.67" width="269.39" height="15.89"/><rect class="cls-5" x="568.5" y="287.06" width="332.12" height="15.89"/><rect class="cls-5" x="568.5" y="315.44" width="150.07" height="15.89"/><rect class="cls-5" x="568.5" y="344.82" width="198.04" height="15.89"/><rect class="cls-5" x="568.5" y="373.21" width="129.16" height="15.89"/><rect class="cls-5" x="568.5" y="401.59" width="250.94" height="15.89"/><rect class="cls-5" x="568.5" y="428.98" width="123.01" height="15.89"/><rect class="cls-5" x="568.5" y="457.36" width="198.04" height="15.89"/><rect class="cls-5" x="568.5" y="485.74" width="129.16" height="15.89"/><rect class="cls-5" x="568.5" y="515.13" width="247.25" height="15.89"/><rect class="cls-5" x="568.5" y="543.51" width="178.36" height="15.89"/><rect class="cls-5" x="568.5" y="571.9" width="114.4" height="15.89"/><rect class="cls-5" x="568.5" y="601.28" width="86.11" height="15.89"/><rect class="cls-5" x="568.5" y="628.66" width="147.61" height="15.89"/><rect class="cls-5" x="568.5" y="658.05" width="66.42" height="15.89"/><rect class="cls-5" x="568.5" y="686.43" width="115.63" height="15.89"/><text class="cls-6" transform="translate(258.45 59.92) rotate(180) scale(1.01 1)">0</text><text class="cls-6" transform="translate(221.11 59.92) rotate(180) scale(1.01 1)">10</text><text class="cls-6" transform="translate(180.86 59.92) rotate(180) scale(1.01 1)">20</text><text class="cls-6" transform="translate(140.61 59.92) rotate(180) scale(1.01 1)">30</text><text class="cls-6" transform="translate(100.36 59.92) rotate(180) scale(1.01 1)">40</text><text class="cls-6" transform="translate(60.12 59.92) rotate(180) scale(1.01 1)">50</text><text class="cls-6" transform="translate(19.87 59.92) rotate(180) scale(1.01 1)">60</text><rect class="cls-5" x="187.13" y="686.97" width="68.42" height="16.01"/><rect class="cls-5" x="183.1" y="657.38" width="72.45" height="16.01"/><rect class="cls-5" x="167" y="628.78" width="88.55" height="16.01"/><rect class="cls-5" x="162.98" y="600.18" width="92.57" height="16.01"/><rect class="cls-5" x="154.93" y="571.59" width="100.62" height="16.01"/><rect class="cls-5" x="146.88" y="543.99" width="108.67" height="16.01"/><rect class="cls-5" x="146.88" y="514.4" width="108.67" height="16.01"/><rect class="cls-5" x="138.83" y="485.8" width="116.72" height="16.01"/><rect class="cls-5" x="126.76" y="458.21" width="128.79" height="16.01"/><rect class="cls-5" x="118.71" y="428.61" width="136.84" height="16.01"/><rect class="cls-5" x="114.68" y="402.01" width="140.87" height="16.01"/><rect class="cls-5" x="114.68" y="372.42" width="140.87" height="16.01"/><rect class="cls-5" x="102.61" y="344.82" width="152.94" height="16.01"/><rect class="cls-5" x="98.58" y="316.23" width="156.97" height="16.01"/><rect class="cls-5" x="94.56" y="286.63" width="160.99" height="16.01"/><rect class="cls-5" x="94.56" y="259.03" width="160.99" height="16.01"/><rect class="cls-5" x="90.53" y="229.44" width="165.02" height="16.01"/><rect class="cls-7" x="82.48" y="200.84" width="173.07" height="16.01"/><rect class="cls-7" x="82.48" y="172.25" width="173.07" height="16.01"/><rect class="cls-7" x="66.38" y="144.65" width="189.17" height="16.01"/><rect class="cls-7" x="54.31" y="117.06" width="201.24" height="16.01"/><rect class="cls-7" x="42.23" y="87.46" width="213.32" height="16.01"/><text class="cls-8" transform="translate(983.46 728.28) scale(1.5 1)">0</text><text class="cls-8" transform="translate(1052.86 728.28) scale(1.5 1)">10</text><text class="cls-8" transform="translate(1127.66 728.28) scale(1.5 1)">20</text><text class="cls-8" transform="translate(1202.46 728.28) scale(1.5 1)">30</text><text class="cls-8" transform="translate(1277.26 728.28) scale(1.5 1)">40</text><text class="cls-8" transform="translate(1352.06 728.28) scale(1.5 1)">50</text><text class="cls-8" transform="translate(1426.86 728.28) scale(1.5 1)">60</text><rect class="cls-9" x="988.85" y="86.67" width="51.61" height="15.97"/><rect class="cls-9" x="988.85" y="116.19" width="20.72" height="15.97"/><rect class="cls-9" x="988.85" y="144.72" width="69.56" height="15.97"/><rect class="cls-9" x="988.85" y="172.25" width="126.64" height="15.97"/><rect class="cls-9" x="988.85" y="200.77" width="122.67" height="15.97"/><rect class="cls-5" x="988.85" y="229.3" width="68.07" height="15.97"/><rect class="cls-5" x="988.85" y="258.82" width="90.51" height="15.97"/><rect class="cls-5" x="988.85" y="286.35" width="437.58" height="15.97"/><rect class="cls-5" x="988.85" y="315.87" width="144.36" height="15.97"/><rect class="cls-5" x="988.85" y="344.4" width="100.23" height="15.97"/><rect class="cls-5" x="988.85" y="372.92" width="110.7" height="15.97"/><rect class="cls-5" x="988.85" y="401.45" width="138.38" height="15.97"/><rect class="cls-5" x="988.85" y="428.97" width="222.9" height="15.97"/><rect class="cls-5" x="988.85" y="457.5" width="69.56" height="15.97"/><rect class="cls-5" x="988.85" y="486.03" width="115.42" height="15.97"/><rect class="cls-5" x="988.85" y="514.55" width="150.35" height="15.97"/><rect class="cls-5" x="988.85" y="544.08" width="113.7" height="15.97"/><rect class="cls-5" x="988.85" y="571.6" width="121.92" height="15.97"/><rect class="cls-5" x="988.85" y="601.13" width="124.17" height="15.97"/><rect class="cls-5" x="988.85" y="628.65" width="152.59" height="15.97"/><rect class="cls-5" x="988.85" y="657.18" width="113.7" height="15.97"/><rect class="cls-5" x="988.85" y="686.7" width="135.39" height="15.97"/><text class="cls-10" transform="translate(1450.17 728.76) scale(1.47 1)">0</text><text class="cls-10" transform="translate(1525.03 728.76) scale(1.47 1)">5000</text><text class="cls-10" transform="translate(1610.87 728.76) scale(1.47 1)">10000</text><text class="cls-10" transform="translate(1702.21 728.76) scale(1.47 1)">15000</text><text class="cls-10" transform="translate(1793.54 728.76) scale(1.47 1)">20000</text><text class="cls-10" transform="translate(1884.87 728.76) scale(1.47 1)">25000</text><rect class="cls-11" x="1455.66" y="86.48" width="229.01" height="16.98"/><rect class="cls-11" x="1455.66" y="117.02" width="388.6" height="15.98"/><rect class="cls-11" x="1455.66" y="144.56" width="125.97" height="15.98"/><rect class="cls-11" x="1455.66" y="172.1" width="129.22" height="15.98"/><rect class="cls-11" x="1455.66" y="200.63" width="159.89" height="15.98"/><rect class="cls-5" x="1455.66" y="229.17" width="177.81" height="15.98"/><rect class="cls-5" x="1455.66" y="258.71" width="118.44" height="15.98"/><rect class="cls-5" x="1455.66" y="286.25" width="179.52" height="15.98"/><rect class="cls-5" x="1455.66" y="315.78" width="113.49" height="15.98"/><rect class="cls-5" x="1455.66" y="344.32" width="112.72" height="15.98"/><rect class="cls-5" x="1455.66" y="372.86" width="96.89" height="15.98"/><rect class="cls-5" x="1455.66" y="401.4" width="193.55" height="15.98"/><rect class="cls-5" x="1455.66" y="428.93" width="109.31" height="15.98"/><rect class="cls-5" x="1455.66" y="457.47" width="102.64" height="15.98"/><rect class="cls-5" x="1455.66" y="486.01" width="93.25" height="15.98"/><rect class="cls-5" x="1455.66" y="514.55" width="105.2" height="15.98"/><rect class="cls-5" x="1455.66" y="544.09" width="72.02" height="15.98"/><rect class="cls-5" x="1455.66" y="571.62" width="118.2" height="15.98"/><rect class="cls-5" x="1455.66" y="600.16" width="128.08" height="15.98"/><rect class="cls-5" x="1455.66" y="628.7" width="108.05" height="15.98"/><rect class="cls-5" x="1455.66" y="657.24" width="102.57" height="15.98"/><rect class="cls-5" x="1455.66" y="686.77" width="97.84" height="15.98"/></g><g id="縣市名稱-artboard2"><path class="cls-2" d="M589.05,59.85v1.86h-17.9V59.85H579v-11h-6.76V47H588v1.92h-7v11Z"/><path class="cls-2" d="M601.93,45.45a31.82,31.82,0,0,1-2,4.18v13.5h-1.88V52.57a18.16,18.16,0,0,1-1.64,2,11.19,11.19,0,0,0-1-1.92,22.26,22.26,0,0,0,4.76-7.72Zm6,4.42v2.54h5.44v1.7H608v2.66h5.72v1.74H608v4.64h-1.9V49.87H605a20.71,20.71,0,0,1-2.72,4,11.16,11.16,0,0,0-1.44-1.26,21.26,21.26,0,0,0,4.32-7.6l1.78.48c-.32.86-.66,1.74-1,2.58h8v1.78Z"/><path class="cls-2" d="M624.79,55.71a21,21,0,0,0-1-2.18v9.64h-1.6V54.51A22,22,0,0,1,620.59,59a9.57,9.57,0,0,0-.78-1.86,22.93,22.93,0,0,0,2.32-6.8h-1.84V48.59h1.94V44.83h1.6v3.76h1.5v1.72h-1.5v1.1c.46.66,1.58,2.52,1.82,3Zm12.38,1.42a11,11,0,0,1-2.32,3.1,2.48,2.48,0,0,0,1.72,1.12c.38,0,.62-.68.78-2.1a5,5,0,0,0,1.2.94c-.42,2.34-1.12,3-2,3a4,4,0,0,1-3-1.88,14.48,14.48,0,0,1-3.34,1.8,8.92,8.92,0,0,0-1-1.2,12.4,12.4,0,0,0,3.56-1.94,17.79,17.79,0,0,1-1.06-3.46h-3c0,.2,0,.42,0,.62a25.2,25.2,0,0,1,2.64,2.3l-1.14,1.12a19,19,0,0,0-1.78-1.7,7.51,7.51,0,0,1-2.84,4.36,5.88,5.88,0,0,0-1.24-1.1,6.63,6.63,0,0,0,2.8-5.6h-1.4V55h5.74a80.55,80.55,0,0,1-.84-10.08h1.56A68,68,0,0,0,633.05,55h2.4A14.27,14.27,0,0,0,634,53.95l.82-.74a5.55,5.55,0,0,0-1.42.36,13.79,13.79,0,0,0-.46-1.36c.32-.08.62-.4,1-.9A16.69,16.69,0,0,0,635,49.69a5.23,5.23,0,0,0-1.82.38,10.43,10.43,0,0,0-.46-1.32c.24-.06.46-.32.7-.68A13.69,13.69,0,0,0,634.75,45l1.38.38a20.64,20.64,0,0,1-1.64,3.18l1.18-.12a11.4,11.4,0,0,0,.64-1.32l1.38.5a28,28,0,0,1-2.8,4.34l1.62-.2c-.14-.34-.28-.72-.4-1l1.08-.3a20.8,20.8,0,0,1,1,2.92l-1.16.4-.22-.86-1.8.28a13.32,13.32,0,0,1,1.84,1.36l-.52.5H638v1.46h-4.64a15.69,15.69,0,0,0,.72,2.3,9.31,9.31,0,0,0,1.54-2.24ZM629.73,54c0-.22-.08-.48-.14-.76-2.66.36-3.12.48-3.4.64a9.68,9.68,0,0,0-.46-1.34c.32-.06.66-.4,1-.9A17.07,17.07,0,0,0,627.87,50a6,6,0,0,0-1.88.4c-.08-.3-.3-1-.44-1.32a1.39,1.39,0,0,0,.74-.72A14.26,14.26,0,0,0,627.81,45l1.38.4a22.7,22.7,0,0,1-1.86,3.48l1.24-.12c.24-.42.46-.86.66-1.3l1.34.5a30.71,30.71,0,0,1-2.9,4.32l1.6-.2c-.12-.38-.26-.76-.38-1.1l1.12-.3a18.1,18.1,0,0,1,1,2.9Z"/><path class="cls-2" d="M655.25,45.29c-.1.12-.18.26-.3.38a19.22,19.22,0,0,0,8.36,3.9A7.45,7.45,0,0,0,662.13,51c-.48-.14-1-.3-1.5-.48v5.18H647.11v-5c-.5.18-1,.34-1.48.48a7.07,7.07,0,0,0-1-1.42c3.62-.92,7.16-2.66,9-5Zm5.3,5.2a19.75,19.75,0,0,1-3.2-1.42v.58h-6.92v-.48a21,21,0,0,1-2.9,1.32Zm-12.3,6h11.4v6.58h-1.9v-.54h-7.66v.62h-1.84ZM651,51.83a8.21,8.21,0,0,1,1,2.2l-1.32.44H653V51.71h-4.34v2.76h1.92a8.67,8.67,0,0,0-.94-2.24Zm-.88,5.94v1.1h7.66v-1.1Zm7.66,3.5V60.15h-7.66v1.12Zm-1.58-12.9a13.53,13.53,0,0,1-2.2-1.68,15.34,15.34,0,0,1-2.18,1.68ZM659,51.71h-4.44v2.76h2.24l-1.24-.38a15,15,0,0,0,1-2.34l1.56.44c-.44.86-.88,1.7-1.24,2.28H659Z"/><path class="cls-2" d="M687.35,54.29c-2.78,5.94-9.44,8.16-16.72,8.94a6.23,6.23,0,0,0-.74-1.8,32.1,32.1,0,0,0,9-1.92,25.54,25.54,0,0,0-2.5-2.22q-1.32.69-2.88,1.32a5.42,5.42,0,0,0-1.16-1.44,17.49,17.49,0,0,0,8.32-5.42l2,.46a16.9,16.9,0,0,1-1.26,1.42h4.28l.32-.08Zm-2.8-7.14c-2.54,4.5-8.28,7.06-13.66,8.14a7.62,7.62,0,0,0-.88-1.64,27.93,27.93,0,0,0,6.32-1.84A16.44,16.44,0,0,0,674,49.73c-.66.36-1.36.74-2.1,1.08a5.75,5.75,0,0,0-1.26-1.34,17,17,0,0,0,6.86-4.7l2,.46a12.45,12.45,0,0,1-1.24,1.28H683l.32-.1Zm-8.24,1a9.77,9.77,0,0,1-.94.66A21.92,21.92,0,0,1,678,51a13.59,13.59,0,0,0,3.68-2.82Zm3.24,7.14c-.48.38-1,.74-1.56,1.1a24.47,24.47,0,0,1,2.68,2.28,11.26,11.26,0,0,0,3.9-3.38Z"/><path class="cls-2" d="M708.29,57.25a12.28,12.28,0,0,0,4.08,2.16,8.87,8.87,0,0,0-1.18,1.4A12.34,12.34,0,0,1,708.11,59c-.32,2.24-.6,3.22-1.1,3.66a2,2,0,0,1-1.34.46,17.72,17.72,0,0,1-2.28,0,3,3,0,0,0-.44-1.38c.84.08,1.68.1,2,.1a1,1,0,0,0,.66-.18,3.94,3.94,0,0,0,.66-2h-3.56c-.64,2-2.12,3.08-5.68,3.7a5.15,5.15,0,0,0-.88-1.4c3-.38,4.2-1,4.74-2.3h-2.46v-.76a12.14,12.14,0,0,1-3.6,2,7,7,0,0,0-1.14-1.4,11.19,11.19,0,0,0,4.32-2.2h-3.82V55.81h3.14v-5h4.3l.24-.84h-5.26V48.69h12.94V50h-5.76l-.36.84H709v5h3v1.44Zm-12-7.5h-1.68V46.33h7.58c-.18-.42-.38-.84-.56-1.22l1.92-.48c.26.5.6,1.18.82,1.7h7.22v3.42h-1.76V47.81H696.25Zm2.82,2.08v.74h8.08v-.74Zm8.08,1.58h-8.08v.74h8.08Zm-8.08,2.4h8.08V55h-8.08Zm8.14,2.38a9.43,9.43,0,0,1-.86-.94h-6.42a7.3,7.3,0,0,1-.84.94Z"/><path class="cls-2" d="M731.11,54a13.33,13.33,0,0,1,4-9.56l1.52.72a12.46,12.46,0,0,0,0,17.68l-1.52.72A13.32,13.32,0,0,1,731.11,54Z"/><path class="cls-2" d="M759.39,51.69a44,44,0,0,1-4,4,13.43,13.43,0,0,0,5.24,4.16,8.28,8.28,0,0,0-1.34,1.66,16.52,16.52,0,0,1-7-7.56v6.84c0,1.2-.28,1.76-1,2.06a10.57,10.57,0,0,1-3.7.38,9.42,9.42,0,0,0-.66-2c1.28,0,2.56,0,3,0s.5-.12.5-.5V56.95c-2.44,1.56-5,3.1-7,4.26l-1.2-1.68c2-1,5.22-2.82,8.18-4.52V49.79h-7.66V48h7.66V44.85h1.9V48H757A23,23,0,0,0,753.87,46l1.1-1.18A25.39,25.39,0,0,1,758.63,47l-.84,1h2.32v1.8h-7.84V50a20.22,20.22,0,0,0,2.14,4.32,26.24,26.24,0,0,0,3.34-3.76Zm-12.58,3.86a18.34,18.34,0,0,0-3.22-3.78l1.4-1a18,18,0,0,1,3.34,3.68Z"/><path class="cls-2" d="M772.93,45.41a30.39,30.39,0,0,1-2,4.16V63.15h-1.82V52.43a21.77,21.77,0,0,1-1.66,2,13.5,13.5,0,0,0-1-1.9,22,22,0,0,0,4.74-7.7Zm4.44,13.1a17.59,17.59,0,0,1-3.88,4.6A12.4,12.4,0,0,0,772,61.93a12.94,12.94,0,0,0,3.6-4Zm7.78-3.34V57H772.27V55.17h2.88v-4.5h-2.4V48.89h2.4V45H777v3.88h3.44V45h1.82v3.92H785v1.78h-2.72v4.5Zm-8.18,0h3.44v-4.5H777ZM781.53,58A24.4,24.4,0,0,1,785,62.17l-1.56,1A22.83,22.83,0,0,0,780,58.81Z"/><path class="cls-2" d="M797.43,45.41a31.85,31.85,0,0,1-2,4.3V63.15h-1.76V52.55c-.5.68-1,1.3-1.52,1.88a14,14,0,0,0-1-1.86,22.64,22.64,0,0,0,4.56-7.72Zm12.26,7.14v1.68H796.81V52.55h7.56a28.72,28.72,0,0,0,1.44-3.86l1.76.46c-.44,1.14-1,2.42-1.46,3.4Zm-.64-3.9H797.59V47h4.88a14.67,14.67,0,0,0-.56-2.1l1.74-.3a17.69,17.69,0,0,1,.7,2.4h4.7Zm-10.6,7.1H808v7.32h-1.82v-.7h-6v.78h-1.76ZM800,52.53a13.36,13.36,0,0,0-1.08-3.28l1.56-.48A13.65,13.65,0,0,1,801.67,52Zm.2,4.88v3.32h6V57.41Z"/><path class="cls-2" d="M824.59,62.83a21.26,21.26,0,0,0-2.5-1.34,19.68,19.68,0,0,1-5.6,1.6,4.18,4.18,0,0,0-.72-1.2,24,24,0,0,0,4.58-1.14c-1-.4-2-.74-2.92-1a13.44,13.44,0,0,0,1-1.24l-2.1.12-.14-1.32c.88,0,2-.08,3.12-.12a15.28,15.28,0,0,0,.82-1.44H817V52.35h3.66v-.7h-3.12V49.51h-1.42V48.13h1.42v-2h3.12V44.81h1.44v1.32h3.3v2h1.38v1.38h-1.38v2.14h-3.3v.7h3.76v3.38h-4.08c-.24.46-.48.9-.74,1.36l2.7-.14v-.84h1.48v.76l.84,0L826,58l-.94.06a4.18,4.18,0,0,1-1.6,2.48c.88.42,1.68.84,2.3,1.18Zm-6.06-8.28h2.12v-1h-2.12Zm.54-7.2v.88h1.58v-.88Zm1.58,3.06v-1h-1.58v1Zm-.48,8c-.16.26-.32.48-.5.72.74.24,1.54.54,2.28.84a3.64,3.64,0,0,0,1.56-1.74Zm1.92-11v.88h1.68v-.88Zm1.68,3.06v-1h-1.68v1Zm-1.68,3.14v1h2.14v-1Zm10.82-3.36a26.77,26.77,0,0,1-1.74,7.58,9.15,9.15,0,0,0,3.28,3.88,4.86,4.86,0,0,0-1.08,1.3,10.18,10.18,0,0,1-3-3.5,11.5,11.5,0,0,1-3.58,3.84,6,6,0,0,0-1-1.38,9.75,9.75,0,0,0,3.72-4.22A25.65,25.65,0,0,1,828.17,53a15,15,0,0,1-.94,1.88A8.47,8.47,0,0,0,826,53.69c1.34-2.1,2.06-5.4,2.46-8.76l1.58.2c-.16,1.16-.34,2.32-.58,3.42h4.8v1.64Zm-3.8,0a30.44,30.44,0,0,0,1.2,5.42,28.41,28.41,0,0,0,1-5.42Z"/><path class="cls-2" d="M845.43,54a13.32,13.32,0,0,1-4,9.56l-1.52-.72a12.46,12.46,0,0,0,0-17.68l1.52-.72A13.33,13.33,0,0,1,845.43,54Z"/><path class="cls-2" d="M991.53,56.25a13.07,13.07,0,0,1-.24,1.34H998s0,.48,0,.7c-.26,2.64-.52,3.8-1,4.32a2.1,2.1,0,0,1-1.42.52,21.28,21.28,0,0,1-2.56,0,4,4,0,0,0-.5-1.56,22.44,22.44,0,0,0,2.26.1,1,1,0,0,0,.7-.16,5,5,0,0,0,.64-2.46h-5.22c-.78,1.86-2.28,3.24-5.22,4.14a4.41,4.41,0,0,0-1-1.44c3.76-1,4.7-2.88,5.08-5.5h-3.92a13.55,13.55,0,0,1-2.56,7.06A6.5,6.5,0,0,0,981.83,62c2.1-2.64,2.28-6.48,2.28-9.38v-6.3h0a89.35,89.35,0,0,0,12.72-1.48l1.42,1.4A84.3,84.3,0,0,1,986,47.69v.88h12.72v4.54H986c0,.52,0,1.08-.06,1.66h5.76a10.4,10.4,0,0,0-.66-1.24l1.8-.42a8.9,8.9,0,0,1,.92,1.66H1000v1.48ZM986,50v1.62h10.9V50Z"/><path class="cls-2" d="M1011.93,45.37a36.83,36.83,0,0,1-1.56,3.94V63.15h-1.76V52.55a17.7,17.7,0,0,1-1.6,2.2,14.5,14.5,0,0,0-.92-2,23.27,23.27,0,0,0,4.12-7.9ZM1016,60.23l1.28.9a15,15,0,0,1-5,2.06,7.44,7.44,0,0,0-1-1.28,15.11,15.11,0,0,0,4.64-1.68h-3.18V53h11.1v7.26Zm-.24-13.08H1012v-1.4h12.7v1.4h-4.1v1h3.48v3.94h-11.66V48.19h3.36ZM1014,51h1.74V49.31H1014Zm.48,4.06H1022v-1h-7.54Zm0,2H1022v-1h-7.54Zm0,2.06H1022v-1h-7.54Zm4.58-12h-1.84v1h1.84ZM1017.23,51h1.84V49.31h-1.84Zm3,9.26a38,38,0,0,1,4.8,1.9l-1.6,1.06a27.7,27.7,0,0,0-4.38-1.92Zm.3-10.94V51h1.8V49.31Z"/><path class="cls-2" d="M1043.71,54a13.33,13.33,0,0,1,4-9.56l1.52.72a12.46,12.46,0,0,0,0,17.68l-1.52.72A13.32,13.32,0,0,1,1043.71,54Z"/><path class="cls-2" d="M1059.49,48.41a24.46,24.46,0,0,1-3.08,4,9.93,9.93,0,0,0-1.66-1.1,18.34,18.34,0,0,0,4.58-6.58l1.86.54c-.22.48-.46,1-.74,1.48h12v1.68Zm10.74,7.78c-.06,1.08-.12,2-.2,2.74h2.32v1.62h-2.52a4.07,4.07,0,0,1-.56,1.78,1.89,1.89,0,0,1-1.5.82,18.72,18.72,0,0,1-2.6,0,3.7,3.7,0,0,0-.44-1.48c1,.08,1.8.1,2.2.1a.79.79,0,0,0,.72-.3,2.39,2.39,0,0,0,.34-.92h-11.1c.26-1.2.5-2.74.74-4.36h-2.78V54.51h3c.2-1.5.38-3,.5-4.3h12s0,.6,0,.84c0,1.3-.08,2.44-.12,3.46h2.82v1.68Zm-10.72-.06c-.14,1-.28,1.94-.4,2.8h5.38a16.36,16.36,0,0,0-3.08-2l.82-.8Zm.58-4.3c-.12.88-.24,1.82-.36,2.74h5.12a16.18,16.18,0,0,0-3-1.9l.88-.84Zm8.12,7.1c.08-.74.14-1.66.2-2.8h-5.54a14.26,14.26,0,0,1,3.14,2.08l-.7.72Zm.26-4.36c0-.82.06-1.74.08-2.74h-5.34a12.38,12.38,0,0,1,3.08,2l-.76.78Z"/><path class="cls-2" d="M1085.37,56.25l.3,1.66c-2,.86-4.06,1.68-5.72,2.32l-.68-1.88,2.42-.8V51.27h-2.06V49.51h2.06V45h1.7v4.46h1.82v1.76h-1.82v5.68Zm12.38.08h-5.26v6.82h-1.86V56.33h-5.24V54.57h5.24v-7H1086V45.77h11.28v1.78h-4.74v7h5.26Zm-9.72-7.8a22.55,22.55,0,0,1,1.14,4.78l-1.56.4a25.58,25.58,0,0,0-1.06-4.8Zm5.74,4.78a33,33,0,0,0,1.24-4.9l1.76.38c-.5,1.7-1.08,3.66-1.58,4.88Z"/><path class="cls-2" d="M1121.91,44.63l.62.62-18.1,18.1-.62-.62Z"/><path class="cls-2" d="M1133.33,47.49H1129V45.93h4.34V44.81h1.8v1.12h2.26v1.56h-2.26v1.06h-1.8Zm12.42,13.9c0,.8-.12,1.24-.68,1.48a6.17,6.17,0,0,1-2.56.28,6.47,6.47,0,0,0-.5-1.44l-.36.12a6.69,6.69,0,0,0-.34-1.1c-3,.2-6.16.36-8.36.5l-.14-1.6,4-.16v-1.9h-5.1v5.58h-1.8V57.57h-.76V56h.76v-.64h1.8V56h5.1V55h-5.62V48.85h13.16V55h-5.78v1h7.14ZM1133,51.33h3.84v-1.2H1133Zm3.84,2.4v-1.2H1133v1.2Zm9.66-7.8v1.56h-4.42v1.06h-1.8V47.49h-2.2V45.93h2.2V44.81h1.8v1.12Zm-4,4.2h-3.92v1.2h3.92Zm0,2.4h-3.92v1.2h3.92Zm-.32,9.12c.7,0,1.26,0,1.44,0s.3-.06.3-.28v-3.8h-5.34v1.8l2-.1c-.22-.4-.46-.78-.7-1.14l1.38-.36a11.68,11.68,0,0,1,1.8,3.6Z"/><path class="cls-2" d="M1168.85,61.07c.74,0,.86-.52.94-3.48a5.94,5.94,0,0,0,1.74.8c-.2,3.46-.68,4.44-2.54,4.44h-2.66c-2,0-2.5-.62-2.5-2.58V53.57h-3.42c-.36,4.22-1.26,7.68-6,9.56a4.89,4.89,0,0,0-1.16-1.5c4.18-1.56,4.86-4.54,5.14-8.06h-4.82v-1.8h17.58v1.8h-5.44v6.66c0,.72.12.84.84.84Zm.6-13h-14.08v-1.8h14.08Z"/><path class="cls-2" d="M1182.63,54a13.33,13.33,0,0,1-4,9.56l-1.52-.72a12.46,12.46,0,0,0,0-17.68l1.52-.72A13.33,13.33,0,0,1,1182.63,54Z"/><path class="cls-2" d="M1460.59,48.41a24.35,24.35,0,0,1-3.08,4,9.85,9.85,0,0,0-1.66-1.1,18.34,18.34,0,0,0,4.58-6.58l1.86.54c-.22.48-.46,1-.74,1.48h12v1.68Zm10.74,7.78c-.06,1.08-.12,2-.2,2.74h2.32v1.62h-2.52a4.07,4.07,0,0,1-.56,1.78,1.89,1.89,0,0,1-1.5.82,18.74,18.74,0,0,1-2.6,0,3.7,3.7,0,0,0-.44-1.48c1,.08,1.8.1,2.2.1a.79.79,0,0,0,.72-.3,2.37,2.37,0,0,0,.34-.92H1458c.26-1.2.5-2.74.74-4.36h-2.78V54.51h3c.2-1.5.38-3,.5-4.3h12s0,.6,0,.84c0,1.3-.08,2.44-.12,3.46h2.82v1.68Zm-10.72-.06c-.14,1-.28,1.94-.4,2.8h5.38a16.35,16.35,0,0,0-3.08-2l.82-.8Zm.58-4.3c-.12.88-.24,1.82-.36,2.74H1466a16.17,16.17,0,0,0-3-1.9l.88-.84Zm8.12,7.1c.08-.74.14-1.66.2-2.8H1464a14.21,14.21,0,0,1,3.14,2.08l-.7.72Zm.26-4.36c0-.82.06-1.74.08-2.74h-5.34a12.4,12.4,0,0,1,3.08,2l-.76.78Z"/><path class="cls-2" d="M1490.63,44.87c0,.76,0,1.8-.14,3,.28,2.5,1.5,10.48,8.48,13.58a5.51,5.51,0,0,0-1.36,1.58c-4.7-2.22-6.88-6.62-7.94-10.2a15.94,15.94,0,0,1-7.64,10.3,5.76,5.76,0,0,0-1.54-1.48c8.18-4.24,8-13.56,8-16.76Z"/><path class="cls-2" d="M1523.17,48h-2.38V60.69c0,1.2-.3,1.82-1.14,2.1a13.57,13.57,0,0,1-4.26.36,8.28,8.28,0,0,0-.78-2c1.52.08,3.18.06,3.66.06s.58-.14.58-.56V48h-13.44V46.19h17.76Zm-14,10.14v1.56h-1.8V50.67h8.24v7.52Zm0-5.76v4h4.6v-4Z"/><path class="cls-2" d="M1542.61,45.15a12.69,12.69,0,0,0,5.68,7.3,8.11,8.11,0,0,0-1.34,1.7,12.51,12.51,0,0,1-1.82-1.44c0,.12,0,.26,0,.34-.26,6.08-.52,8.4-1.22,9.18a2.19,2.19,0,0,1-1.64.82,22.4,22.4,0,0,1-3.1,0,4.5,4.5,0,0,0-.6-1.88c1.2.12,2.34.14,2.82.14a1.05,1.05,0,0,0,.84-.28c.46-.48.72-2.36.92-7h-4.6c-.52,3.88-1.82,7.4-6.94,9.28a5.68,5.68,0,0,0-1.2-1.66c4.62-1.54,5.68-4.44,6.12-7.62h-3.76V52.63a14.84,14.84,0,0,1-1.64,1.56,11.87,11.87,0,0,0-1.58-1.38,14.24,14.24,0,0,0,5.06-7.32l1.94.46a19.46,19.46,0,0,1-3.42,6.26h11.52a16.73,16.73,0,0,1-3.4-5.34h-3.36V45.15Z"/><path class="cls-2" d="M1560.45,49.87a22.72,22.72,0,0,1-1.68,2.48v10.8H1557V54.41a20.55,20.55,0,0,1-2.1,1.94,13.76,13.76,0,0,0-.94-1.88,18.38,18.38,0,0,0,4.88-5.26Zm-.28-4.3a20.11,20.11,0,0,1-5,4.82,10.39,10.39,0,0,0-1-1.54,14.7,14.7,0,0,0,4.16-4Zm12.28,12.28h-2.86v3.38c0,.92-.18,1.38-.84,1.64a8.59,8.59,0,0,1-3,.3,7.69,7.69,0,0,0-.6-1.68c1,0,2,0,2.24,0s.38-.08.38-.32V57.85H1560v-1.6h7.7V54.79h-7.22V53.25h11.56v1.54h-2.48v1.46h2.86Zm-9.56.12a17.47,17.47,0,0,1,2.46,2.7l-1.4,1a17.6,17.6,0,0,0-2.38-2.82Zm8.38-5.86h-9.64v-6.7h9.64Zm-1.88-5.34h-6v1.34h6Zm0,2.62h-6v1.34h6Z"/><path class="cls-2" d="M1596.67,47.91s0,.64,0,.88c-.28,9-.52,12.12-1.32,13.12a2.23,2.23,0,0,1-1.74.94,21.69,21.69,0,0,1-3,0,4.35,4.35,0,0,0-.6-1.8c1.28.1,2.44.12,2.94.12a.9.9,0,0,0,.84-.34c.64-.66.9-3.68,1.16-11.22h-4.72a20,20,0,0,1-1.82,3.36,9.77,9.77,0,0,0-1.46-1v9.18h-5.42v1.52h-1.7V48H1582a23.43,23.43,0,0,0,.7-3.24l2,.34c-.34,1-.72,2.06-1,2.9h3.2v3.78a19.13,19.13,0,0,0,3-7l1.8.42c-.24.92-.5,1.84-.82,2.72Zm-15.18,1.72v3.8h3.72v-3.8Zm3.72,9.84V55h-3.72v4.42Zm6.66-1.56a32.48,32.48,0,0,0-2.92-4.62l1.46-.82a36,36,0,0,1,3,4.46Z"/><path class="cls-2" d="M1610.93,54.29h10.42v8.82h-1.78v-.84h-6.92v.88h-1.72v-7.4l-.88,1.22c-.4-.52-1.16-1.4-1.84-2.1v8.28h-1.82V56A17.32,17.32,0,0,1,1604,58a6.53,6.53,0,0,0-.9-1.74,15.64,15.64,0,0,0,5.44-6.12h-4.7V48.51h5.64l.32-.06,1,.66a20.41,20.41,0,0,1-2.18,4.14c.58.48,1.72,1.5,2.28,2Zm-4.16-5.82a23.17,23.17,0,0,0-1.54-2.9l1.46-.64a24.46,24.46,0,0,1,1.58,2.8Zm14.68-2.74v1.58h-10.62V45.73Zm-1,2.68v4.78H1612V48.41Zm-7.82,7.4v1.74h2.56V55.81Zm0,5h2.56V59h-2.56Zm6.1-10.9h-5.14v1.86h5.14Zm.82,5.94h-2.68v1.74h2.68Zm0,5V59h-2.68v1.8Z"/><path class="cls-2" d="M1634.23,50.73h3.88v1.72h-3.88v.62c1,.84,3.12,2.9,3.68,3.44l-1.06,1.58c-.56-.7-1.66-1.94-2.62-2.94v8h-1.86V55.23a20.23,20.23,0,0,1-3.44,5.32,11.37,11.37,0,0,0-1-1.82,19.15,19.15,0,0,0,4.06-6.28h-3.64V50.73h4v-3c-1.22.24-2.44.42-3.58.56a6.84,6.84,0,0,0-.58-1.44,37.08,37.08,0,0,0,8.14-2l1.34,1.42a21.57,21.57,0,0,1-3.46,1Zm7.1,7.46h-1.84v-11h1.84Zm4.22-13.12V60.73c0,1.18-.28,1.72-1,2a11.14,11.14,0,0,1-3.72.36,7.3,7.3,0,0,0-.66-1.92c1.34.06,2.6.06,3,.06s.52-.14.52-.52V45.07Z"/><path class="cls-2" d="M1658.35,56.41a26.91,26.91,0,0,0,.9-2.72h-1.7v7.38c0,.92-.16,1.44-.82,1.74a7.82,7.82,0,0,1-2.9.3,7.48,7.48,0,0,0-.56-1.76c.94,0,1.86,0,2.14,0s.34-.08.34-.3V53.69h-3.12V52h4.74a21.59,21.59,0,0,0-3.84-2.52l1-1.22c.62.3,1.28.68,1.92,1.06a15,15,0,0,0,1.68-2h-5V45.71h6.22l.34-.1,1.14.8a21.45,21.45,0,0,1-3,3.82,11.52,11.52,0,0,1,1.4,1.14l-.48.66h1.2l.26-.06,1.16.28c-.5,1.58-1.06,3.38-1.56,4.5Zm6.74,4.1a15.08,15.08,0,0,1-4.54,2.72,11.8,11.8,0,0,0-1.24-1.24,12.86,12.86,0,0,0,4.18-2.46Zm-.58-11.6c.1-.54.22-1.12.3-1.66h-4V45.67h10.08v1.58h-4c-.18.58-.36,1.14-.52,1.66h3.9v10.4h-8.7V48.91Zm4,1.38h-5.2v1.66h5.2Zm0,3h-5.2v1.68h5.2Zm0,3h-5.2v1.68h5.2Zm-.6,3.4a23.84,23.84,0,0,1,3.46,2.52l-1.46,1.06a23.84,23.84,0,0,0-3.4-2.64Z"/><path class="cls-2" d="M1695.49,47.53h-3.08a7.56,7.56,0,0,1,1.1,1.34l-1.14.5h1v7.5H1691v1.5h4.4v1.5H1691v3.28h-1.92V59.87h-4.94c-.5,1.26-1.78,2.46-4.7,3.38a7.35,7.35,0,0,0-1.16-1.38c2.14-.52,3.2-1.26,3.76-2h-4.4v-1.5h4.9v-1.5H1680v-7.5h2.88a7.68,7.68,0,0,0-.76-1.36l1.4-.46h-2.76a17.29,17.29,0,0,1-2.32,2.76,16.23,16.23,0,0,0-1.2-1.46,11.7,11.7,0,0,0,3.12-4.16l1.7.54c-.14.32-.3.6-.46.92h5.08v1.4h-3a8.56,8.56,0,0,1,.84,1.36l-1.32.46h4.18a11.43,11.43,0,0,0-1.44-.78,8.86,8.86,0,0,0,2.8-3.92l1.78.44c-.14.36-.3.7-.46,1h5.44Zm-4.08,3h-9.56v.94h9.56Zm0,2h-9.56v1h9.56Zm0,2.1h-9.56v1h9.56Zm-2.34,2.18h-4.66v1.5h4.66Zm2.84-7.5a7.39,7.39,0,0,0-1.08-1.38l1-.46h-2.64a10.93,10.93,0,0,1-1.52,1.84Z"/><path class="cls-12" d="M371,94.22A20.45,20.45,0,0,0,367.85,92l.88-1.38a19.47,19.47,0,0,1,3.22,2.06Zm1.58,2.52c-.88,2.08-2,4.42-3,6.28l-1.4-1.24a62.54,62.54,0,0,0,3.14-6.26Zm-.88-7.84a22.52,22.52,0,0,0-3.06-2.22l.92-1.36a26,26,0,0,1,3.1,2.08Zm9.06,12.24c-2.82.64-5.82,1.24-8,1.7l-.48-1.66c1.22-.2,2.82-.48,4.56-.82A30.64,30.64,0,0,0,378,96.64l1.7.46c-.36,1-.8,2-1.18,2.94l2.1-.4Zm-5.14-13h-2.86v-1.5h2.86V85.12h1.76v1.56h3v1.5h-3V89.6h2.48v1.46h-6.76V89.6h2.52Zm4.12,8.3h-6.44V92.12h6.44Zm-5.3,3.82a10.56,10.56,0,0,0-.94-3.08l1.48-.44a9.81,9.81,0,0,1,1,3Zm3.64-6.88h-3.18v1.76h3.18Zm8.08,3.74a13.17,13.17,0,0,1-5.48,6.18,6.33,6.33,0,0,0-1.22-1.32,11.13,11.13,0,0,0,5-5.38ZM385.65,86a16.41,16.41,0,0,1-4.3,5.14,5.35,5.35,0,0,0-1.28-1.22A13.39,13.39,0,0,0,384,85.38Zm.24,5.52a14.38,14.38,0,0,1-4.38,5.12,5.88,5.88,0,0,0-1.28-1.26,11.63,11.63,0,0,0,4-4.44Z"/><path class="cls-12" d="M395.71,93.8a14,14,0,0,0-3.2-1.94l1-1.34a12.26,12.26,0,0,1,3.26,1.82Zm-2.86,8.4a62.5,62.5,0,0,0,2.68-6.36l1.5,1c-.72,2.1-1.66,4.48-2.5,6.34Zm3.56-13.56a12.29,12.29,0,0,0-3.1-2.08l1-1.32a14.25,14.25,0,0,1,3.16,1.94Zm2.72,12v1.5h-1.6v-8.1h2.16V90.72h-2.8V89h2.8V85.6h1.68V89h2.48v1.68h-2.48v3.36h2v6.6Zm0-5v3.38h2.64V95.7Zm11.18,5.6c0,.82-.18,1.3-.72,1.58a6,6,0,0,1-2.64.3,6,6,0,0,0-.56-1.54c.84,0,1.66,0,1.9,0s.36-.1.36-.38v-5.2l-1.86,1.74-.68-1.46c-.22,2.52-.82,5.22-2.48,7.08a7.37,7.37,0,0,0-1.38-1c2.14-2.4,2.34-5.92,2.34-8.74v-8h5.72Zm-4.1-7.56c0,.8,0,1.66-.1,2.56.68-.42,1.6-1.1,2.54-1.82V92.76l-.68.56a16.48,16.48,0,0,0-1.76-2.16Zm0-6.34v3.28l.7-.5a18.81,18.81,0,0,1,1.74,1.88V87.4Z"/><path class="cls-12" d="M420.09,98a20.33,20.33,0,0,1-1.78,4.24,9.43,9.43,0,0,0-1.32-.76,15.61,15.61,0,0,0,1.62-3.84Zm2.4-1.14v6.36h-1.56V96.86h-3.7V95.38h.86V85.7h7.06v9.68H426v1.48Zm-2.88-9.78v1.24h4V87.08Zm4,2.44h-4V90.7h4Zm-4,3.46h4v-1.1h-4Zm0,2.4h4v-1.2h-4Zm4.74,2.14a16.66,16.66,0,0,1,1.42,3l-1.3.6a17.17,17.17,0,0,0-1.36-3.06Zm4.66.08a19.34,19.34,0,0,1-2.32,4.74,10.52,10.52,0,0,0-1.28-.8,14.28,14.28,0,0,0,2-4.34Zm4.26-11.42a28.27,28.27,0,0,1-6.88,2.76,6.3,6.3,0,0,0-.58-1.32A24,24,0,0,0,432,84.8Zm-1.94,10.16v5.6c0,.7-.12,1-.6,1.18a5.8,5.8,0,0,1-2.08.22,5.71,5.71,0,0,0-.44-1.2h1.3c.2,0,.24-.06.24-.24V96.44a15.37,15.37,0,0,0-3.16.38,12.56,12.56,0,0,0-.48-1.48A5.08,5.08,0,0,0,428,94.28,32.87,32.87,0,0,0,430.59,92a16.72,16.72,0,0,0-3.88.46,9.48,9.48,0,0,0-.44-1.42,3.26,3.26,0,0,0,1.18-.56,16.52,16.52,0,0,0,3.22-2.76l1.36.7a22.14,22.14,0,0,1-2.74,2.26l2.76-.14c.48-.5.94-1,1.38-1.54l1.3.9a41.93,41.93,0,0,1-5.5,5.08l3.88-.2c-.32-.62-.68-1.24-1-1.76l1.26-.6a25.69,25.69,0,0,1,2.18,3.94l-1.36.7c-.1-.28-.22-.58-.38-.92Zm2,.7c.74,1.38,1.68,3.2,2.1,4.24l-1.46.7a38.47,38.47,0,0,0-2-4.34Z"/><path class="cls-12" d="M373.13,123a25.15,25.15,0,0,1-1.62,5.16c.36.2.8.54,1.44.94,1.4.84,3.22,1,5.56,1a73.88,73.88,0,0,0,8-.46,7.65,7.65,0,0,0-.54,1.92c-1.56.1-5.22.22-7.56.22-2.62,0-4.34-.22-5.78-1.06-.82-.46-1.54-1.16-2-1.16s-1.14,1.3-1.7,2.52l-1.24-1.72a9.09,9.09,0,0,1,2-2.08,18.81,18.81,0,0,0,1.32-3.88h-2.56c.48-1.18,1.08-2.8,1.58-4.36h-2v-1.68h4.32c-.44,1.42-1,3.06-1.5,4.44H372l.28-.08Zm-3-5.52c-.24-.88-.72-2.28-1-3.34l1.62-.48c.38,1,.86,2.36,1.1,3.22Zm8.32,9.84h-5.2v-1.52h5.2v-1.22h-4.34V118h4.34v-1.28h-5.2v-1.52h5.2v-1.62h1.8v1.62h5.44v1.52h-5.44V118h4.48v6.56h-4.48v1.22H386v1.52h-5.7v2.14h-1.8Zm-2.62-6.66h2.62v-1.3h-2.62Zm2.62,2.58v-1.32h-2.62v1.32Zm1.8-3.88v1.3H383v-1.3Zm2.7,2.56h-2.7v1.32H383Z"/><path class="cls-12" d="M396.25,122.75a32.36,32.36,0,0,0-3.66-2.16l1-1.36a25.48,25.48,0,0,1,3.7,2Zm2.12,2.58c-1,2.06-2.38,4.46-3.54,6.34l-1.58-1.26a51.72,51.72,0,0,0,3.76-6.32Zm-1.14-7.82a29,29,0,0,0-3.52-2.36l1.08-1.3a31.84,31.84,0,0,1,3.58,2.18Zm13.64,11.3v1.86H398.13v-1.86h5.2V117.19h-4.2v-1.86h10.72v1.86h-4.5v11.62Z"/><path class="cls-12" d="M420.09,126.53a20.33,20.33,0,0,1-1.78,4.24A9.43,9.43,0,0,0,417,130a15.61,15.61,0,0,0,1.62-3.84Zm2.4-1.14v6.36h-1.56v-6.36h-3.7v-1.48h.86v-9.68h7.06v9.68H426v1.48Zm-2.88-9.78v1.24h4v-1.24Zm4,2.44h-4v1.18h4Zm-4,3.46h4v-1.1h-4Zm0,2.4h4v-1.2h-4Zm4.74,2.14a16.66,16.66,0,0,1,1.42,3l-1.3.6a17.17,17.17,0,0,0-1.36-3.06Zm4.66.08a19.34,19.34,0,0,1-2.32,4.74,10.52,10.52,0,0,0-1.28-.8,14.28,14.28,0,0,0,2-4.34Zm4.26-11.42a28.27,28.27,0,0,1-6.88,2.76,6.3,6.3,0,0,0-.58-1.32,24,24,0,0,0,6.22-2.82Zm-1.94,10.16v5.6c0,.7-.12,1-.6,1.18a5.8,5.8,0,0,1-2.08.22,5.71,5.71,0,0,0-.44-1.2h1.3c.2,0,.24-.06.24-.24V125a15.37,15.37,0,0,0-3.16.38,12.56,12.56,0,0,0-.48-1.48,5.08,5.08,0,0,0,1.86-1.06,32.87,32.87,0,0,0,2.62-2.26,16.72,16.72,0,0,0-3.88.46,9.48,9.48,0,0,0-.44-1.42,3.26,3.26,0,0,0,1.18-.56,16.52,16.52,0,0,0,3.22-2.76l1.36.7a22.14,22.14,0,0,1-2.74,2.26l2.76-.14c.48-.5.94-1,1.38-1.54l1.3.9a41.93,41.93,0,0,1-5.5,5.08l3.88-.2c-.32-.62-.68-1.24-1-1.76l1.26-.6a25.69,25.69,0,0,1,2.18,3.94l-1.36.7c-.1-.28-.22-.58-.38-.92Zm2,.7c.74,1.38,1.68,3.2,2.1,4.24l-1.46.7a38.47,38.47,0,0,0-2-4.34Z"/><path class="cls-12" d="M381.65,152.09c-.24.38-.44.74-.66,1.06h4.74v1.42H373.35c0,.4-.1.8-.16,1.16l3.78,0s0,.38,0,.6c-.22,2.08-.42,3-.82,3.44a1.6,1.6,0,0,1-1.16.46,17.31,17.31,0,0,1-2.06,0,3.79,3.79,0,0,0-.4-1.38,11.17,11.17,0,0,0,1.66.08c.28,0,.44,0,.56-.14a3.47,3.47,0,0,0,.46-1.72h-2.32c-.58,1.56-1.7,2.66-4,3.38a4.13,4.13,0,0,0-.88-1.24,4.8,4.8,0,0,0,3.18-2.14h-2.4v-1.36h2.84a10,10,0,0,0,.18-1.16h-3.28v-1.42h4.94a4.92,4.92,0,0,0-.68-1.12l1.12-.18h-3.34V148h13.34v3.82h-3.46Zm4.2-8.76v1.4H378v1h6.5v1.34H369.83v-1.34h6.28v-1h-7.66v-1.4h7.66v-1.26H378v1.26Zm-13.66,7.26H382v-1.32h-9.82Zm2.38,1.26a4.43,4.43,0,0,1,.74,1.22l-.4.08h4.16c.2-.42.44-.92.6-1.3Zm3.4,3.54h7v5h-1.74v-.52h-3.56v.56H378Zm1.66,1.32v1.8h3.56v-1.8Z"/><path class="cls-12" d="M409.19,155.41a10.55,10.55,0,0,1-2.54,2.32,3,3,0,0,0,2.12,1c.52,0,.66-.42.76-1.7a4,4,0,0,0,1.4.72c-.28,2.16-.86,2.68-2.26,2.68a4.75,4.75,0,0,1-3.56-1.74,25.27,25.27,0,0,1-4.26,1.72,8.15,8.15,0,0,0-1-1.48,19.53,19.53,0,0,0,4.3-1.5,11.81,11.81,0,0,1-1.14-2.64h-4.3v1.08l3.3-.24v1.3c-1.1.1-2.22.2-3.3.28v1.5c0,.9-.2,1.3-.86,1.5a11,11,0,0,1-3.12.24,8,8,0,0,0-.54-1.46c1,.06,2.06.06,2.32,0s.4-.08.4-.36v-1.3l-4,.32-.16-1.44c1.14-.06,2.58-.14,4.16-.26v-1.2h-4.08v-1.42h4.08v-1.12c-1.16.12-2.32.2-3.4.24a4.47,4.47,0,0,0-.4-1.16,47,47,0,0,0,7.52-.92l1.1,1.12c-.88.22-1.92.38-3,.54v1.3h3.94a19.59,19.59,0,0,1-.36-2.76h1.8a14.84,14.84,0,0,0,.36,2.76h4a14.56,14.56,0,0,0-3.22-1.84l1-1.08a12.36,12.36,0,0,1,3.28,1.76l-1.06,1.16h2.1v1.42h-5.72a8.6,8.6,0,0,0,.82,1.78,7.71,7.71,0,0,0,1.88-1.68Zm1.36-5.1H392.89v-1.46h7.84v-1h-5.9v-1.34h5.9v-1h-7v-1.4h3.84a8.31,8.31,0,0,0-1-1.46l1.62-.54a7,7,0,0,1,1.32,2l-.1,0h4.44a18.06,18.06,0,0,0,1.06-2l2,.44c-.4.58-.78,1.14-1.14,1.6h3.82v1.4h-7.06v1h6v1.34h-6v1h7.92Z"/><path class="cls-12" d="M420.09,155.05a20.33,20.33,0,0,1-1.78,4.24,9.43,9.43,0,0,0-1.32-.76,15.61,15.61,0,0,0,1.62-3.84Zm2.4-1.14v6.36h-1.56v-6.36h-3.7v-1.48h.86v-9.68h7.06v9.68H426v1.48Zm-2.88-9.78v1.24h4v-1.24Zm4,2.44h-4v1.18h4Zm-4,3.46h4v-1.1h-4Zm0,2.4h4v-1.2h-4Zm4.74,2.14a16.66,16.66,0,0,1,1.42,3l-1.3.6a17.17,17.17,0,0,0-1.36-3.06Zm4.66.08a19.34,19.34,0,0,1-2.32,4.74,10.52,10.52,0,0,0-1.28-.8,14.28,14.28,0,0,0,2-4.34Zm4.26-11.42a28.27,28.27,0,0,1-6.88,2.76,6.3,6.3,0,0,0-.58-1.32,24,24,0,0,0,6.22-2.82Zm-1.94,10.16V159c0,.7-.12,1-.6,1.18a5.8,5.8,0,0,1-2.08.22,5.71,5.71,0,0,0-.44-1.2h1.3c.2,0,.24-.06.24-.24v-5.46a15.37,15.37,0,0,0-3.16.38,12.56,12.56,0,0,0-.48-1.48,5.08,5.08,0,0,0,1.86-1.06,32.87,32.87,0,0,0,2.62-2.26,16.72,16.72,0,0,0-3.88.46,9.48,9.48,0,0,0-.44-1.42,3.26,3.26,0,0,0,1.18-.56,16.52,16.52,0,0,0,3.22-2.76l1.36.7a22.14,22.14,0,0,1-2.74,2.26l2.76-.14c.48-.5.94-1,1.38-1.54l1.3.9a41.93,41.93,0,0,1-5.5,5.08l3.88-.2c-.32-.62-.68-1.24-1-1.76l1.26-.6a25.69,25.69,0,0,1,2.18,3.94l-1.36.7c-.1-.28-.22-.58-.38-.92Zm2,.7c.74,1.38,1.68,3.2,2.1,4.24l-1.46.7a38.47,38.47,0,0,0-2-4.34Z"/><path class="cls-13" d="M379.17,461.87H368v-1.46h3a6.07,6.07,0,0,0-.56-1.36l1.24-.32h-3.08v-1.44H373a7.9,7.9,0,0,0-.56-1.08l1.48-.54a8.21,8.21,0,0,1,.82,1.62h4.1v1.44h-2.74l1.26.26c-.28.5-.58,1-.84,1.42h2.68Zm-4.6,9.34v3h-1.76v-3h-4.38v-1.5h4.38v-1.22h-3.38v-5.7h8.66v5.7h-3.52v1.22h4.22v1.5Zm-3.44-6.14h5.18V464h-5.18Zm0,2.24h5.18v-1.14h-5.18Zm.78-8.58a8.72,8.72,0,0,1,.7,1.58l-.34.1h2.58a14.78,14.78,0,0,0,.72-1.68Zm14.5,8.94a17.3,17.3,0,0,1-6.92,6.26,9.87,9.87,0,0,0-1.3-1.48,14.35,14.35,0,0,0,6.46-5.46Zm-.38-5.46a20.93,20.93,0,0,1-5.72,4.92,6.89,6.89,0,0,0-1.32-1.32,17.32,17.32,0,0,0,5.32-4.32Zm-.46-5.34a18.3,18.3,0,0,1-5.08,4.7,9.77,9.77,0,0,0-1.32-1.24,14.93,14.93,0,0,0,4.66-4.14Z"/><path class="cls-13" d="M399.43,456.49a29.44,29.44,0,0,1-2,3.78v13.9h-1.76V462.83a20.82,20.82,0,0,1-2.38,2.66,9.63,9.63,0,0,0-1-1.88,21.63,21.63,0,0,0,5.42-7.68Zm8.18,15.44c1.08,0,1.26-.84,1.42-4.2a5.46,5.46,0,0,0,1.68.82c-.26,3.74-.72,5.06-3,5.06h-3.58c-2.2,0-2.82-.66-2.82-3.06V456.17h1.78v5.28h7v1.78h-7v7.36c0,1.12.2,1.34,1.2,1.34Z"/><path class="cls-13" d="M420.09,468.81a20.33,20.33,0,0,1-1.78,4.24,9.43,9.43,0,0,0-1.32-.76,15.61,15.61,0,0,0,1.62-3.84Zm2.4-1.14V474h-1.56v-6.36h-3.7v-1.48h.86v-9.68h7.06v9.68H426v1.48Zm-2.88-9.78v1.24h4v-1.24Zm4,2.44h-4v1.18h4Zm-4,3.46h4v-1.1h-4Zm0,2.4h4V465h-4Zm4.74,2.14a16.66,16.66,0,0,1,1.42,3l-1.3.6a17.17,17.17,0,0,0-1.36-3.06Zm4.66.08a19.34,19.34,0,0,1-2.32,4.74,10.52,10.52,0,0,0-1.28-.8,14.28,14.28,0,0,0,2-4.34ZM433.27,457a28.27,28.27,0,0,1-6.88,2.76,6.3,6.3,0,0,0-.58-1.32,24,24,0,0,0,6.22-2.82Zm-1.94,10.16v5.6c0,.7-.12,1-.6,1.18a5.8,5.8,0,0,1-2.08.22,5.71,5.71,0,0,0-.44-1.2h1.3c.2,0,.24-.06.24-.24v-5.46a15.37,15.37,0,0,0-3.16.38,12.56,12.56,0,0,0-.48-1.48,5.08,5.08,0,0,0,1.86-1.06,32.87,32.87,0,0,0,2.62-2.26,16.72,16.72,0,0,0-3.88.46,9.48,9.48,0,0,0-.44-1.42,3.26,3.26,0,0,0,1.18-.56,16.52,16.52,0,0,0,3.22-2.76l1.36.7a22.14,22.14,0,0,1-2.74,2.26l2.76-.14c.48-.5.94-1,1.38-1.54l1.3.9a41.93,41.93,0,0,1-5.5,5.08l3.88-.2c-.32-.62-.68-1.24-1-1.76l1.26-.6a25.69,25.69,0,0,1,2.18,3.94l-1.36.7c-.1-.28-.22-.58-.38-.92Zm2,.7c.74,1.38,1.68,3.2,2.1,4.24l-1.46.7a38.47,38.47,0,0,0-2-4.34Z"/><path class="cls-12" d="M373.45,181.36c-.26-.6-.76-1.54-1.26-2.42v10h-1.76v-8.2a19.24,19.24,0,0,1-1.78,4.38,14.58,14.58,0,0,0-.92-1.86,21.79,21.79,0,0,0,2.62-7.18H368v-1.72h2.42v-3.76h1.76v3.76H374v1.72h-1.8v.56c.58.74,2,2.82,2.4,3.34Zm5.82-10.72v8.24c0,3.68-.5,7.86-4.48,10.16a8.38,8.38,0,0,0-1.18-1.36,6.74,6.74,0,0,0,3.82-5.66l-2.6,2.28-.92-1.74c.94-.56,2.3-1.54,3.66-2.52,0-.4,0-.78,0-1.16v-8.24Zm-3.38,2.9a22,22,0,0,1,1.7,4.12l-1.48.66a20.22,20.22,0,0,0-1.6-4.22Zm8.54,13.5c.4,0,.48-.52.52-2.4a4.54,4.54,0,0,0,1.56.76c-.18,2.42-.6,3.3-1.94,3.3h-1.78c-1.48,0-1.92-.54-1.92-2.62V170.61h1.76v9.24l.54-.46a30.67,30.67,0,0,1,3.32,3.46L385.31,184a27.31,27.31,0,0,0-2.68-3v5.12c0,.82.06.94.48.94Zm1.76-13c-.72,1.42-1.54,3-2.22,4.12l-1.32-.62a25.7,25.7,0,0,0,1.84-4.2Z"/><path class="cls-12" d="M410,171.43V189h-1.82v-.78H395.11V189h-1.74V171.43Zm-1.82,15.06V173.11H395.11V186.5Zm-5.82-2.58a4.32,4.32,0,0,0,0,1.14c-3.56,1-4.1,1.1-4.42,1.32a3.4,3.4,0,0,0-.46-1.06,1,1,0,0,0,.72-1.08V183.1c-.64.24-1.28.46-1.9.64a7.33,7.33,0,0,0-.9-1.08,19.83,19.83,0,0,0,4.22-1.44h-2.56v-2.9h9.2v2.9h-4.54a11,11,0,0,1-2.14,1.28v2.06Zm5-6.28H396v-1.1h4.82v-1H397v-1.08h3.76v-1h1.68v1h4v1.08h-4v1h4.9Zm-8.68,2.7h6v-1.12h-6Zm8.76,1.94a16.1,16.1,0,0,1-2,1.22c.8.56,1.54,1.1,2.08,1.56l-1.22.74a37.7,37.7,0,0,0-5.1-3.6l1.14-.66c.64.38,1.38.82,2.08,1.28a15.75,15.75,0,0,0,1.86-1.26Z"/><path class="cls-12" d="M420.09,183.58a20.33,20.33,0,0,1-1.78,4.24,9.43,9.43,0,0,0-1.32-.76,15.61,15.61,0,0,0,1.62-3.84Zm2.4-1.14v6.36h-1.56v-6.36h-3.7V181h.86v-9.68h7.06V181H426v1.48Zm-2.88-9.78v1.24h4v-1.24Zm4,2.44h-4v1.18h4Zm-4,3.46h4v-1.1h-4Zm0,2.4h4v-1.2h-4Zm4.74,2.14a16.66,16.66,0,0,1,1.42,3l-1.3.6a17.17,17.17,0,0,0-1.36-3.06Zm4.66.08a19.34,19.34,0,0,1-2.32,4.74,10.52,10.52,0,0,0-1.28-.8,14.28,14.28,0,0,0,2-4.34Zm4.26-11.42a28.27,28.27,0,0,1-6.88,2.76,6.3,6.3,0,0,0-.58-1.32,24,24,0,0,0,6.22-2.82Zm-1.94,10.16v5.6c0,.7-.12,1-.6,1.18a5.8,5.8,0,0,1-2.08.22,5.71,5.71,0,0,0-.44-1.2h1.3c.2,0,.24-.06.24-.24V182a15.37,15.37,0,0,0-3.16.38,12.56,12.56,0,0,0-.48-1.48,5.08,5.08,0,0,0,1.86-1.06,32.87,32.87,0,0,0,2.62-2.26,16.72,16.72,0,0,0-3.88.46,9.48,9.48,0,0,0-.44-1.42,3.26,3.26,0,0,0,1.18-.56,16.52,16.52,0,0,0,3.22-2.76l1.36.7a22.14,22.14,0,0,1-2.74,2.26l2.76-.14c.48-.5.94-1,1.38-1.54l1.3.9a41.93,41.93,0,0,1-5.5,5.08l3.88-.2c-.32-.62-.68-1.24-1-1.76l1.26-.6a25.69,25.69,0,0,1,2.18,3.94l-1.36.7c-.1-.28-.22-.58-.38-.92Zm2,.7c.74,1.38,1.68,3.2,2.1,4.24l-1.46.7a38.47,38.47,0,0,0-2-4.34Z"/><path class="cls-13" d="M371.65,435.11c0,3.22-.28,7.74-2.26,10.62a8.24,8.24,0,0,0-1.62-1c1.86-2.72,2-6.62,2-9.58v-6.88h15.32v4.88H371.65Zm0-5.28v1.7h11.46v-1.7ZM386,441.15h-3.62v4.52h-1.86v-4.52h-3.72a6.09,6.09,0,0,1-4,4.56,6.9,6.9,0,0,0-1.24-1.4,5.25,5.25,0,0,0,3.28-3.16h-3v-1.58h3.32a5.25,5.25,0,0,0,0-.56v-1.9h-2.86v-1.54h2.76a17.76,17.76,0,0,0-1-1.86l1.7-.52a18.91,18.91,0,0,1,1.1,1.78l-1.72.6h5.32a18,18,0,0,0,1.12-2.38l2,.54c-.4.6-.84,1.24-1.26,1.84h3.12v1.54h-3v2.46H386Zm-5.48-1.58v-2.46H377v2.46Z"/><path class="cls-13" d="M404.09,439.67a18.92,18.92,0,0,0,6.88,4.14,7.8,7.8,0,0,0-1.34,1.6,20.43,20.43,0,0,1-7-4.88v5.12h-1.94v-5a20.23,20.23,0,0,1-6.88,4.78,8.75,8.75,0,0,0-1.28-1.56,19,19,0,0,0,6.72-4.16h-4.5v-7.4h5.94v-1.46H393v-1.72h7.64v-1.78h1.94v1.78h7.82v1.72h-7.82v1.46h6.24v7.4Zm-7.52-4.38h4.12v-1.6h-4.12Zm0,3h4.12v-1.62h-4.12Zm6.06-4.56v1.6H407v-1.6Zm4.36,2.94h-4.36v1.62H407Z"/><path class="cls-13" d="M420.09,440.29a20.33,20.33,0,0,1-1.78,4.24,9.43,9.43,0,0,0-1.32-.76,15.61,15.61,0,0,0,1.62-3.84Zm2.4-1.14v6.36h-1.56v-6.36h-3.7v-1.48h.86V428h7.06v9.68H426v1.48Zm-2.88-9.78v1.24h4v-1.24Zm4,2.44h-4V433h4Zm-4,3.46h4v-1.1h-4Zm0,2.4h4v-1.2h-4Zm4.74,2.14a16.66,16.66,0,0,1,1.42,3l-1.3.6a17.17,17.17,0,0,0-1.36-3.06Zm4.66.08a19.34,19.34,0,0,1-2.32,4.74,10.52,10.52,0,0,0-1.28-.8,14.28,14.28,0,0,0,2-4.34Zm4.26-11.42a28.27,28.27,0,0,1-6.88,2.76,6.3,6.3,0,0,0-.58-1.32,24,24,0,0,0,6.22-2.82Zm-1.94,10.16v5.6c0,.7-.12,1-.6,1.18a5.8,5.8,0,0,1-2.08.22,5.71,5.71,0,0,0-.44-1.2h1.3c.2,0,.24-.06.24-.24v-5.46a15.37,15.37,0,0,0-3.16.38,12.56,12.56,0,0,0-.48-1.48,5.08,5.08,0,0,0,1.86-1.06,32.87,32.87,0,0,0,2.62-2.26,16.72,16.72,0,0,0-3.88.46,9.48,9.48,0,0,0-.44-1.42,3.26,3.26,0,0,0,1.18-.56,16.52,16.52,0,0,0,3.22-2.76l1.36.7a22.14,22.14,0,0,1-2.74,2.26l2.76-.14c.48-.5.94-1,1.38-1.54l1.3.9a41.93,41.93,0,0,1-5.5,5.08l3.88-.2c-.32-.62-.68-1.24-1-1.76l1.26-.6a25.69,25.69,0,0,1,2.18,3.94l-1.36.7c-.1-.28-.22-.58-.38-.92Zm2,.7c.74,1.38,1.68,3.2,2.1,4.24l-1.46.7a38.47,38.47,0,0,0-2-4.34Z"/><path class="cls-13" d="M371.23,411.55a18.43,18.43,0,0,1-2,4,10.31,10.31,0,0,0-1.28-.88,12.35,12.35,0,0,0,1.84-3.58Zm2.58-1.3V417H372v-6.78h-3.84v-1.58H372v-1.82h-4v-1.56h2.18a10.08,10.08,0,0,0-.7-2.5l1.52-.38a12.52,12.52,0,0,1,.74,2.46l-1.48.42h3.16a20.68,20.68,0,0,0,1-2.9l1.72.36c-.34.88-.68,1.8-1,2.54h2.34v1.56h-3.68v1.82h3.4v1.58Zm3.36-7.88h-8.8v-1.54H372c-.22-.56-.48-1.2-.72-1.7l1.84-.48c.34.68.74,1.52,1,2.18h3Zm-1.42,8.58a17.07,17.07,0,0,1,1.66,3l-1.3.78a20.91,20.91,0,0,0-1.6-3.1Zm10.52-3.8h-2V417h-1.82v-9.9h-2.34v.48c0,2.88-.26,6.88-2,9.42a6.3,6.3,0,0,0-1.42-1.1c1.58-2.32,1.72-5.7,1.72-8.32V400.7a30.82,30.82,0,0,0,6.12-1.62l1.46,1.36a32.82,32.82,0,0,1-5.84,1.48v3.5h6.2Z"/><path class="cls-13" d="M401.13,411.87l.32,1.66c-2.84,1.2-5.92,2.46-8.22,3.38l-.84-1.88c1.4-.46,3.38-1.16,5.48-1.94v-7.56H393v-1.86h4.84v-4.52h1.92v13.22Zm6.58,2.74c.82,0,.94-.94,1.06-4.64a5.27,5.27,0,0,0,1.78.88c-.18,4.12-.62,5.58-2.68,5.58h-2.54c-1.94,0-2.5-.68-2.5-3V399.14h1.94v4.5h5.38v1.84h-5.38v7.92c0,1,.12,1.2.82,1.2Z"/><path class="cls-13" d="M427.21,403.42v2.48h6.42v6.86c0,1-.2,1.54-.94,1.82a10.43,10.43,0,0,1-3.48.32,6.45,6.45,0,0,0-.66-1.82c1.2,0,2.4,0,2.72,0s.44-.1.44-.38v-5h-4.5v9.36h-1.94v-9.36H421v7.22h-1.88v-9h6.1v-2.48h-7.92V401.6h8.28c-.32-.76-.78-1.7-1.18-2.44l1.82-.54a22.07,22.07,0,0,1,1.52,3h7.5v1.82Z"/><path class="cls-13" d="M378,377.84v2.42h6.7v1.68H378v4.46h7.66v1.7H368.55v-1.7h7.52v-4.46h-6.6v-1.68h6.6v-2.42h-4.18v-1a22.1,22.1,0,0,1-2.9,1.28,7.22,7.22,0,0,0-1.24-1.72c3.72-1.14,7.34-3.34,9.24-6.28l1.74.78c-.18.26-.34.52-.52.76a21.58,21.58,0,0,0,8.32,4.76,7.73,7.73,0,0,0-1.28,1.62,20.89,20.89,0,0,1-3-1.38v1.22Zm-5.54,4.3a15.73,15.73,0,0,1,1.88,3.46l-1.62.7a16.83,16.83,0,0,0-1.78-3.56Zm8.86-6a22.41,22.41,0,0,1-4.24-3.24,18.09,18.09,0,0,1-4,3.24Zm-1.8,9.6a18.77,18.77,0,0,0,1.94-3.58l1.8.66c-.76,1.26-1.64,2.62-2.32,3.52Z"/><path class="cls-13" d="M400.83,378.56h-5.46v10h-1.84V371.12h7.3Zm-5.46-5.88v1.42h3.72v-1.42Zm3.72,4.36v-1.56h-3.72V377ZM410,386.22c0,1.16-.26,1.72-1,2a12.28,12.28,0,0,1-3.86.34,6.64,6.64,0,0,0-.66-1.92c1.32.06,2.72,0,3.12,0s.52-.14.52-.5v-7.64h-5.64v-7.46H410Zm-5.76-13.54v1.42h3.86v-1.42Zm3.86,4.4v-1.6h-3.86v1.6Z"/><path class="cls-13" d="M420.09,383.24a20.33,20.33,0,0,1-1.78,4.24,9.43,9.43,0,0,0-1.32-.76,15.61,15.61,0,0,0,1.62-3.84Zm2.4-1.14v6.36h-1.56V382.1h-3.7v-1.48h.86v-9.68h7.06v9.68H426v1.48Zm-2.88-9.78v1.24h4v-1.24Zm4,2.44h-4v1.18h4Zm-4,3.46h4v-1.1h-4Zm0,2.4h4v-1.2h-4Zm4.74,2.14a16.66,16.66,0,0,1,1.42,3l-1.3.6a17.17,17.17,0,0,0-1.36-3.06Zm4.66.08a19.34,19.34,0,0,1-2.32,4.74,10.52,10.52,0,0,0-1.28-.8,14.28,14.28,0,0,0,2-4.34Zm4.26-11.42a28.27,28.27,0,0,1-6.88,2.76,6.3,6.3,0,0,0-.58-1.32A24,24,0,0,0,432,370Zm-1.94,10.16v5.6c0,.7-.12,1-.6,1.18a5.8,5.8,0,0,1-2.08.22,5.71,5.71,0,0,0-.44-1.2h1.3c.2,0,.24-.06.24-.24v-5.46a15.37,15.37,0,0,0-3.16.38,12.56,12.56,0,0,0-.48-1.48,5.08,5.08,0,0,0,1.86-1.06,32.87,32.87,0,0,0,2.62-2.26,16.72,16.72,0,0,0-3.88.46,9.48,9.48,0,0,0-.44-1.42,3.26,3.26,0,0,0,1.18-.56,16.52,16.52,0,0,0,3.22-2.76l1.36.7a22.14,22.14,0,0,1-2.74,2.26l2.76-.14c.48-.5.94-1,1.38-1.54l1.3.9a41.93,41.93,0,0,1-5.5,5.08l3.88-.2c-.32-.62-.68-1.24-1-1.76l1.26-.6a25.69,25.69,0,0,1,2.18,3.94l-1.36.7c-.1-.28-.22-.58-.38-.92Zm2,.7c.74,1.38,1.68,3.2,2.1,4.24l-1.46.7a38.47,38.47,0,0,0-2-4.34Z"/><path class="cls-13" d="M380.37,343.8a35.13,35.13,0,0,1,5.26,5.8l-1.56,1.16a15.81,15.81,0,0,0-1.16-1.64c-11,.58-12.28.62-13.18.94a17.42,17.42,0,0,0-.6-1.82,3.68,3.68,0,0,0,1.64-1.14,32,32,0,0,0,4.42-5.54l1.86.8a39.3,39.3,0,0,1-4.78,5.52l9.3-.38c-.86-1-1.78-1.92-2.64-2.72Zm-9.74,7.78h13v8.48h-2v-1h-9.1v1.06h-1.88Zm1.88,1.78v3.88h9.1v-3.88Z"/><path class="cls-13" d="M402.49,345.34c-.08.64-.18,1.26-.28,1.82h7.34v10.9c0,1-.26,1.46-1,1.72a11,11,0,0,1-3.44.28,7.29,7.29,0,0,0-.66-1.6c1.14.06,2.36,0,2.7,0s.46-.1.46-.42v-9.18H395.77v11.18h-1.86v-12.9h6.5c.06-.54.16-1.18.22-1.82H393V343.6h7.84c.06-.66.1-1.3.12-1.86l2,.2c-.06.54-.14,1.1-.22,1.66h7.7v1.74Zm0,11v3.28h-1.76v-3.28h-4v-1.5h4v-1.72h-3.6v-1.46H399a9.61,9.61,0,0,0-.94-2.22l1.46-.38a10.32,10.32,0,0,1,1,2.28l-1.06.32h3.28a22.57,22.57,0,0,0,1-2.66l1.68.38c-.34.78-.68,1.58-1,2.28h1.9v1.46h-3.78v1.72h4.16v1.5Z"/><path class="cls-13" d="M427.21,346.38v2.48h6.42v6.86c0,1-.2,1.54-.94,1.82a10.43,10.43,0,0,1-3.48.32,6.45,6.45,0,0,0-.66-1.82c1.2,0,2.4,0,2.72,0s.44-.1.44-.38v-5h-4.5V360h-1.94v-9.36H421v7.22h-1.88v-9h6.1v-2.48h-7.92v-1.82h8.28c-.32-.76-.78-1.7-1.18-2.44l1.82-.54a22.07,22.07,0,0,1,1.52,3h7.5v1.82Z"/><path class="cls-13" d="M386,327.56h-4.7a32.59,32.59,0,0,1,3.86,3.32l-1.68.8a12.89,12.89,0,0,0-.94-1c-10.1.46-11.18.48-11.92.74a13.77,13.77,0,0,0-.58-1.76,2.87,2.87,0,0,0,1.16-.62,13.68,13.68,0,0,0,1.78-1.46h-4.8v-1.44H386Zm-15.78-7.32h-1.66v-4.18h7.58v-.9h-6.34v-1.38h14.54v1.38H378v.9h7.66v4.18h-1.72v-2.94H378v5.42h-1.82v-5.42h-5.92Zm-.14,1.5c1.32-.38,3.26-1,5.16-1.64l.24,1.26c-1.66.66-3.36,1.34-4.76,1.86ZM383.73,325H370.49v-1.38h13.24Zm-12.2-7.4a32.78,32.78,0,0,1,3.86,1.36l-.68,1.16a31.46,31.46,0,0,0-3.86-1.48Zm9.56,11.74c-.56-.48-1.14-1-1.68-1.34l.88-.4h-4.78a27.7,27.7,0,0,1-2.36,2Zm2.44-10.54a27.55,27.55,0,0,1-4.24,1.36l-.7-1a27.43,27.43,0,0,0,4.08-1.48Zm-4.28,1.38a36.25,36.25,0,0,1,4.94,1.74l-.6,1.26a46.85,46.85,0,0,0-4.92-1.88Z"/><path class="cls-13" d="M400,324.7c-.42-.7-1.24-1.88-2-2.86v9.7h-1.82v-8.94a19.25,19.25,0,0,1-2.92,5.44,9.61,9.61,0,0,0-1-1.78,19.36,19.36,0,0,0,3.6-7.08h-3.08v-1.76h3.38v-4.22H398v4.22h2.72v1.76H398v.4c.64.6,2.68,3,3.14,3.52Zm7.26-5.52a21.29,21.29,0,0,0,3.84,7.66,7,7,0,0,0-1.42,1.46,22.39,22.39,0,0,1-2.86-5.84v9.08H405v-9a19.76,19.76,0,0,1-3.8,6.14,8.42,8.42,0,0,0-1.08-1.7,19.2,19.2,0,0,0,4.54-7.84h-3.1v-1.76H405v-4.22h1.86v4.22h3.66v1.76Z"/><path class="cls-13" d="M420.09,326.2a20.33,20.33,0,0,1-1.78,4.24,9.43,9.43,0,0,0-1.32-.76,15.61,15.61,0,0,0,1.62-3.84Zm2.4-1.14v6.36h-1.56v-6.36h-3.7v-1.48h.86v-9.68h7.06v9.68H426v1.48Zm-2.88-9.78v1.24h4v-1.24Zm4,2.44h-4v1.18h4Zm-4,3.46h4v-1.1h-4Zm0,2.4h4v-1.2h-4Zm4.74,2.14a16.66,16.66,0,0,1,1.42,3l-1.3.6a17.17,17.17,0,0,0-1.36-3.06Zm4.66.08a19.34,19.34,0,0,1-2.32,4.74,10.52,10.52,0,0,0-1.28-.8,14.28,14.28,0,0,0,2-4.34Zm4.26-11.42a28.27,28.27,0,0,1-6.88,2.76,6.3,6.3,0,0,0-.58-1.32A24,24,0,0,0,432,313Zm-1.94,10.16v5.6c0,.7-.12,1-.6,1.18a5.8,5.8,0,0,1-2.08.22,5.71,5.71,0,0,0-.44-1.2h1.3c.2,0,.24-.06.24-.24v-5.46a15.37,15.37,0,0,0-3.16.38,12.56,12.56,0,0,0-.48-1.48,5.08,5.08,0,0,0,1.86-1.06,32.87,32.87,0,0,0,2.62-2.26,16.72,16.72,0,0,0-3.88.46,9.48,9.48,0,0,0-.44-1.42,3.26,3.26,0,0,0,1.18-.56,16.52,16.52,0,0,0,3.22-2.76l1.36.7a22.14,22.14,0,0,1-2.74,2.26l2.76-.14c.48-.5.94-1,1.38-1.54l1.3.9a41.93,41.93,0,0,1-5.5,5.08l3.88-.2c-.32-.62-.68-1.24-1-1.76l1.26-.6a25.69,25.69,0,0,1,2.18,3.94l-1.36.7c-.1-.28-.22-.58-.38-.92Zm2,.7c.74,1.38,1.68,3.2,2.1,4.24l-1.46.7a38.47,38.47,0,0,0-2-4.34Z"/><path class="cls-13" d="M371.23,297.45a18.43,18.43,0,0,1-2,4,10.31,10.31,0,0,0-1.28-.88,12.35,12.35,0,0,0,1.84-3.58Zm2.58-1.3v6.78H372v-6.78h-3.84v-1.58H372v-1.82h-4v-1.56h2.18a10.08,10.08,0,0,0-.7-2.5l1.52-.38a12.52,12.52,0,0,1,.74,2.46l-1.48.42h3.16a20.68,20.68,0,0,0,1-2.9l1.72.36c-.34.88-.68,1.8-1,2.54h2.34v1.56h-3.68v1.82h3.4v1.58Zm3.36-7.88h-8.8v-1.54H372c-.22-.56-.48-1.2-.72-1.7l1.84-.48c.34.68.74,1.52,1,2.18h3Zm-1.42,8.58a17.07,17.07,0,0,1,1.66,3l-1.3.78a20.91,20.91,0,0,0-1.6-3.1Zm10.52-3.8h-2V303h-1.82v-9.9h-2.34v.48c0,2.88-.26,6.88-2,9.42a6.3,6.3,0,0,0-1.42-1.1c1.58-2.32,1.72-5.7,1.72-8.32v-6.92a30.82,30.82,0,0,0,6.12-1.62l1.46,1.36a32.82,32.82,0,0,1-5.84,1.48v3.5h6.2Z"/><path class="cls-13" d="M410.89,290.47h-2.82v10.24c0,1.1-.22,1.66-.94,2a9.42,9.42,0,0,1-3.42.36,7.48,7.48,0,0,0-.64-2c1.16,0,2.32,0,2.66,0s.44-.12.44-.42V290.47h-2.62a17.91,17.91,0,0,1-2,3.6,9.89,9.89,0,0,0-1.6-1.14,12.32,12.32,0,0,0,1.54-2.46h-3.08v12.58h-1.88V290.47h-.6a20.75,20.75,0,0,1-2,3.66,12.5,12.5,0,0,0-1.7-1.14,21.18,21.18,0,0,0,3.52-8.3l2,.4c-.3,1.2-.66,2.4-1.06,3.54h5v1.5a26.29,26.29,0,0,0,1.76-5.44l1.88.38c-.3,1.2-.64,2.4-1,3.56h6.62Z"/><path class="cls-13" d="M420.09,297.67a20.33,20.33,0,0,1-1.78,4.24,9.43,9.43,0,0,0-1.32-.76,15.61,15.61,0,0,0,1.62-3.84Zm2.4-1.14v6.36h-1.56v-6.36h-3.7v-1.48h.86v-9.68h7.06v9.68H426v1.48Zm-2.88-9.78V288h4v-1.24Zm4,2.44h-4v1.18h4Zm-4,3.46h4v-1.1h-4Zm0,2.4h4v-1.2h-4Zm4.74,2.14a16.66,16.66,0,0,1,1.42,3l-1.3.6a17.17,17.17,0,0,0-1.36-3.06Zm4.66.08a19.34,19.34,0,0,1-2.32,4.74,10.52,10.52,0,0,0-1.28-.8,14.28,14.28,0,0,0,2-4.34Zm4.26-11.42a28.27,28.27,0,0,1-6.88,2.76,6.3,6.3,0,0,0-.58-1.32,24,24,0,0,0,6.22-2.82ZM431.33,296v5.6c0,.7-.12,1-.6,1.18a5.8,5.8,0,0,1-2.08.22,5.71,5.71,0,0,0-.44-1.2h1.3c.2,0,.24-.06.24-.24v-5.46a15.37,15.37,0,0,0-3.16.38,12.56,12.56,0,0,0-.48-1.48A5.08,5.08,0,0,0,428,294a32.87,32.87,0,0,0,2.62-2.26,16.72,16.72,0,0,0-3.88.46,9.48,9.48,0,0,0-.44-1.42,3.26,3.26,0,0,0,1.18-.56,16.52,16.52,0,0,0,3.22-2.76l1.36.7a22.14,22.14,0,0,1-2.74,2.26l2.76-.14c.48-.5.94-1,1.38-1.54l1.3.9a41.93,41.93,0,0,1-5.5,5.08l3.88-.2c-.32-.62-.68-1.24-1-1.76l1.26-.6a25.69,25.69,0,0,1,2.18,3.94l-1.36.7c-.1-.28-.22-.58-.38-.92Zm2,.7c.74,1.38,1.68,3.2,2.1,4.24l-1.46.7a38.47,38.47,0,0,0-2-4.34Z"/><path class="cls-13" d="M380.37,258.23a35.13,35.13,0,0,1,5.26,5.8l-1.56,1.16a15.81,15.81,0,0,0-1.16-1.64c-11,.58-12.28.62-13.18.94a17.42,17.42,0,0,0-.6-1.82,3.68,3.68,0,0,0,1.64-1.14,32,32,0,0,0,4.42-5.54l1.86.8a39.3,39.3,0,0,1-4.78,5.52l9.3-.38c-.86-1-1.78-1.92-2.64-2.72ZM370.63,266h13v8.48h-2v-1h-9.1v1.06h-1.88Zm1.88,1.78v3.88h9.1v-3.88Z"/><path class="cls-13" d="M401.13,269.25l.32,1.66c-2.84,1.2-5.92,2.46-8.22,3.38l-.84-1.88c1.4-.46,3.38-1.16,5.48-1.94v-7.56H393V261h4.84v-4.52h1.92v13.22Zm6.58,2.74c.82,0,.94-.94,1.06-4.64a5.27,5.27,0,0,0,1.78.88c-.18,4.12-.62,5.58-2.68,5.58h-2.54c-1.94,0-2.5-.68-2.5-3V256.53h1.94V261h5.38v1.84h-5.38v7.92c0,1,.12,1.2.82,1.2Z"/><path class="cls-13" d="M427.21,260.81v2.48h6.42v6.86c0,1-.2,1.54-.94,1.82a10.43,10.43,0,0,1-3.48.32,6.45,6.45,0,0,0-.66-1.82c1.2,0,2.4,0,2.72,0s.44-.1.44-.38v-5h-4.5v9.36h-1.94v-9.36H421v7.22h-1.88v-9h6.1v-2.48h-7.92V259h8.28c-.32-.76-.78-1.7-1.18-2.44l1.82-.54a22.07,22.07,0,0,1,1.52,3h7.5v1.82Z"/><path class="cls-13" d="M380.37,229.7a35.13,35.13,0,0,1,5.26,5.8l-1.56,1.16a15.81,15.81,0,0,0-1.16-1.64c-11,.58-12.28.62-13.18.94a17.42,17.42,0,0,0-.6-1.82,3.68,3.68,0,0,0,1.64-1.14,32,32,0,0,0,4.42-5.54l1.86.8a39.3,39.3,0,0,1-4.78,5.52l9.3-.38c-.86-1-1.78-1.92-2.64-2.72Zm-9.74,7.78h13V246h-2v-1h-9.1V246h-1.88Zm1.88,1.78v3.88h9.1v-3.88Z"/><path class="cls-13" d="M404.09,240a18.92,18.92,0,0,0,6.88,4.14,7.8,7.8,0,0,0-1.34,1.6,20.43,20.43,0,0,1-7-4.88V246h-1.94v-5a20.23,20.23,0,0,1-6.88,4.78,8.75,8.75,0,0,0-1.28-1.56,19,19,0,0,0,6.72-4.16h-4.5v-7.4h5.94v-1.46H393v-1.72h7.64v-1.78h1.94v1.78h7.82v1.72h-7.82v1.46h6.24V240Zm-7.52-4.38h4.12V234h-4.12Zm0,3h4.12V237h-4.12Zm6.06-4.56v1.6H407V234ZM407,237h-4.36v1.62H407Z"/><path class="cls-13" d="M420.09,240.62a20.33,20.33,0,0,1-1.78,4.24,9.43,9.43,0,0,0-1.32-.76,15.61,15.61,0,0,0,1.62-3.84Zm2.4-1.14v6.36h-1.56v-6.36h-3.7V238h.86v-9.68h7.06V238H426v1.48Zm-2.88-9.78v1.24h4V229.7Zm4,2.44h-4v1.18h4Zm-4,3.46h4v-1.1h-4Zm0,2.4h4v-1.2h-4Zm4.74,2.14a16.66,16.66,0,0,1,1.42,3l-1.3.6a17.17,17.17,0,0,0-1.36-3.06Zm4.66.08a19.34,19.34,0,0,1-2.32,4.74,10.52,10.52,0,0,0-1.28-.8,14.28,14.28,0,0,0,2-4.34Zm4.26-11.42a28.27,28.27,0,0,1-6.88,2.76,6.3,6.3,0,0,0-.58-1.32,24,24,0,0,0,6.22-2.82ZM431.33,239v5.6c0,.7-.12,1-.6,1.18a5.8,5.8,0,0,1-2.08.22,5.71,5.71,0,0,0-.44-1.2h1.3c.2,0,.24-.06.24-.24v-5.46a15.37,15.37,0,0,0-3.16.38,12.56,12.56,0,0,0-.48-1.48A5.08,5.08,0,0,0,428,236.9a32.87,32.87,0,0,0,2.62-2.26,16.72,16.72,0,0,0-3.88.46,9.48,9.48,0,0,0-.44-1.42,3.26,3.26,0,0,0,1.18-.56,16.52,16.52,0,0,0,3.22-2.76l1.36.7a22.14,22.14,0,0,1-2.74,2.26l2.76-.14c.48-.5.94-1,1.38-1.54l1.3.9a41.93,41.93,0,0,1-5.5,5.08l3.88-.2c-.32-.62-.68-1.24-1-1.76l1.26-.6a25.69,25.69,0,0,1,2.18,3.94l-1.36.7c-.1-.28-.22-.58-.38-.92Zm2,.7c.74,1.38,1.68,3.2,2.1,4.24l-1.46.7a38.47,38.47,0,0,0-2-4.34Z"/><path class="cls-12" d="M385.79,201.12v1.58H368.35v-1.58h7.94c-.18-.54-.38-1.14-.56-1.64l1.88-.44c.26.64.58,1.44.78,2.08Zm-.54,14.52c0,.88-.22,1.22-.84,1.46a9.2,9.2,0,0,1-2.88.22,6.31,6.31,0,0,0-.58-1.38c.84,0,1.84,0,2.06,0s.36-.08.36-.32v-5.38H370.81v7.22H369v-8.76h16.26Zm-2-12v4.1h-12v-4.1Zm-8.74,11.8v.92h-1.72v-5.14h8.48v4.22Zm6.78-10.5H373v1.48h8.2Zm-6.78,7.62v1.54h5.12v-1.54Z"/><path class="cls-12" d="M396.95,204.1a24.69,24.69,0,0,1-3.18,9.52,14,14,0,0,0-1.56-1.06c1.5-2.06,2.4-5,3-8.46H393v-1.78h2.48c.14-1,.24-2.12.32-3.2l1.78.16c-.1,1-.22,2.06-.34,3h4v1.78Zm3.12,5.92a46.29,46.29,0,0,1,1.64,6.2l-1.5.54c-.06-.44-.16-.9-.26-1.42-4,.72-4.62.88-5,1.12a9.06,9.06,0,0,0-.58-1.58c.38-.12.68-.7,1.08-1.56a35.57,35.57,0,0,0,2.24-7.1l1.76.42a44.59,44.59,0,0,1-2.82,7.74l3-.5c-.28-1.16-.62-2.36-.92-3.4Zm10.62,6.46h-6.8v1h-1.64v-11.7a14.42,14.42,0,0,1-1.32,1.9,8.87,8.87,0,0,0-1.08-1.46,19.58,19.58,0,0,0,3.5-7l1.58.42a31.15,31.15,0,0,1-1.2,3.22h6.74v1.64H408v2.38h2.4v1.58H408v2.36h2.42v1.58H408v2.4h2.68Zm-6.8-12v2.38h2.44V204.5Zm2.44,4h-2.44v2.36h2.44Zm-2.44,6.34h2.44v-2.4h-2.44Zm3.18-15.42a16.26,16.26,0,0,1,1.34,2.84l-1.66.62a18.42,18.42,0,0,0-1.26-2.94Z"/><path class="cls-12" d="M427.21,203.76v2.48h6.42v6.86c0,1-.2,1.54-.94,1.82a10.43,10.43,0,0,1-3.48.32,6.45,6.45,0,0,0-.66-1.82c1.2,0,2.4,0,2.72,0s.44-.1.44-.38v-5h-4.5v9.36h-1.94v-9.36H421v7.22h-1.88v-9h6.1v-2.48h-7.92v-1.82h8.28c-.32-.76-.78-1.7-1.18-2.44l1.82-.54a22.07,22.07,0,0,1,1.52,3h7.5v1.82Z"/><path class="cls-13" d="M374.81,604.45a22.1,22.1,0,0,1-1.58,2.66v9.7h-1.84v-7.32a19.56,19.56,0,0,1-2.06,2,16.71,16.71,0,0,0-1.54-1.32,17,17,0,0,0,5.16-6.3Zm0-4.1h2v1.76h-2v1.78H373v-1.78h-4.64v-1.76H373v-1.88h1.82Zm4.7,1.74h-2v-1.74h2v-1.88h1.86v1.88h4.5v1.74h-4.5V604h-1.86Zm4,12.74c.88,0,1-.52,1.14-3a5.8,5.8,0,0,0,1.68.76c-.22,3.06-.72,4-2.66,4h-3.42c-2.14,0-2.72-.58-2.72-2.72v-9.66h1.84v3.12h6.52v1.76h-6.52v4.78c0,.84.16,1,1.1,1Z"/><path class="cls-13" d="M397.85,609.17a17,17,0,0,1-1.84,4.06c.36.2.78.54,1.42.94,1.38.82,3.2,1,5.56,1a77.87,77.87,0,0,0,8-.46,7.73,7.73,0,0,0-.5,1.82c-1.58.12-5.26.24-7.58.24-2.64,0-4.36-.22-5.8-1.06-.84-.48-1.54-1.14-2-1.14s-1.14,1.26-1.74,2.48l-1.18-1.62a8.91,8.91,0,0,1,1.9-2,12.89,12.89,0,0,0,1.62-3h-2.56c.56-.92,1.22-2.18,1.82-3.38h-2.14v-1.5h4.6c-.54,1.12-1.2,2.34-1.78,3.42h.92l.28-.08Zm-1.08-8h-3.82v-1.54h3.82v-1.18h1.82v1.18h2.68v1.54h-2.68v1.14h-1.82Zm-1.32.9c.46.74,1,1.68,1.36,2.26l-1.52.72c-.3-.6-.92-1.62-1.32-2.36Zm7.68,12.5v-1.26h-5.36v-1.36h5.36v-1h-4.36v-5.54h4.36v-.92h-5v-1.32h5v-1h1.72v1H410v1.32h-5.2v.92h4.5V611h-4.5v1h5.54v1.36h-5.54v1.26Zm-2.68-6.92h2.68v-1h-2.68Zm2.68,2.18v-1.06h-2.68v1.06Zm1.78-8.66h-2.82v-1.54h2.82v-1.18h1.84v1.18h3.78v1.54h-3.78v.9h-1.84Zm-.06,5.44v1h2.72v-1Zm2.72,2.16h-2.72v1.06h2.72Z"/><path class="cls-13" d="M420.09,611.43a20.33,20.33,0,0,1-1.78,4.24,9.43,9.43,0,0,0-1.32-.76,15.61,15.61,0,0,0,1.62-3.84Zm2.4-1.14v6.36h-1.56v-6.36h-3.7v-1.48h.86v-9.68h7.06v9.68H426v1.48Zm-2.88-9.78v1.24h4v-1.24Zm4,2.44h-4v1.18h4Zm-4,3.46h4v-1.1h-4Zm0,2.4h4v-1.2h-4Zm4.74,2.14a16.66,16.66,0,0,1,1.42,3l-1.3.6a17.17,17.17,0,0,0-1.36-3.06ZM429,611a19.34,19.34,0,0,1-2.32,4.74,10.52,10.52,0,0,0-1.28-.8,14.28,14.28,0,0,0,2-4.34Zm4.26-11.42a28.27,28.27,0,0,1-6.88,2.76,6.3,6.3,0,0,0-.58-1.32,24,24,0,0,0,6.22-2.82Zm-1.94,10.16v5.6c0,.7-.12,1-.6,1.18a5.8,5.8,0,0,1-2.08.22,5.71,5.71,0,0,0-.44-1.2h1.3c.2,0,.24-.06.24-.24v-5.46a15.37,15.37,0,0,0-3.16.38,12.56,12.56,0,0,0-.48-1.48,5.08,5.08,0,0,0,1.86-1.06,32.87,32.87,0,0,0,2.62-2.26,16.72,16.72,0,0,0-3.88.46,9.48,9.48,0,0,0-.44-1.42,3.26,3.26,0,0,0,1.18-.56,16.52,16.52,0,0,0,3.22-2.76l1.36.7a22.14,22.14,0,0,1-2.74,2.26L432,604c.48-.5.94-1,1.38-1.54l1.3.9a41.93,41.93,0,0,1-5.5,5.08l3.88-.2c-.32-.62-.68-1.24-1-1.76l1.26-.6a25.69,25.69,0,0,1,2.18,3.94l-1.36.7c-.1-.28-.22-.58-.38-.92Zm2,.7c.74,1.38,1.68,3.2,2.1,4.24l-1.46.7a38.47,38.47,0,0,0-2-4.34Z"/><path class="cls-13" d="M382.21,580.93a11.44,11.44,0,0,0,4.24,2.72,7.59,7.59,0,0,0-1.22,1.44,12.71,12.71,0,0,1-5-4.16h-6a12.73,12.73,0,0,1-1.76,2h3.66v-1.5H378V583h4v1.48h-4v1.78h6.72v1.54H369.67v-1.54h6.46v-1.78h-3.82v-1.32a14,14,0,0,1-3.3,2.2,6.27,6.27,0,0,0-1.2-1.42,11.93,11.93,0,0,0,4.32-3H368v-1.54h3.88v-6.18H369v-1.52h2.9v-1.74h1.86v1.74h6.8V570h1.9v1.72h2.86v1.52h-2.86v6.18h3.76v1.54Zm-8.46-7.72v1.12h6.8v-1.12Zm0,3.62h6.8v-1.14h-6.8Zm0,2.56h6.8v-1.2h-6.8Z"/><path class="cls-13" d="M399.25,571.43c-.56,1.68-1.28,3.8-1.9,5.38A6.22,6.22,0,0,1,399,581a2.86,2.86,0,0,1-.84,2.42,2.47,2.47,0,0,1-1.08.38,7.11,7.11,0,0,1-1.32,0,4,4,0,0,0-.42-1.6,6.13,6.13,0,0,0,1,0,1,1,0,0,0,.58-.18,1.61,1.61,0,0,0,.4-1.3,5.72,5.72,0,0,0-1.64-3.78,47.48,47.48,0,0,0,1.4-4.54H395v15.84h-1.64V570.79h4.42l.26-.06Zm6.48,7.9V581h4.12v1.38h-4.12v1.2h3.82V585h-3.82v1.38h5.1v1.48H398.47v-1.48H404V585h-3.4v-1.34H404v-1.2h-2.78a10.21,10.21,0,0,1-1.1,1.8,9.42,9.42,0,0,0-1.32-.86,10.09,10.09,0,0,0,1.88-3.86l1.54.32c-.12.42-.24.8-.4,1.22H404v-1.72h-2.82V578c-.62.22-1.24.38-1.86.54a6.2,6.2,0,0,0-.88-1.46,20.81,20.81,0,0,0,5-1.66,11.1,11.1,0,0,1-1.72-1.78,13,13,0,0,1-2,1.74,4.9,4.9,0,0,0-1.2-1.2,11,11,0,0,0,3.9-4.46l1.78.28a14,14,0,0,1-.72,1.3h4.78l.3-.06,1.12.64a10.89,10.89,0,0,1-3.3,3.6,17.07,17.07,0,0,0,4.86,1.48,7.77,7.77,0,0,0-1.06,1.46c-.5-.1-1-.22-1.48-.36v1.24Zm2.64-1.34a15.34,15.34,0,0,1-3.48-1.54,22.92,22.92,0,0,1-3.6,1.54Zm-5.52-5.26a8.12,8.12,0,0,0,2,1.9,10,10,0,0,0,2.24-1.9Z"/><path class="cls-13" d="M427.21,574.57V577h6.42v6.86c0,1-.2,1.54-.94,1.82a10.43,10.43,0,0,1-3.48.32,6.45,6.45,0,0,0-.66-1.82c1.2,0,2.4,0,2.72,0s.44-.1.44-.38v-5h-4.5v9.36h-1.94v-9.36H421v7.22h-1.88v-9h6.1v-2.48h-7.92v-1.82h8.28c-.32-.76-.78-1.7-1.18-2.44l1.82-.54a22.07,22.07,0,0,1,1.52,3h7.5v1.82Z"/><path class="cls-13" d="M372.71,545h-4.3v-1.72h4.3v-1.9h1.84v1.9h2.3V545h-2.3v2.06h-1.84Zm-2.56,2.8h14v11.92h-1.86v-.86h-10.4v.86h-1.78Zm1.78,1.68v2.92h4.2v-2.92Zm4.2,7.7v-3.1h-4.2v3.1Zm9.76-13.9V545h-4.42v2.06h-1.86V545h-2.14v-1.72h2.14v-1.9h1.86v1.9Zm-3.56,6.2h-4.4v2.92h4.4Zm0,7.7v-3.1h-4.4v3.1Z"/><path class="cls-13" d="M400,555.25a13.89,13.89,0,0,1-6.32,3.92,7.77,7.77,0,0,0-1.24-1.54,13.49,13.49,0,0,0,6-3Zm2.64-1v5.58h-1.88v-5.58h-7.84v-1.64h7.84v-1.46h1.88v1.46h7.94v1.64ZM398.51,544H393V542.4h17.36V544h-5.74v1.52h4.52v5.22h-15v-5.22h4.3Zm-2.56,5.2h2.56v-2.14h-2.56Zm7-5.2h-2.68v1.52h2.68Zm-2.68,5.2h2.68v-2.14h-2.68Zm4.7,5.32a39.86,39.86,0,0,1,5.84,3.48l-1.4,1.24a37.73,37.73,0,0,0-5.74-3.64Zm-.28-7.46v2.14h2.7v-2.14Z"/><path class="cls-13" d="M420.09,554.39a20.33,20.33,0,0,1-1.78,4.24,9.43,9.43,0,0,0-1.32-.76,15.61,15.61,0,0,0,1.62-3.84Zm2.4-1.14v6.36h-1.56v-6.36h-3.7v-1.48h.86v-9.68h7.06v9.68H426v1.48Zm-2.88-9.78v1.24h4v-1.24Zm4,2.44h-4v1.18h4Zm-4,3.46h4v-1.1h-4Zm0,2.4h4v-1.2h-4Zm4.74,2.14a16.66,16.66,0,0,1,1.42,3l-1.3.6a17.17,17.17,0,0,0-1.36-3.06ZM429,554a19.34,19.34,0,0,1-2.32,4.74,10.52,10.52,0,0,0-1.28-.8,14.28,14.28,0,0,0,2-4.34Zm4.26-11.42a28.27,28.27,0,0,1-6.88,2.76,6.3,6.3,0,0,0-.58-1.32,24,24,0,0,0,6.22-2.82Zm-1.94,10.16v5.6c0,.7-.12,1-.6,1.18a5.8,5.8,0,0,1-2.08.22,5.71,5.71,0,0,0-.44-1.2h1.3c.2,0,.24-.06.24-.24v-5.46a15.37,15.37,0,0,0-3.16.38,12.56,12.56,0,0,0-.48-1.48,5.08,5.08,0,0,0,1.86-1.06,32.87,32.87,0,0,0,2.62-2.26,16.72,16.72,0,0,0-3.88.46,9.48,9.48,0,0,0-.44-1.42,3.26,3.26,0,0,0,1.18-.56,16.52,16.52,0,0,0,3.22-2.76l1.36.7a22.14,22.14,0,0,1-2.74,2.26l2.76-.14c.48-.5.94-1,1.38-1.54l1.3.9a41.93,41.93,0,0,1-5.5,5.08l3.88-.2c-.32-.62-.68-1.24-1-1.76l1.26-.6a25.69,25.69,0,0,1,2.18,3.94l-1.36.7c-.1-.28-.22-.58-.38-.92Zm2,.7c.74,1.38,1.68,3.2,2.1,4.24l-1.46.7a38.47,38.47,0,0,0-2-4.34Z"/><path class="cls-13" d="M371.23,525.64a18.43,18.43,0,0,1-2,4,10.31,10.31,0,0,0-1.28-.88,12.35,12.35,0,0,0,1.84-3.58Zm2.58-1.3v6.78H372v-6.78h-3.84v-1.58H372v-1.82h-4v-1.56h2.18a10.08,10.08,0,0,0-.7-2.5l1.52-.38a12.52,12.52,0,0,1,.74,2.46l-1.48.42h3.16a20.68,20.68,0,0,0,1-2.9l1.72.36c-.34.88-.68,1.8-1,2.54h2.34v1.56h-3.68v1.82h3.4v1.58Zm3.36-7.88h-8.8v-1.54H372c-.22-.56-.48-1.2-.72-1.7l1.84-.48c.34.68.74,1.52,1,2.18h3ZM375.75,525a17.07,17.07,0,0,1,1.66,3l-1.3.78a20.91,20.91,0,0,0-1.6-3.1Zm10.52-3.8h-2v9.9h-1.82v-9.9h-2.34v.48c0,2.88-.26,6.88-2,9.42a6.3,6.3,0,0,0-1.42-1.1c1.58-2.32,1.72-5.7,1.72-8.32V514.8a30.82,30.82,0,0,0,6.12-1.62l1.46,1.36a32.82,32.82,0,0,1-5.84,1.48v3.5h6.2Z"/><path class="cls-13" d="M410.89,518.66h-2.82V528.9c0,1.1-.22,1.66-.94,2a9.42,9.42,0,0,1-3.42.36,7.48,7.48,0,0,0-.64-2c1.16,0,2.32,0,2.66,0s.44-.12.44-.42V518.66h-2.62a17.91,17.91,0,0,1-2,3.6,9.89,9.89,0,0,0-1.6-1.14,12.32,12.32,0,0,0,1.54-2.46h-3.08v12.58h-1.88V518.66h-.6a20.75,20.75,0,0,1-2,3.66,12.5,12.5,0,0,0-1.7-1.14,21.18,21.18,0,0,0,3.52-8.3l2,.4c-.3,1.2-.66,2.4-1.06,3.54h5v1.5a26.29,26.29,0,0,0,1.76-5.44l1.88.38c-.3,1.2-.64,2.4-1,3.56h6.62Z"/><path class="cls-13" d="M427.21,517.52V520h6.42v6.86c0,1-.2,1.54-.94,1.82a10.43,10.43,0,0,1-3.48.32,6.45,6.45,0,0,0-.66-1.82c1.2,0,2.4,0,2.72,0s.44-.1.44-.38v-5h-4.5v9.36h-1.94v-9.36H421V529h-1.88v-9h6.1v-2.48h-7.92V515.7h8.28c-.32-.76-.78-1.7-1.18-2.44l1.82-.54a22.07,22.07,0,0,1,1.52,3h7.5v1.82Z"/><path class="cls-13" d="M377.89,488c-.08.64-.18,1.26-.28,1.82h7.34v10.9c0,1-.26,1.46-1,1.72a11,11,0,0,1-3.44.28,7.29,7.29,0,0,0-.66-1.6c1.14.06,2.36,0,2.7,0s.46-.1.46-.42V491.5H371.17v11.18h-1.86v-12.9h6.5c.06-.54.16-1.18.22-1.82h-7.66v-1.74h7.84c.06-.66.1-1.3.12-1.86l2,.2c-.06.54-.14,1.1-.22,1.66h7.7V488Zm0,11v3.28h-1.76V499h-4v-1.5h4v-1.72h-3.6v-1.46h1.84a9.61,9.61,0,0,0-.94-2.22l1.46-.38a10.32,10.32,0,0,1,1,2.28l-1.06.32h3.28a22.66,22.66,0,0,0,1-2.66l1.68.38c-.34.78-.68,1.58-1,2.28h1.9v1.46h-3.78v1.72h4.16V499Z"/><path class="cls-13" d="M399,494.72c-.64.2-1.3.4-1.94.56v5.24c0,1-.2,1.44-.78,1.7a6.75,6.75,0,0,1-2.84.34,6.83,6.83,0,0,0-.54-1.68c.88,0,1.72,0,2,0s.4-.1.4-.4v-4.7l-2.32.64-.5-1.78c.8-.18,1.76-.42,2.82-.7v-4h-2.56v-1.72h2.56v-3.9H397v3.9h2.32V490H397v3.48l1.7-.46Zm10.6-1.24a12.65,12.65,0,0,1-3.68,5.76,16,16,0,0,0,5,1.8,8.71,8.71,0,0,0-1.18,1.72,15.87,15.87,0,0,1-5.38-2.34,19.08,19.08,0,0,1-5.64,2.34,5.84,5.84,0,0,0-.92-1.7,16.26,16.26,0,0,0,5.06-1.84,14,14,0,0,1-3.06-4.26l.5-.18h-1V493h8.8l.32-.06Zm-6.74-6.2a5.63,5.63,0,0,1-3.12,5.38,7.75,7.75,0,0,0-1.2-1.36,4.1,4.1,0,0,0,2.58-4.08v-2.16h6.58v4.48c0,.56,0,.78.36.78h1.34a4.48,4.48,0,0,0,1-.12c0,.48.08,1.14.14,1.56a3.91,3.91,0,0,1-1.16.12h-1.5c-1.62,0-2-.66-2-2.36v-2.74h-3.08Zm-1.28,7.5a10.57,10.57,0,0,0,2.8,3.38,10.86,10.86,0,0,0,2.76-3.38Z"/><path class="cls-13" d="M420.09,497.34a20.33,20.33,0,0,1-1.78,4.24,9.43,9.43,0,0,0-1.32-.76,15.61,15.61,0,0,0,1.62-3.84Zm2.4-1.14v6.36h-1.56V496.2h-3.7v-1.48h.86V485h7.06v9.68H426v1.48Zm-2.88-9.78v1.24h4v-1.24Zm4,2.44h-4V490h4Zm-4,3.46h4v-1.1h-4Zm0,2.4h4v-1.2h-4Zm4.74,2.14a16.66,16.66,0,0,1,1.42,3l-1.3.6a17.17,17.17,0,0,0-1.36-3.06Zm4.66.08a19.34,19.34,0,0,1-2.32,4.74,10.52,10.52,0,0,0-1.28-.8,14.28,14.28,0,0,0,2-4.34Zm4.26-11.42a28.27,28.27,0,0,1-6.88,2.76,6.3,6.3,0,0,0-.58-1.32,24,24,0,0,0,6.22-2.82Zm-1.94,10.16v5.6c0,.7-.12,1-.6,1.18a5.8,5.8,0,0,1-2.08.22,5.71,5.71,0,0,0-.44-1.2h1.3c.2,0,.24-.06.24-.24v-5.46a15.37,15.37,0,0,0-3.16.38,12.56,12.56,0,0,0-.48-1.48,5.08,5.08,0,0,0,1.86-1.06,32.87,32.87,0,0,0,2.62-2.26,16.72,16.72,0,0,0-3.88.46,9.48,9.48,0,0,0-.44-1.42,3.26,3.26,0,0,0,1.18-.56,16.52,16.52,0,0,0,3.22-2.76l1.36.7a22.14,22.14,0,0,1-2.74,2.26l2.76-.14c.48-.5.94-1,1.38-1.54l1.3.9a41.93,41.93,0,0,1-5.5,5.08l3.88-.2c-.32-.62-.68-1.24-1-1.76l1.26-.6a25.69,25.69,0,0,1,2.18,3.94l-1.36.7c-.1-.28-.22-.58-.38-.92Zm2,.7c.74,1.38,1.68,3.2,2.1,4.24l-1.46.7a38.47,38.47,0,0,0-2-4.34Z"/><path class="cls-13" d="M381.65,665.52c-.24.38-.44.74-.66,1.06h4.74V668H373.35c0,.4-.1.8-.16,1.16l3.78,0s0,.38,0,.6c-.22,2.08-.42,3-.82,3.44a1.6,1.6,0,0,1-1.16.46,17.32,17.32,0,0,1-2.06,0,3.79,3.79,0,0,0-.4-1.38,11.17,11.17,0,0,0,1.66.08c.28,0,.44,0,.56-.14a3.47,3.47,0,0,0,.46-1.72h-2.32c-.58,1.56-1.7,2.66-4,3.38a4.13,4.13,0,0,0-.88-1.24,4.8,4.8,0,0,0,3.18-2.14h-2.4v-1.36h2.84a10,10,0,0,0,.18-1.16h-3.28v-1.42h4.94a4.92,4.92,0,0,0-.68-1.12l1.12-.18h-3.34v-3.82h13.34v3.82h-3.46Zm4.2-8.76v1.4H378v1h6.5v1.34H369.83v-1.34h6.28v-1h-7.66v-1.4h7.66V655.5H378v1.26ZM372.19,664H382V662.7h-9.82Zm2.38,1.26a4.43,4.43,0,0,1,.74,1.22l-.4.08h4.16c.2-.42.44-.92.6-1.3Zm3.4,3.54h7v5h-1.74v-.52h-3.56v.56H378Zm1.66,1.32v1.8h3.56v-1.8Z"/><path class="cls-13" d="M409.19,668.84a10.55,10.55,0,0,1-2.54,2.32,3,3,0,0,0,2.12,1c.52,0,.66-.42.76-1.7a4,4,0,0,0,1.4.72c-.28,2.16-.86,2.68-2.26,2.68a4.75,4.75,0,0,1-3.56-1.74,25.27,25.27,0,0,1-4.26,1.72,8.15,8.15,0,0,0-1-1.48,19.53,19.53,0,0,0,4.3-1.5A11.81,11.81,0,0,1,403,668.2h-4.3v1.08L402,669v1.3c-1.1.1-2.22.2-3.3.28v1.5c0,.9-.2,1.3-.86,1.5a11,11,0,0,1-3.12.24,8,8,0,0,0-.54-1.46c1,.06,2.06.06,2.32,0s.4-.08.4-.36v-1.3l-4,.32-.16-1.44c1.14-.06,2.58-.14,4.16-.26v-1.2h-4.08v-1.42h4.08v-1.12c-1.16.12-2.32.2-3.4.24a4.47,4.47,0,0,0-.4-1.16,47,47,0,0,0,7.52-.92l1.1,1.12c-.88.22-1.92.38-3,.54v1.3h3.94a19.59,19.59,0,0,1-.36-2.76h1.8a14.84,14.84,0,0,0,.36,2.76h4a14.56,14.56,0,0,0-3.22-1.84l1-1.08a12.36,12.36,0,0,1,3.28,1.76l-1.06,1.16h2.1v1.42h-5.72a8.6,8.6,0,0,0,.82,1.78,7.71,7.71,0,0,0,1.88-1.68Zm1.36-5.1H392.89v-1.46h7.84v-1h-5.9v-1.34h5.9v-1h-7v-1.4h3.84a8.31,8.31,0,0,0-1-1.46l1.62-.54a7,7,0,0,1,1.32,2l-.1,0h4.44a18.06,18.06,0,0,0,1.06-2l2,.44c-.4.58-.78,1.14-1.14,1.6h3.82v1.4h-7.06v1h6v1.34h-6v1h7.92Z"/><path class="cls-13" d="M427.21,660.14v2.48h6.42v6.86c0,1-.2,1.54-.94,1.82a10.43,10.43,0,0,1-3.48.32,6.45,6.45,0,0,0-.66-1.82c1.2,0,2.4,0,2.72,0s.44-.1.44-.38v-5h-4.5v9.36h-1.94v-9.36H421v7.22h-1.88v-9h6.1v-2.48h-7.92v-1.82h8.28c-.32-.76-.78-1.7-1.18-2.44l1.82-.54a22.07,22.07,0,0,1,1.52,3h7.5v1.82Z"/><path class="cls-13" d="M380.37,629a35.13,35.13,0,0,1,5.26,5.8L384.07,636a15.81,15.81,0,0,0-1.16-1.64c-11,.58-12.28.62-13.18.94a17.42,17.42,0,0,0-.6-1.82,3.68,3.68,0,0,0,1.64-1.14,32,32,0,0,0,4.42-5.54l1.86.8a39.3,39.3,0,0,1-4.78,5.52l9.3-.38c-.86-1-1.78-1.92-2.64-2.72Zm-9.74,7.78h13v8.48h-2v-1h-9.1v1.06h-1.88Zm1.88,1.78v3.88h9.1V638.6Z"/><path class="cls-13" d="M409.77,630.47V640h-1.94V639h-5.2v6.36h-1.94V639h-5.18v1.18h-1.86v-9.66h7V627h1.94v3.48Zm-9.08,6.66v-4.84h-5.18v4.84Zm7.14,0v-4.84h-5.2v4.84Z"/><path class="cls-13" d="M427.21,631.62v2.48h6.42V641c0,1-.2,1.54-.94,1.82a10.43,10.43,0,0,1-3.48.32,6.45,6.45,0,0,0-.66-1.82c1.2,0,2.4,0,2.72,0s.44-.1.44-.38v-5h-4.5v9.36h-1.94v-9.36H421v7.22h-1.88v-9h6.1v-2.48h-7.92v-1.82h8.28c-.32-.76-.78-1.7-1.18-2.44l1.82-.54a22.07,22.07,0,0,1,1.52,3h7.5v1.82Z"/><path class="cls-13" d="M385.91,700.15v1.68h-17.6v-1.68H372V689.72h10v10.42Zm-15.32-9.48h-1.82v-4.42h7.68a11.42,11.42,0,0,0-.84-1.92l1.82-.44a9.69,9.69,0,0,1,1,2.28l-.32.08h7.32v4.42h-1.9v-2.74h-13Zm3.22.68v1.82h6.36v-1.82Zm6.36,3.36h-6.36v1.92h6.36Zm-6.36,5.44h6.36v-2h-6.36Z"/><path class="cls-13" d="M396.77,686.6h-3.82v-1.54h3.82v-1h1.82v1h2.68v1.54h-2.68v.94h-1.82Zm-1.24,6v9.8h-1.72v-14.5h7v4.7Zm0-3.58v.76h3.6V689Zm3.6,2.46v-.76h-3.6v.76Zm6.2,10.06c-.52-.46-2-1.5-3-2.16V702h-1.48v-2.58a12,12,0,0,1-3.7,2.18,6.59,6.59,0,0,0-1-1.14,11.84,11.84,0,0,0,3.68-1.66h-2.56v-3.76h3.56v-.68h-4.12v-1h4.12v-1h1.48v1h4.3v1h-4.3v.68h3.72v3.76h-2.78c1,.54,2.4,1.38,2.82,1.64Zm-6.76-3.72H401v-1.74h-2.46Zm1.22-1.6a9.7,9.7,0,0,1,.78,1.16l-.74.36c-.18-.34-.5-.86-.76-1.24Zm10.74-11.14v1.54h-3.78v.94h-1.84v-.94h-2.84v-1.54h2.84v-1h1.84v1Zm-5.72,11h-2.56v1.74h2.56Zm4.88,4.34c0,.84-.18,1.28-.72,1.54a5.75,5.75,0,0,1-2.46.3,5.67,5.67,0,0,0-.54-1.54c.72,0,1.4,0,1.64,0s.3-.08.3-.32v-7.8h-5.48v-4.72h7.26Zm-7-2.94c.26-.4.62-.94.8-1.28l.82.38c-.34.46-.68.88-1,1.22Zm1.42-8.44v.74h3.8V689Zm3.8,2.44v-.74h-3.8v.74Z"/><path class="cls-13" d="M420.09,697a20.33,20.33,0,0,1-1.78,4.24,9.43,9.43,0,0,0-1.32-.76,15.61,15.61,0,0,0,1.62-3.84Zm2.4-1.14v6.36h-1.56v-6.36h-3.7v-1.48h.86V684.7h7.06v9.68H426v1.48Zm-2.88-9.78v1.24h4v-1.24Zm4,2.44h-4v1.18h4Zm-4,3.46h4v-1.1h-4Zm0,2.4h4v-1.2h-4Zm4.74,2.14a16.66,16.66,0,0,1,1.42,3l-1.3.6a17.17,17.17,0,0,0-1.36-3.06Zm4.66.08a19.34,19.34,0,0,1-2.32,4.74,10.52,10.52,0,0,0-1.28-.8,14.28,14.28,0,0,0,2-4.34Zm4.26-11.42a28.27,28.27,0,0,1-6.88,2.76,6.3,6.3,0,0,0-.58-1.32A24,24,0,0,0,432,683.8Zm-1.94,10.16v5.6c0,.7-.12,1-.6,1.18a5.8,5.8,0,0,1-2.08.22,5.71,5.71,0,0,0-.44-1.2h1.3c.2,0,.24-.06.24-.24v-5.46a15.37,15.37,0,0,0-3.16.38,12.56,12.56,0,0,0-.48-1.48,5.08,5.08,0,0,0,1.86-1.06,32.87,32.87,0,0,0,2.62-2.26,16.72,16.72,0,0,0-3.88.46,9.48,9.48,0,0,0-.44-1.42,3.26,3.26,0,0,0,1.18-.56,16.52,16.52,0,0,0,3.22-2.76l1.36.7a22.14,22.14,0,0,1-2.74,2.26l2.76-.14c.48-.5.94-1,1.38-1.54l1.3.9a41.93,41.93,0,0,1-5.5,5.08l3.88-.2c-.32-.62-.68-1.24-1-1.76l1.26-.6a25.69,25.69,0,0,1,2.18,3.94l-1.36.7c-.1-.28-.22-.58-.38-.92Zm2,.7c.74,1.38,1.68,3.2,2.1,4.24l-1.46.7a38.47,38.47,0,0,0-2-4.34Z"/><line class="cls-14" x1="37.61" y1="104" x2="1843.61" y2="104"/><line class="cls-14" x1="37.61" y1="133.5" x2="1843.61" y2="133.5"/><line class="cls-14" x1="37.61" y1="161.5" x2="1843.61" y2="161.5"/><line class="cls-14" x1="37.61" y1="189.5" x2="1843.61" y2="189.5"/><line class="cls-14" x1="37.61" y1="275.5" x2="1843.61" y2="275.5"/><line class="cls-14" x1="37.61" y1="217.5" x2="1843.61" y2="217.5"/><line class="cls-14" x1="37.61" y1="246.5" x2="1843.61" y2="246.5"/><line class="cls-14" x1="37.61" y1="474.5" x2="1843.61" y2="474.5"/><line class="cls-14" x1="37.61" y1="303.5" x2="1843.61" y2="303.5"/><line class="cls-14" x1="37.61" y1="332.5" x2="1843.61" y2="332.5"/><line class="cls-14" x1="37.61" y1="361.5" x2="1843.61" y2="361.5"/><line class="cls-14" x1="37.61" y1="389.5" x2="1843.61" y2="389.5"/><line class="cls-14" x1="37.61" y1="418.5" x2="1843.61" y2="418.5"/><line class="cls-14" x1="37.61" y1="445.5" x2="1843.61" y2="445.5"/><line class="cls-14" x1="37.61" y1="502.5" x2="1843.61" y2="502.5"/><line class="cls-14" x1="37.61" y1="531.5" x2="1843.61" y2="531.5"/><line class="cls-14" x1="37.61" y1="560.5" x2="1843.61" y2="560.5"/><line class="cls-14" x1="37.61" y1="588.5" x2="1843.61" y2="588.5"/><line class="cls-14" x1="37.61" y1="617.5" x2="1843.61" y2="617.5"/><line class="cls-14" x1="37.61" y1="645.5" x2="1843.61" y2="645.5"/><line class="cls-14" x1="37.61" y1="674.5" x2="1843.61" y2="674.5"/><line class="cls-14" x1="42.5" y1="702.5" x2="1843.61" y2="703.5"/><path class="cls-2" d="M153.21,54.27c0-4.8,2.92-7.68,6.64-7.68A5.67,5.67,0,0,1,164,48.45l-1.26,1.48a3.92,3.92,0,0,0-2.88-1.32c-2.54,0-4.3,2.12-4.3,5.58s1.64,5.64,4.24,5.64a4.29,4.29,0,0,0,3.26-1.56l1.24,1.46a5.81,5.81,0,0,1-4.58,2.12C156.05,61.85,153.21,59.09,153.21,54.27Z"/><path class="cls-2" d="M171.53,46.87H176c3.28,0,5.62,1.12,5.62,4.44s-2.34,4.7-5.54,4.7h-2.22v5.58h-2.32Zm4.32,7.28c2.36,0,3.48-.9,3.48-2.84s-1.22-2.58-3.56-2.58h-1.92v5.42Z"/><path class="cls-2" d="M194,45.39a35.28,35.28,0,0,1-2,4.42V63.17h-1.72V52.61a20.27,20.27,0,0,1-1.46,1.84,9.54,9.54,0,0,0-1-1.9,22,22,0,0,0,4.46-7.68Zm12.3,15.72v1.58H192.93V61.11h1.84V50h3.42c.1-.48.22-1.06.32-1.64h-4.7v-1.6h4.94c.1-.68.18-1.34.22-1.92l2,.08c-.1.58-.22,1.22-.34,1.84h5.14v1.6h-5.46c-.12.58-.26,1.16-.4,1.64h4.74v11.1Zm-9.82-9.7v1.42h6.46V51.41Zm6.46,2.76h-6.46v1.42h6.46Zm-6.46,2.72v1.46h6.46V56.89Zm0,4.22h6.46V59.67h-6.46Z"/><path class="cls-2" d="M218.43,56.83q-.09-.48-.24-1.08c-4,.78-4.66,1-5,1.2a8.74,8.74,0,0,0-.56-1.56c.46-.1.9-.6,1.48-1.32a19.34,19.34,0,0,0,1.5-2.14,9.59,9.59,0,0,0-2.56.48c-.1-.34-.36-1.14-.54-1.58.34-.1.66-.5,1-1.1a22.76,22.76,0,0,0,2.3-5l1.66.68a30.17,30.17,0,0,1-2.76,5.16l1.78-.14a26.86,26.86,0,0,0,1.4-2.72l1.52.8a39.48,39.48,0,0,1-4.22,6.36l2.62-.46a15,15,0,0,0-.5-1.52l1.28-.36a26.26,26.26,0,0,1,1.2,3.82ZM215,57.91a23.36,23.36,0,0,1-1.1,4.8,8.28,8.28,0,0,0-1.3-.48,18,18,0,0,0,1-4.56Zm1.78-.3a34.21,34.21,0,0,1,.54,4.18l-1.32.32a37.36,37.36,0,0,0-.48-4.22Zm1.82-.46a27,27,0,0,1,.84,3.32l-1.28.4a24.28,24.28,0,0,0-.78-3.36Zm.46,4.5a16.32,16.32,0,0,0,1.38-4.22l1.3.48a20.11,20.11,0,0,1-1.34,4.36ZM230,56.13h-9.54V46.69h2.86a16.32,16.32,0,0,0,.64-2l1.9.32c-.3.58-.62,1.18-.86,1.68h5Zm-3.4,5.26c.56,0,.68-.26.76-2a3.86,3.86,0,0,0,1.38.58c-.18,2.18-.6,2.74-2,2.74h-2.62c-1.72,0-2.14-.42-2.14-1.88V57.47h1.56v3.38c0,.46.1.54.78.54Zm1.72-13.2H222v6.42h6.24Zm-1.28,6a13.74,13.74,0,0,0-1.08-1.5,14.94,14.94,0,0,1-2.38,1.8,3.07,3.07,0,0,0-.76-.84,12.15,12.15,0,0,0,2.4-1.8,7.78,7.78,0,0,0-.68-.74,10.82,10.82,0,0,1-1.62,1.26,2.78,2.78,0,0,0-.78-.82,8.65,8.65,0,0,0,1.62-1.24c-.36-.36-.74-.7-1.12-1l1-.62a11.42,11.42,0,0,1,.94.8,5.07,5.07,0,0,0,.7-1.06l1.2.2a10,10,0,0,1-1.1,1.62l.7.7a7.83,7.83,0,0,0,1-1.38l1.22.22a14.93,14.93,0,0,1-1.42,2A14.54,14.54,0,0,1,228,53.41ZM226.05,60c-.4-.8-1.2-2.16-1.82-3.18l1.2-.56c.62,1,1.48,2.28,1.88,3Zm3.2-2.7c.64,1.3,1.36,3,1.74,4l-1.36.62A43.79,43.79,0,0,0,228,57.83Z"/><path class="cls-2" d="M250.07,45.15a12.69,12.69,0,0,0,5.68,7.3,8.09,8.09,0,0,0-1.34,1.7,12.51,12.51,0,0,1-1.82-1.44c0,.12,0,.26,0,.34-.26,6.08-.52,8.4-1.22,9.18a2.19,2.19,0,0,1-1.64.82,22.4,22.4,0,0,1-3.1,0,4.5,4.5,0,0,0-.6-1.88c1.2.12,2.34.14,2.82.14a1,1,0,0,0,.84-.28c.46-.48.72-2.36.92-7H246c-.52,3.88-1.82,7.4-6.94,9.28a5.68,5.68,0,0,0-1.2-1.66c4.62-1.54,5.68-4.44,6.12-7.62h-3.76V52.63a14.88,14.88,0,0,1-1.64,1.56A11.87,11.87,0,0,0,237,52.81a14.25,14.25,0,0,0,5.06-7.32l1.94.46a19.47,19.47,0,0,1-3.42,6.26h11.52a16.76,16.76,0,0,1-3.4-5.34h-3.36V45.15Z"/><rect class="cls-1" x="411" y="165" width="31" height="24"/><path class="cls-12" d="M426.7,174.72v2.48h6.42v6.86c0,1-.2,1.54-.94,1.82a10.43,10.43,0,0,1-3.48.32,6.45,6.45,0,0,0-.66-1.82c1.2,0,2.4,0,2.72,0s.44-.1.44-.38v-5h-4.5v9.36h-1.94V179h-4.22v7.22h-1.88v-9h6.1v-2.48h-7.92V172.9h8.28c-.32-.76-.78-1.7-1.18-2.44l1.82-.54a22.13,22.13,0,0,1,1.52,3h7.5v1.82Z"/></g><g id="分數標"><text class="cls-15" transform="translate(45.93 103.38)">53</text><text class="cls-15" transform="translate(56.93 132.38)">50</text><text class="cls-15" transform="translate(69.93 160.38)">47</text><text class="cls-15" transform="translate(87.93 188.38)">43</text><text class="cls-15" transform="translate(87.93 216.38)">43</text><text class="cls-15" transform="translate(95.93 245.38)">41</text><text class="cls-15" transform="translate(104.93 330.38)">39</text><text class="cls-15" transform="translate(100.93 301.38)">40</text><text class="cls-15" transform="translate(100.93 274.38)">40</text><text class="cls-15" transform="translate(122.93 417.38)">35</text><text class="cls-15" transform="translate(122.93 387.38)">35</text><text class="cls-15" transform="translate(109.93 359.38)">38</text><text class="cls-15" transform="translate(155.93 529.38)">27</text><text class="cls-15" transform="translate(144.93 500.38)">29</text><text class="cls-15" transform="translate(136.93 472.38)">32</text><text class="cls-15" transform="translate(127.93 443.38)">34</text><text class="cls-15" transform="translate(155.93 558.38)">27</text><text class="cls-15" transform="translate(172.93 616.38)">23</text><text class="cls-15" transform="translate(161.93 586.38)">25</text><text class="cls-15" transform="translate(178.93 643.38)">22</text><text class="cls-15" transform="translate(188.93 672.38)">18</text><text class="cls-15" transform="translate(194.93 700.38)">17</text><text class="cls-16" transform="translate(669.93 101.57) scale(0.88 1)">1.11</text><text class="cls-16" transform="translate(648.93 244.57) scale(0.88 1)">0.93</text><text class="cls-16" transform="translate(754.93 215.57) scale(0.88 1)">1.79</text><text class="cls-16" transform="translate(874.93 187.57) scale(0.88 1)">2.77</text><text class="cls-16" transform="translate(725.93 158.57) scale(0.88 1)">1.58</text><text class="cls-16" transform="translate(658.93 130.57) scale(0.88 1)">1.03</text><text class="cls-16" transform="translate(804.93 273.57) scale(0.88 1)">2.19</text><text class="cls-16" transform="translate(782.93 415.57) scale(0.88 1)">2.04</text><text class="cls-16" transform="translate(662.93 388.57) scale(0.88 1)">1.05</text><text class="cls-16" transform="translate(731.93 359.57) scale(0.88 1)">1.61</text><text class="cls-16" transform="translate(682.93 330.57) scale(0.88 1)">1.22</text><text class="cls-16" transform="translate(874.93 301.57) scale(0.88 1)">2.7</text><text class="cls-16" transform="translate(650.93 700.57) scale(0.88 1)">0.94</text><text class="cls-16" transform="translate(600.93 672.57) scale(0.88 1)">0.54</text><text class="cls-16" transform="translate(691.93 643.57) scale(0.88 1)">1.2</text><text class="cls-16" transform="translate(627.93 615.57) scale(0.88 1)">0.7</text><text class="cls-16" transform="translate(648.93 586.57) scale(0.88 1)">0.93</text><text class="cls-16" transform="translate(713.93 558.57) scale(0.88 1)">1.45</text><text class="cls-16" transform="translate(782.93 529.57) scale(0.88 1)">2.01</text><text class="cls-16" transform="translate(662.93 500.57) scale(0.88 1)">1.05</text><text class="cls-16" transform="translate(734.93 472.57) scale(0.88 1)">1.61</text><text class="cls-16" transform="translate(680.93 443.57) scale(0.88 1)">1</text><text class="cls-16" transform="translate(1090.93 700.57) scale(0.88 1)">18.1</text><text class="cls-16" transform="translate(1053.93 358.57) scale(0.88 1)">13.4</text><text class="cls-16" transform="translate(1062.93 386.57) scale(0.88 1)">14.8</text><text class="cls-16" transform="translate(1090.93 415.57) scale(0.88 1)">18.5</text><text class="cls-16" transform="translate(1175.93 443.57) scale(0.88 1)">29.8</text><text class="cls-16" transform="translate(1031.93 472.57) scale(0.88 1)">9.3</text><text class="cls-16" transform="translate(1060.93 500.57) scale(0.88 1)">15.43</text><text class="cls-16" transform="translate(1103.93 529.57) scale(0.88 1)">20.1</text><text class="cls-16" transform="translate(1065.93 558.57) scale(0.88 1)">15.2</text><text class="cls-16" transform="translate(1072.93 585.57) scale(0.88 1)">16.3</text><text class="cls-16" transform="translate(1077.93 614.57) scale(0.88 1)">16.6</text><text class="cls-16" transform="translate(1103.93 643.57) scale(0.88 1)">20.4</text><text class="cls-16" transform="translate(1067.93 672.57) scale(0.88 1)">15.2</text><text class="cls-16" transform="translate(1031.93 243.57) scale(0.88 1)">9.1</text><text class="cls-16" transform="translate(1043.93 273.57) scale(0.88 1)">12.1</text><text class="cls-16" transform="translate(1390.93 300.57) scale(0.88 1)">58.5</text><text class="cls-16" transform="translate(1094.93 328.57) scale(0.88 1)">19.3</text><text class="cls-16" transform="translate(1015.93 100.57) scale(0.88 1)">6.9</text><text class="cls-16" transform="translate(989.93 130.57) scale(0.88 1)">2.8</text><text class="cls-16" transform="translate(1031.93 158.57) scale(0.88 1)">9.3</text><text class="cls-16" transform="translate(1068.93 187.57) scale(0.88 1)">16.93</text><text class="cls-16" transform="translate(1072.93 215.57) scale(0.88 1)">16.4</text><text class="cls-16" transform="translate(1638.93 102.57) scale(0.88 1)">12537</text><text class="cls-16" transform="translate(1578.93 216.57) scale(0.88 1)">8753</text><text class="cls-16" transform="translate(1546.93 188.57) scale(0.88 1)">7074</text><text class="cls-16" transform="translate(1543.93 160.57) scale(0.88 1)">6896</text><text class="cls-16" transform="translate(1797.93 132.57) scale(0.88 1)">21274</text><text class="cls-16" transform="translate(1531.93 329.57) scale(0.88 1)">6213</text><text class="cls-16" transform="translate(1597.93 300.57) scale(0.88 1)">9828</text><text class="cls-16" transform="translate(1536.93 272.57) scale(0.88 1)">6468</text><text class="cls-16" transform="translate(1596.93 244.57) scale(0.88 1)">9734</text><text class="cls-16" transform="translate(1531.93 359.57) scale(0.88 1)">6171</text><text class="cls-16" transform="translate(1511.93 500.57) scale(0.88 1)">5105</text><text class="cls-16" transform="translate(1519.93 472.57) scale(0.88 1)">5619</text><text class="cls-16" transform="translate(1527.93 443.57) scale(0.88 1)">5984</text><text class="cls-16" transform="translate(1602.93 415.57) scale(0.88 1)">10596</text><text class="cls-16" transform="translate(1514.93 387.57) scale(0.88 1)">5304</text><text class="cls-16" transform="translate(1520.93 672.57) scale(0.88 1)">5615</text><text class="cls-16" transform="translate(1525.93 643.57) scale(0.88 1)">5915</text><text class="cls-16" transform="translate(1545.93 614.57) scale(0.88 1)">7012</text><text class="cls-16" transform="translate(1535.93 586.57) scale(0.88 1)">6471</text><text class="cls-16" transform="translate(1488.93 558.57) scale(0.88 1)">3943</text><text class="cls-16" transform="translate(1521.93 529.57) scale(0.88 1)">5759</text><text class="cls-16" transform="translate(1514.93 701.57) scale(0.88 1)">5356</text></g></svg>