<svg xmlns="http://www.w3.org/2000/svg" viewBox="0 0 1090.11 657.05"><defs><style>.cls-1,.cls-2{fill:none;}.cls-1{stroke:#000;stroke-miterlimit:10;}.cls-3,.cls-5{fill:#e61a1e;}.cls-4{fill:#d6d6d6;}.cls-5,.cls-6{font-size:19px;font-family:NotoSansCJKtc-Regular-B5pc-H, Noto Sans CJK TC;}.cls-7{font-size:15px;font-family:NotoSansCJKtc-Bold-B5pc-H, Noto Sans CJK TC;font-weight:700;}</style></defs><title>Asset 1</title><g id="Layer_2" data-name="Layer 2"><g id="Layer_1-2" data-name="Layer 1"><path class="cls-1" d="M1068.28,92.94"/><path class="cls-1" d="M167.86,92.94"/><line class="cls-2" x1="167.86" y1="642.81" x2="167.86" y2="92.94"/><rect class="cls-3" x="167.86" y="103.44" width="103.55" height="4"/><rect class="cls-3" x="167.86" y="128.43" width="41.57" height="4"/><rect class="cls-4" x="167.86" y="153.43" width="139.57" height="4"/><rect class="cls-4" x="167.86" y="178.42" width="254.07" height="4"/><rect class="cls-4" x="167.86" y="203.41" width="246.12" height="4"/><rect class="cls-3" x="167.86" y="228.41" width="136.56" height="4"/><rect class="cls-4" x="167.86" y="253.4" width="181.59" height="4"/><rect class="cls-4" x="167.86" y="278.4" width="877.91" height="4"/><rect class="cls-4" x="167.86" y="303.39" width="289.64" height="4"/><rect class="cls-4" x="167.86" y="328.38" width="201.09" height="4"/><rect class="cls-3" x="167.86" y="353.38" width="222.1" height="4"/><rect class="cls-4" x="167.86" y="378.37" width="277.63" height="4"/><rect class="cls-3" x="167.86" y="403.37" width="447.21" height="4"/><rect class="cls-4" x="167.86" y="428.36" width="139.57" height="4"/><rect class="cls-4" x="167.86" y="453.35" width="231.56" height="4"/><rect class="cls-3" x="167.86" y="478.35" width="301.64" height="4"/><rect class="cls-3" x="167.86" y="503.34" width="228.11" height="4"/><rect class="cls-4" x="167.86" y="528.34" width="244.61" height="4"/><rect class="cls-4" x="167.86" y="553.33" width="249.12" height="4"/><rect class="cls-4" x="167.86" y="578.32" width="306.14" height="4"/><rect class="cls-4" x="167.86" y="603.32" width="228.11" height="4"/><rect class="cls-3" x="167.86" y="628.31" width="271.63" height="4"/><text class="cls-5" transform="translate(88.28 637.14)">宜 蘭 縣</text><text class="cls-6" transform="translate(88.28 612.15)">嘉 義 市</text><text class="cls-6" transform="translate(88.28 587.15)">臺 中 市</text><text class="cls-6" transform="translate(88.28 562.16)">花 蓮 縣</text><text class="cls-6" transform="translate(88.28 537.16)">基 隆 市</text><text class="cls-5" transform="translate(88.28 512.17)">苗 栗 縣</text><text class="cls-5" transform="translate(88.28 487.18)">新 竹 市</text><text class="cls-6" transform="translate(88.28 462.18)">彰 化 縣</text><text class="cls-6" transform="translate(88.28 437.19)">屏 東 縣</text><text class="cls-5" transform="translate(88.28 412.19)">新 北 市</text><text class="cls-6" transform="translate(88.28 387.2)">金 門 縣</text><text class="cls-5" transform="translate(88.28 362.21)">臺 南 市</text><text class="cls-6" transform="translate(88.28 337.21)">南 投 縣</text><text class="cls-6" transform="translate(88.28 312.22)">新 竹 縣</text><text class="cls-6" transform="translate(88.28 287.22)">臺 北 市</text><text class="cls-6" transform="translate(88.28 262.23)">雲 林 縣</text><text class="cls-5" transform="translate(88.28 237.24)">臺 東 縣</text><text class="cls-6" transform="translate(88.28 212.24)">高 雄 市</text><text class="cls-6" transform="translate(88.28 187.25)">桃 園 市</text><text class="cls-6" transform="translate(88.28 162.25)">嘉 義 縣</text><text class="cls-5" transform="translate(88.28 137.26)">連 江 縣</text><text class="cls-5" transform="translate(88.28 112.27)">澎 湖 縣</text><path d="M23,19.85v2.92H.52V19.85h9.65v-5H3.4V11.95h6.77V7.55H5a20.59,20.59,0,0,1-2.32,3.62A23.57,23.57,0,0,0,0,9.4,21.5,21.5,0,0,0,4.42.45l3.07.67c-.35,1.2-.75,2.37-1.17,3.52h3.85V.15H13.3v4.5h8.42v2.9H13.3v4.4h7.47v2.87H13.3v5Z"/><path d="M29.8,12.17c-1-.73-3.17-1.9-4.65-2.7l1.6-2.2c1.37.67,3.6,1.75,4.7,2.42Zm-4.3,9a73.83,73.83,0,0,0,4.75-7.87l2.17,2c-1.32,2.62-2.9,5.47-4.42,7.9ZM30.87,5.35A51.75,51.75,0,0,0,26.32,2.6L28,.45c1.4.7,3.57,1.8,4.65,2.5Zm11.07,4.87v3.15H47v10H44.22v-.9H36.7v1H34V13.37h5.1V10.22H32.47V7.37h6.65V4.45c-1.65.25-3.3.42-4.87.57a10.44,10.44,0,0,0-.82-2.55A49.19,49.19,0,0,0,45.1.13l2.3,2.35a31.94,31.94,0,0,1-5.45,1.47V7.37h6.35v2.85Zm2.27,5.85H36.7v3.67h7.52Z"/><path d="M50.55,12.12c0-6.1,3.92-9.67,8.6-9.67a7.54,7.54,0,0,1,5.42,2.37L62.62,7.17a4.77,4.77,0,0,0-3.4-1.55c-2.8,0-4.9,2.4-4.9,6.37s1.9,6.45,4.82,6.45A5.14,5.14,0,0,0,63,16.62l1.95,2.3A7.48,7.48,0,0,1,59,21.65C54.35,21.65,50.55,18.3,50.55,12.12Z"/><path d="M67.9,2.8H74c4.1,0,7.25,1.42,7.25,5.8,0,4.22-3.17,6.12-7.15,6.12H71.6v6.57H67.9Zm5.92,9c2.55,0,3.77-1.07,3.77-3.2s-1.35-2.87-3.9-2.87H71.6V11.8Z"/><path d="M90.95,1.1a40.15,40.15,0,0,1-2.4,5.45v16.9H85.8V11c-.45.57-.92,1.15-1.37,1.67a18.88,18.88,0,0,0-1.55-3.1A26.83,26.83,0,0,0,88.27.2Zm15.47,19.4V23H89.6V20.5h2.15V6.65h4.32c.1-.52.2-1.1.3-1.7H90.7V2.4h6c.08-.8.15-1.52.2-2.22l3.15.1c-.1.7-.25,1.4-.37,2.12h6.15V4.95H99.17c-.15.63-.27,1.17-.43,1.7h5.77V20.5Zm-12-11.67V10.2h7.4V8.82Zm7.4,3.42h-7.4v1.37h7.4Zm-7.4,3.37V17h7.4V15.62Zm0,4.87h7.4V19.1h-7.4Z"/><path d="M116,13.27c-.8.25-1.6.5-2.4.72v6.32c0,1.37-.22,2.12-1,2.6a6.48,6.48,0,0,1-3.47.55,12.16,12.16,0,0,0-.72-2.75,19.77,19.77,0,0,0,2,0c.3,0,.42-.1.42-.42V14.8c-.82.25-1.65.48-2.37.67l-.65-2.85c.85-.17,1.9-.45,3-.72V7.57H108.3V4.85h2.62V.15h2.7v4.7h2.27V7.57h-2.27v3.6l2-.57ZM119.92.13h2.65V10.65c0,5-.52,9.7-4.87,12.82a15.79,15.79,0,0,0-2.12-2,9,9,0,0,0,3.4-4.22c-1,.42-2,.8-2.92,1.15l-1.12-2.57c1.25-.32,3-.85,4.8-1.42.1-.77.15-1.57.18-2.37h-3.45V9.45h3.47V6.87h-3.7V4.2h3.7Zm11.52,17.35h-4.32v6h-2.8V.13h2.8V4.2H131V6.87h-3.9V9.45h3.65V12h-3.65V14.8h4.32Z"/><path d="M153.72,23.47h-3.07v-1.1h-9.37v1.1h-3V15.72c-1.22.42-2.45.75-3.7,1A11,11,0,0,0,133.07,14a35.3,35.3,0,0,0,8.7-2.92,49.8,49.8,0,0,0-3.92-3.37A19.48,19.48,0,0,1,135.6,9a11,11,0,0,0-2-2.37A18.74,18.74,0,0,0,141.9,0l3.32.7c-.45.62-.9,1.25-1.4,1.87h7.3l.5-.15,2,1.23a21.12,21.12,0,0,1-8,8.62h8.07ZM141.2,5.27c-.33.27-.62.52-.95.77a45.77,45.77,0,0,1,4.27,3.45,18.62,18.62,0,0,0,4.67-4.22Zm9.45,14.42V15h-9.37V19.7Z"/><text class="cls-7" transform="translate(457.09 385.47)">18.5</text><text class="cls-7" transform="translate(360.6 259.47)">12.1</text><text class="cls-7" transform="translate(421.6 210.46)">16.4</text><text class="cls-7" transform="translate(379.84 335.45)">13.4</text><text class="cls-7" transform="translate(424.73 560.45)">16.6</text><text class="cls-7" transform="translate(221.52 134.5)">2.7</text><text class="cls-7" transform="translate(284.12 109.49)">6.9</text><text class="cls-7" transform="translate(316.5 234.49)">9.1</text><text class="cls-7" transform="translate(319.62 159.48)">9.3</text><text class="cls-7" transform="translate(318.49 435.48)">9.3</text><text class="cls-7" transform="translate(420.08 535.44)">16.3</text><text class="cls-7" transform="translate(406.09 610.43)">15.2</text><text class="cls-7" transform="translate(400.12 360.43)">14.8</text><text class="cls-7" transform="translate(409.11 459.42)">15.4</text><text class="cls-7" transform="translate(467.58 310.42)">19.3</text><text class="cls-7" transform="translate(619.19 510.41)">18.1</text><text class="cls-7" transform="translate(485.95 585.41)">20.4</text><text class="cls-7" transform="translate(481.59 485.4)">20.1</text><text class="cls-7" transform="translate(406.09 510.4)">15.2</text><text class="cls-7" transform="translate(626.16 409.39)">29.8</text><text class="cls-7" transform="translate(1058.73 285.39)">58.5</text><text class="cls-7" transform="translate(64.12 109.87)">1</text><text class="cls-7" transform="translate(64.12 134.9)">2</text><text class="cls-7" transform="translate(64.12 159.93)">3</text><text class="cls-7" transform="translate(64.12 184.96)">4</text><text class="cls-7" transform="translate(64.12 209.99)">5</text><text class="cls-7" transform="translate(64.12 235.02)">6</text><text class="cls-7" transform="translate(64.12 260.05)">7</text><text class="cls-7" transform="translate(64.12 285.08)">8</text><text class="cls-7" transform="translate(64.12 310.11)">9</text><text class="cls-7" transform="translate(59.71 335.14)">10</text><text class="cls-7" transform="translate(59.71 360.17)">11</text><text class="cls-7" transform="translate(59.71 385.2)">12</text><text class="cls-7" transform="translate(59.71 410.23)">13</text><text class="cls-7" transform="translate(59.71 435.26)">14</text><text class="cls-7" transform="translate(59.71 460.29)">15</text><text class="cls-7" transform="translate(59.71 485.32)">16</text><text class="cls-7" transform="translate(59.71 510.35)">17</text><text class="cls-7" transform="translate(59.71 535.38)">18</text><text class="cls-7" transform="translate(59.71 560.42)">19</text><text class="cls-7" transform="translate(59.71 585.45)">20</text><text class="cls-7" transform="translate(59.71 610.48)">21</text><text class="cls-7" transform="translate(59.71 635.51)">22</text><rect class="cls-3" x="141.36" y="42.24" width="13" height="13"/><rect class="cls-4" x="118.36" y="42.24" width="13" height="13"/><path d="M18.71,50.57c0,.63-.08,1.15-.12,1.63h1.68v1.56H18.41A3,3,0,0,1,18,55a1.63,1.63,0,0,1-1.25.7,10.6,10.6,0,0,1-2,0,3.45,3.45,0,0,0-.43-1.37,13.09,13.09,0,0,0,1.58.06.5.5,0,0,0,.52-.24,1.43,1.43,0,0,0,.18-.42H8.55c.18-.89.36-2,.54-3.19H7V49H9.32c.12-.9.22-1.83.31-2.65-.37.45-.73.89-1.11,1.26a13.35,13.35,0,0,0-1.61-1,13.43,13.43,0,0,0,3.45-4.89l1.77.51c-.13.3-.29.62-.43.93h8.65v1.59H10.77c-.25.4-.51.78-.78,1.15h8.88s0,.57,0,.78c0,.87-.06,1.63-.09,2.35h2.16v1.59Zm-7.83-.06c-.09.6-.17,1.15-.25,1.69h3.29a10.43,10.43,0,0,0-1.79-1.11l.6-.58Zm.41-3.1c-.06.54-.14,1.08-.21,1.63h3a9.33,9.33,0,0,0-1.74-1l.61-.6Zm5.56,4.8c0-.48.08-1,.11-1.69H13.83a10.16,10.16,0,0,1,1.75,1.18l-.51.51ZM17,49c0-.51,0-1,.06-1.63H14a9.87,9.87,0,0,1,1.71,1.13l-.51.51Z"/><path d="M36,50.85H32.18v4.89H30.39V50.85H26.64L26.85,52c-1.48.61-3.06,1.21-4.35,1.71l-.63-1.83c.5-.14,1.08-.3,1.74-.51v-4.5H22.16V45.18h1.46V41.93h1.62v3.25h1.27v1.69H25.23v4l1.33-.45.06.34v-1.6h3.76v-5H27V42.42h8.55v1.69H32.18v5H36Zm-7.21-6.12a19.65,19.65,0,0,1,.78,3.45l-1.5.39a19.26,19.26,0,0,0-.71-3.5Zm4.16,3.44a23,23,0,0,0,.82-3.54L35.4,45c-.36,1.26-.76,2.67-1.12,3.57Z"/><path d="M44.6,50.69c0,.29-.09.54-.15.79h4.86s0,.41,0,.62c-.15,1.84-.36,2.74-.74,3.12a1.73,1.73,0,0,1-1.21.47,13.1,13.1,0,0,1-2,0,3.31,3.31,0,0,0-.46-1.48,16.36,16.36,0,0,0,1.65.09.77.77,0,0,0,.51-.13c.17-.15.29-.56.39-1.35H44c-.6,1.27-1.69,2.25-3.85,2.91a4.93,4.93,0,0,0-.95-1.38,6.79,6.79,0,0,1-1,1.54,8.08,8.08,0,0,0-1.27-1.3c1.6-1.92,1.75-4.71,1.75-6.87V42.87a66,66,0,0,0,9.63-1.11l1.36,1.32a60.74,60.74,0,0,1-9.22,1.11v.46h9.42v3.6H45.69a10.85,10.85,0,0,1,.48,1h4.56v1.4Zm-4.35,0a12.78,12.78,0,0,1-1,3.66c2.67-.74,3.33-2,3.58-3.66Zm4-1.4a7.44,7.44,0,0,0-.33-.76l1.46-.27H40.43l0,1ZM40.43,46v.88h7.67V46Z"/><path d="M56.28,42.24a29.13,29.13,0,0,1-1.14,2.91V55.73H53.45v-7.5a12,12,0,0,1-.93,1.23,12.49,12.49,0,0,0-.86-1.92,16.71,16.71,0,0,0,3-5.79ZM63,53.52a28.38,28.38,0,0,1,3.17,1.26l-1.53,1a18.62,18.62,0,0,0-3.22-1.44l1-.83H59.43l1,.71a11.53,11.53,0,0,1-3.81,1.53,6.47,6.47,0,0,0-.95-1.21,13.18,13.18,0,0,0,3.18-1H56.73V47.93h8.49v5.59Zm-.21-9.84v.65h2.58v3.09H56.51V44.33H59v-.65H56.24V42.39h9.58v1.29Zm-4.74,2.7H59v-1h-.92Zm.33,3.1h5.1v-.54h-5.1Zm0,1.5h5.1v-.54h-5.1Zm0,1.53h5.1v-.57h-5.1Zm3-8.83h-1v.65h1Zm-1,2.7h1v-1h-1Zm2.42-1v1h1v-1Z"/><path d="M69.56,48.74a9.88,9.88,0,0,1,3-7.2l1.42.63a9.38,9.38,0,0,0,0,13.14l-1.42.63A9.88,9.88,0,0,1,69.56,48.74Z"/><path d="M77.88,44H74.76V42.5h3.12v-.77h1.75v.77h1.58V44H79.64v.65H77.88Zm9.71,10.2c0,.72-.12,1.1-.58,1.33a4.08,4.08,0,0,1-1.86.26,5.08,5.08,0,0,0-.36-1.16l-.73.2a4.17,4.17,0,0,0-.18-.75c-2.13.15-4.32.27-5.91.38l-.13-1.5,2.74-.12V51.65H77.19v4.06H75.48V51.65h-.57V50.22h.57V49.8h1.71v.42h3.37v-.63H76.43V44.82H86.54v4.77H82.28v.63h5.31Zm-9.45-7.48h2.43V46H78.14Zm2.43,1.77v-.68H78.14v.68Zm7.56-5.94V44h-3.2v.65H83.18V44H81.69V42.5h1.49v-.77h1.75v.77ZM84.74,46H82.28v.69h2.46Zm0,1.78H82.28v.68h2.46Zm-1.38,4.89A7.27,7.27,0,0,0,83,52l1.26-.31h-2v1.06Zm2.29,1.67c.15,0,.2,0,.2-.19V51.65h-1.5a9.91,9.91,0,0,1,1.07,2.67Z"/><path d="M101.13,53.82c.5,0,.58-.39.66-2.55a5,5,0,0,0,1.65.75c-.18,2.69-.63,3.46-2.16,3.46h-1.8c-1.69,0-2.13-.57-2.13-2.32V48.57H95.1c-.27,3.12-1,5.68-4.54,7.14a5.14,5.14,0,0,0-1.11-1.46c3.12-1.17,3.54-3.19,3.72-5.68H89.78V46.83h13.38v1.74h-4v4.59c0,.57.09.66.58.66Zm.64-9.31H91.13V42.78h10.65Z"/><path d="M108.35,48.74a9.88,9.88,0,0,1-3,7.2L104,55.31a9.38,9.38,0,0,0,0-13.14l1.42-.63A9.88,9.88,0,0,1,108.35,48.74Z"/><text class="cls-7" transform="translate(450.86 635.84)">18.1</text></g></g></svg>