<svg xmlns="http://www.w3.org/2000/svg" viewBox="0 0 1920 1080"><defs><style>.cls-1{fill:#f6f1eb;}.cls-10,.cls-11,.cls-2,.cls-3,.cls-7{fill:#4e4d4e;}.cls-3{font-size:22.13px;font-family:NotoSansCJKtc-Medium-B5pc-H, Noto Sans CJK TC;}.cls-4{fill:#e36c5c;}.cls-12,.cls-5,.cls-6,.cls-9{fill:none;}.cls-5,.cls-6{stroke:#e36c5c;}.cls-10,.cls-11,.cls-12,.cls-5,.cls-6,.cls-7,.cls-9{stroke-miterlimit:10;}.cls-5{stroke-width:12.25px;}.cls-6,.cls-7{stroke-width:4.08px;}.cls-7{stroke:#4e4d4e;}.cls-8{fill:#b58859;}.cls-9{stroke:#b58859;}.cls-10{stroke:#f6f1eb;}.cls-11{stroke:#f6f1e8;}.cls-12{stroke:#b5b1ad;}</style></defs><title>main-graph</title><g id="背景"><rect class="cls-1" x="-19" y="-22" width="1959" height="1117"/></g><g id="其他縣市"><path class="cls-2" d="M269.14,731.3c-.3.48-.54.94-.81,1.34l6-.07,0,1.78-15.55.18c0,.5-.11,1-.18,1.46l4.75,0s0,.48,0,.75c-.25,2.62-.48,3.83-1,4.33a2,2,0,0,1-1.45.6,21.75,21.75,0,0,1-2.59,0,4.74,4.74,0,0,0-.52-1.73,14.06,14.06,0,0,0,2.09.08c.35,0,.55,0,.7-.18a4.36,4.36,0,0,0,.55-2.17l-2.91,0c-.71,2-2.1,3.37-5,4.31a5.16,5.16,0,0,0-1.12-1.55c2.13-.63,3.3-1.52,4-2.74l-3,0,0-1.71,3.57,0a12.68,12.68,0,0,0,.21-1.46l-4.12,0,0-1.78,6.21-.07a6.21,6.21,0,0,0-.87-1.4l1.41-.24-4.2,0-.06-4.8,16.76-.19.06,4.8-4.35.05Zm5.15-11.07,0,1.76-9.9.12,0,1.28,8.17-.09,0,1.68-18.4.21,0-1.68,7.89-.09,0-1.28-9.62.11,0-1.76,9.63-.11,0-1.58,2.34,0,0,1.58Zm-17.06,9.32,12.34-.14,0-1.66-12.34.14Zm3,1.55a5.55,5.55,0,0,1,.95,1.52l-.5.11,5.23-.06c.25-.53.54-1.16.73-1.64Zm4.32,4.4,8.75-.1.07,6.26-2.19,0V741l-4.47.05v.7l-2.08,0Zm2.1,1.63,0,2.26,4.47-.05,0-2.26Z"/><path class="cls-2" d="M273.18,760.81a13.23,13.23,0,0,1-3.16,3,3.75,3.75,0,0,0,2.68,1.2c.65,0,.82-.54.93-2.15a5.09,5.09,0,0,0,1.77.88c-.32,2.72-1,3.38-2.8,3.4a6,6,0,0,1-4.5-2.13,31.83,31.83,0,0,1-5.33,2.22,10.18,10.18,0,0,0-1.23-1.85,24.52,24.52,0,0,0,5.38-1.95,14.87,14.87,0,0,1-1.47-3.3l-5.4.06,0,1.36,4.14-.35,0,1.63c-1.38.14-2.79.28-4.14.4l0,1.88c0,1.13-.23,1.64-1.06,1.9a13.86,13.86,0,0,1-3.92.35,10.1,10.1,0,0,0-.7-1.83c1.26.06,2.59,0,2.92,0s.5-.11.5-.46l0-1.63-5,.46-.22-1.81c1.43-.09,3.24-.21,5.22-.39l0-1.51-5.13.06,0-1.78,5.13-.06,0-1.41c-1.46.17-2.91.29-4.27.35a5.59,5.59,0,0,0-.52-1.45,59.09,59.09,0,0,0,9.44-1.27l1.4,1.39c-1.1.29-2.41.51-3.79.72l0,1.63,5-.06a24.58,24.58,0,0,1-.49-3.46l2.26,0a18.66,18.66,0,0,0,.49,3.46l5-.06A18.26,18.26,0,0,0,268.2,756l1.29-1.37a15.53,15.53,0,0,1,4.15,2.16l-1.32,1.47,2.64,0,0,1.78-7.19.08a10.78,10.78,0,0,0,1.06,2.23,9.72,9.72,0,0,0,2.34-2.14Zm1.63-6.43-22.19.26,0-1.83,9.85-.11,0-1.28-7.41.09,0-1.68,7.41-.09v-1.28l-8.75.1,0-1.76,4.83-.06a10.44,10.44,0,0,0-1.23-1.82l2-.7a8.86,8.86,0,0,1,1.69,2.44l-.13.05,5.58-.06a22.81,22.81,0,0,0,1.3-2.58l2.54.52c-.49.73-1,1.44-1.41,2l4.8-.06,0,1.76-8.87.1v1.28l7.54-.09,0,1.68-7.54.09,0,1.28,10-.12Z"/><path class="cls-2" d="M265.08,775.35l0,3.12,8.07-.09.1,8.62c0,1.23-.23,1.94-1.15,2.3a13.13,13.13,0,0,1-4.37.45,8.11,8.11,0,0,0-.85-2.28c1.51,0,3,0,3.42,0s.55-.13.55-.48l-.07-6.31-5.65.07.14,11.76-2.44,0-.14-11.76-5.3.06.11,9.07-2.36,0L255,778.59l7.66-.09,0-3.12-10,.12,0-2.29,10.4-.12c-.41-1-1-2.12-1.52-3l2.28-.71a27.92,27.92,0,0,1,2,3.72l9.42-.11,0,2.29Z"/><text class="cls-3" transform="translate(750.12 634.5) scale(1.5 1)">雲林縣</text><path class="cls-2" d="M1234.86,723.37a44.12,44.12,0,0,1,6.61,7.29l-2,1.46a20.06,20.06,0,0,0-1.46-2.06c-13.82.73-15.43.78-16.56,1.18a21.94,21.94,0,0,0-.75-2.29,4.63,4.63,0,0,0,2.06-1.43,40.32,40.32,0,0,0,5.55-7l2.34,1a49.47,49.47,0,0,1-6,6.94l11.69-.48c-1.08-1.21-2.24-2.41-3.32-3.42Zm-12.24,9.78h16.29V743.8h-2.49v-1.28H1225v1.33h-2.36Zm2.36,2.24v4.88h11.44v-4.88Z"/><path class="cls-2" d="M1231.74,750.68c-.1.8-.23,1.58-.35,2.29h9.22v13.7c0,1.26-.33,1.83-1.21,2.16a13.85,13.85,0,0,1-4.32.35,9.19,9.19,0,0,0-.83-2c1.43.08,3,.05,3.39,0s.58-.13.58-.53V755.13H1223.3v14H1221V753h8.17c.08-.68.2-1.48.28-2.29h-9.62V748.5h9.85c.08-.83.13-1.63.15-2.34l2.56.25c-.08.68-.18,1.38-.28,2.09h9.67v2.19Zm0,13.82v4.12h-2.21v-4.12h-5.05v-1.88h5.05v-2.16h-4.52v-1.83h2.31a12.11,12.11,0,0,0-1.18-2.79l1.83-.48a13,13,0,0,1,1.31,2.87l-1.33.4h4.12a28.4,28.4,0,0,0,1.21-3.34l2.11.48c-.43,1-.85,2-1.28,2.86h2.39v1.83h-4.75v2.16H1237v1.88Z"/><path class="cls-2" d="M1231.89,777.37v3.12H1240v8.62c0,1.23-.25,1.94-1.18,2.29a13.13,13.13,0,0,1-4.37.4,8.08,8.08,0,0,0-.83-2.29c1.51.05,3,.05,3.42.05s.55-.13.55-.48v-6.31h-5.66v11.76h-2.44V782.77h-5.3v9.07h-2.36V780.49h7.67v-3.12h-10v-2.29h10.4c-.4-1-1-2.14-1.48-3.07l2.29-.68a28.06,28.06,0,0,1,1.91,3.74H1242v2.29Z"/><path class="cls-2" d="M1260.37,853.81a23.18,23.18,0,0,1-2.54,5.05,12.92,12.92,0,0,0-1.61-1.11,15.48,15.48,0,0,0,2.31-4.5Zm3.24-1.63v8.52h-2.26v-8.52h-4.83v-2h4.83v-2.29h-5v-2h2.74a12.6,12.6,0,0,0-.88-3.14l1.91-.48a15.7,15.7,0,0,1,.93,3.09l-1.86.53h4a25.9,25.9,0,0,0,1.23-3.64l2.16.45c-.43,1.11-.86,2.26-1.28,3.19h2.94v2h-4.62v2.29h4.27v2Zm4.22-9.9h-11.06v-1.94h4.6c-.28-.7-.6-1.51-.9-2.14l2.31-.6c.43.85.93,1.91,1.26,2.74h3.79Zm-1.78,10.78a21.37,21.37,0,0,1,2.09,3.77l-1.63,1a26.3,26.3,0,0,0-2-3.9Zm13.22-4.77h-2.56v12.44h-2.29V848.28h-2.94v.6c0,3.62-.33,8.65-2.56,11.84a7.92,7.92,0,0,0-1.78-1.38c2-2.92,2.16-7.16,2.16-10.45v-8.7a38.75,38.75,0,0,0,7.69-2l1.83,1.71a41.12,41.12,0,0,1-7.34,1.86v4.4h7.79Z"/><path class="cls-2" d="M1279.3,870.42h-3.54v12.87c0,1.38-.28,2.09-1.18,2.46a11.84,11.84,0,0,1-4.3.45,9.34,9.34,0,0,0-.8-2.46c1.46.05,2.92.05,3.34.05s.55-.15.55-.53V870.42h-3.29a22.43,22.43,0,0,1-2.49,4.52,12.39,12.39,0,0,0-2-1.43,15.47,15.47,0,0,0,1.94-3.09h-3.87v15.81h-2.36V870.42h-.75A26.08,26.08,0,0,1,1258,875a15.82,15.82,0,0,0-2.14-1.43c2-2.49,3.54-6.46,4.42-10.43l2.46.5c-.38,1.51-.83,3-1.33,4.45h6.28V870a33,33,0,0,0,2.21-6.84l2.36.48c-.38,1.51-.8,3-1.31,4.47h8.32Z"/><path class="cls-2" d="M1268.89,894.37v3.12H1277v8.62c0,1.23-.25,1.94-1.18,2.29a13.13,13.13,0,0,1-4.37.4,8.08,8.08,0,0,0-.83-2.29c1.51.05,3,.05,3.42.05s.55-.13.55-.48v-6.31h-5.66v11.76h-2.44V899.77h-5.3v9.07h-2.36V897.49h7.67v-3.12h-10v-2.29h10.4c-.4-1-1-2.14-1.48-3.07l2.29-.68a28.06,28.06,0,0,1,1.91,3.74H1279v2.29Z"/><path class="cls-2" d="M1135.94,408.3v3h8.42v2.11h-8.42v5.6h9.63v2.14H1124v-2.14h9.45v-5.6h-8.29v-2.11h8.29v-3h-5.25V407a27.57,27.57,0,0,1-3.64,1.61,9.05,9.05,0,0,0-1.56-2.16c4.67-1.43,9.22-4.2,11.61-7.89l2.19,1c-.23.33-.43.65-.65,1a27.11,27.11,0,0,0,10.46,6,9.77,9.77,0,0,0-1.61,2,26.18,26.18,0,0,1-3.75-1.73v1.53Zm-7,5.4a19.74,19.74,0,0,1,2.36,4.35l-2,.88a21.19,21.19,0,0,0-2.24-4.47Zm11.13-7.56a28.18,28.18,0,0,1-5.33-4.07,22.74,22.74,0,0,1-5.05,4.07Zm-2.26,12.06a23.56,23.56,0,0,0,2.44-4.5l2.26.83c-1,1.58-2.06,3.29-2.92,4.42Z"/><path class="cls-2" d="M1133.66,434.59h-6.86v12.62h-2.31v-22h9.17Zm-6.86-7.39V429h4.67V427.2Zm4.67,5.48v-2h-4.67v2Zm13.72,11.54c0,1.46-.33,2.16-1.28,2.56a15.41,15.41,0,0,1-4.85.43,8.34,8.34,0,0,0-.83-2.41c1.66.08,3.42,0,3.92,0s.65-.18.65-.63v-9.6h-7.09v-9.37h9.47Zm-7.24-17V429h4.85V427.2Zm4.85,5.53v-2H1138v2Z"/><path class="cls-2" d="M1126.95,465.85a25.56,25.56,0,0,1-2.24,5.33,11.86,11.86,0,0,0-1.66-1,19.7,19.7,0,0,0,2-4.83Zm3-1.43v8h-2v-8h-4.65v-1.86h1.08V450.4h8.87v12.16h1v1.86Zm-3.62-12.29v1.56h5v-1.56Zm5,3.07h-5v1.48h5Zm-5,4.35h5v-1.38h-5Zm0,3h5v-1.51h-5Zm6,2.69a20.92,20.92,0,0,1,1.78,3.77l-1.63.75a21.68,21.68,0,0,0-1.71-3.85Zm5.86.1a24.31,24.31,0,0,1-2.92,6,13.26,13.26,0,0,0-1.61-1,17.87,17.87,0,0,0,2.51-5.45Zm5.35-14.35a35.53,35.53,0,0,1-8.65,3.47,7.9,7.9,0,0,0-.73-1.66,30.17,30.17,0,0,0,7.82-3.54Zm-2.44,12.77v7c0,.88-.15,1.26-.75,1.48a7.28,7.28,0,0,1-2.61.28,7.17,7.17,0,0,0-.55-1.51h1.63c.25,0,.3-.08.3-.3v-6.86a19.23,19.23,0,0,0-4,.48,15.85,15.85,0,0,0-.6-1.86,6.38,6.38,0,0,0,2.34-1.33,41,41,0,0,0,3.29-2.84c-3.74.28-4.42.4-4.87.58a12,12,0,0,0-.55-1.78,4.1,4.1,0,0,0,1.48-.7,20.78,20.78,0,0,0,4-3.47l1.71.88a28,28,0,0,1-3.44,2.84l3.47-.18c.6-.63,1.18-1.28,1.73-1.94l1.63,1.13a52.7,52.7,0,0,1-6.91,6.38l4.88-.25c-.4-.78-.85-1.56-1.28-2.21l1.58-.75a32.22,32.22,0,0,1,2.74,5l-1.71.88c-.13-.35-.28-.73-.48-1.16Zm2.46.88c.93,1.73,2.11,4,2.64,5.33l-1.83.88a48.09,48.09,0,0,0-2.54-5.45Z"/><path class="cls-2" d="M1343.86,440.37a44.12,44.12,0,0,1,6.61,7.29l-2,1.46a20.06,20.06,0,0,0-1.46-2.06c-13.82.73-15.43.78-16.56,1.18a21.94,21.94,0,0,0-.75-2.29,4.63,4.63,0,0,0,2.06-1.43,40.32,40.32,0,0,0,5.55-7l2.34,1a49.47,49.47,0,0,1-6,6.94l11.69-.48c-1.08-1.21-2.24-2.41-3.32-3.42Zm-12.24,9.78h16.29V460.8h-2.49v-1.28H1334v1.33h-2.36Zm2.36,2.24v4.88h11.44v-4.88Z"/><path class="cls-2" d="M1339,479.6l.4,2.09c-3.57,1.51-7.44,3.09-10.33,4.25l-1.06-2.36c1.76-.58,4.25-1.46,6.89-2.44v-9.5h-6.08v-2.34h6.08v-5.68h2.41v16.61Zm8.27,3.44c1,0,1.18-1.18,1.33-5.83a6.62,6.62,0,0,0,2.24,1.11c-.23,5.18-.78,7-3.37,7h-3.19c-2.44,0-3.14-.85-3.14-3.82V463.61h2.44v5.65h6.76v2.31h-6.76v10c0,1.28.15,1.51,1,1.51Z"/><path class="cls-2" d="M1340.89,494.37v3.12H1349v8.62c0,1.23-.25,1.94-1.18,2.29a13.13,13.13,0,0,1-4.37.4,8.08,8.08,0,0,0-.83-2.29c1.51.05,3,.05,3.42.05s.55-.13.55-.48v-6.31h-5.66v11.76h-2.44V499.77h-5.3v9.07h-2.36V497.49h7.67v-3.12h-10v-2.29h10.4c-.4-1-1-2.14-1.48-3.07l2.29-.68a28.06,28.06,0,0,1,1.91,3.74H1351v2.29Z"/><path class="cls-2" d="M1039.37,744.81a23.18,23.18,0,0,1-2.54,5.05,12.92,12.92,0,0,0-1.61-1.11,15.48,15.48,0,0,0,2.31-4.5Zm3.24-1.63v8.52h-2.26v-8.52h-4.83v-2h4.83v-2.29h-5v-2h2.74a12.6,12.6,0,0,0-.88-3.14l1.91-.48a15.7,15.7,0,0,1,.93,3.09l-1.86.53h4a25.9,25.9,0,0,0,1.23-3.64l2.16.45c-.43,1.11-.86,2.26-1.28,3.19h2.94v2h-4.62v2.29h4.27v2Zm4.22-9.9h-11.06v-1.94h4.6c-.28-.7-.6-1.51-.9-2.14l2.31-.6c.43.85.93,1.91,1.26,2.74h3.79Zm-1.78,10.78a21.37,21.37,0,0,1,2.09,3.77l-1.63,1a26.3,26.3,0,0,0-2-3.9Zm13.22-4.77h-2.56v12.44h-2.29V739.28h-2.94v.6c0,3.62-.33,8.65-2.56,11.84a7.92,7.92,0,0,0-1.78-1.38c2-2.92,2.16-7.16,2.16-10.45v-8.7a38.75,38.75,0,0,0,7.69-2l1.83,1.71a41.12,41.12,0,0,1-7.34,1.86v4.4h7.79Z"/><path class="cls-2" d="M1046,770.6l.4,2.09c-3.57,1.51-7.44,3.09-10.33,4.25l-1.06-2.36c1.76-.58,4.25-1.46,6.89-2.44v-9.5h-6.08v-2.34h6.08v-5.68h2.41v16.61Zm8.27,3.44c1,0,1.18-1.18,1.33-5.83a6.62,6.62,0,0,0,2.24,1.11c-.23,5.18-.78,7-3.37,7h-3.19c-2.44,0-3.14-.85-3.14-3.82V754.61h2.44v5.65h6.76v2.31h-6.76v10c0,1.28.15,1.51,1,1.51Z"/><path class="cls-2" d="M1047.89,785.37v3.12H1056v8.62c0,1.23-.25,1.94-1.18,2.29a13.13,13.13,0,0,1-4.37.4,8.08,8.08,0,0,0-.83-2.29c1.51.05,3,.05,3.42.05s.55-.13.55-.48v-6.31h-5.66v11.76h-2.44V790.77h-5.3v9.07h-2.36V788.49h7.67v-3.12h-10v-2.29h10.4c-.4-1-1-2.14-1.48-3.07l2.29-.68a28.06,28.06,0,0,1,1.91,3.74H1058v2.29Z"/><path class="cls-2" d="M1082.35,845.37h-14.07v-1.83H1072a7.69,7.69,0,0,0-.7-1.71l1.56-.4H1069v-1.81h5.55a9.86,9.86,0,0,0-.7-1.36l1.86-.68a10.28,10.28,0,0,1,1,2h5.15v1.81h-3.44l1.58.33c-.35.63-.73,1.26-1.05,1.78h3.37Zm-5.78,11.74v3.77h-2.21V857.1h-5.5v-1.88h5.5v-1.53h-4.25v-7.16H1081v7.16h-4.42v1.53h5.3v1.88Zm-4.32-7.72h6.51V848h-6.51Zm0,2.81h6.51v-1.43h-6.51Zm1-10.78a11,11,0,0,1,.88,2l-.43.13h3.24a18.33,18.33,0,0,0,.91-2.11Zm18.22,11.23a21.75,21.75,0,0,1-8.7,7.87,12.41,12.41,0,0,0-1.63-1.86,18,18,0,0,0,8.12-6.86Zm-.48-6.86a26.31,26.31,0,0,1-7.19,6.18,8.61,8.61,0,0,0-1.66-1.66,21.76,21.76,0,0,0,6.69-5.43Zm-.58-6.71A23,23,0,0,1,1084,845a12.38,12.38,0,0,0-1.66-1.56,18.76,18.76,0,0,0,5.86-5.2Z"/><path class="cls-2" d="M1076.9,864a37.24,37.24,0,0,1-2.46,4.75v17.47h-2.21V872a26.05,26.05,0,0,1-3,3.34,12.11,12.11,0,0,0-1.28-2.36,27.19,27.19,0,0,0,6.81-9.65Zm10.28,19.4c1.36,0,1.58-1.06,1.78-5.28a6.84,6.84,0,0,0,2.11,1c-.33,4.7-.91,6.36-3.75,6.36h-4.5c-2.76,0-3.54-.83-3.54-3.84V863.59h2.24v6.63h8.85v2.24h-8.85v9.25c0,1.41.25,1.68,1.51,1.68Z"/><path class="cls-2" d="M1080.89,894.37v3.12H1089v8.62c0,1.23-.25,1.94-1.18,2.29a13.13,13.13,0,0,1-4.37.4,8.08,8.08,0,0,0-.83-2.29c1.51.05,3,.05,3.42.05s.55-.13.55-.48v-6.31h-5.66v11.76h-2.44V899.77h-5.3v9.07h-2.36V897.49h7.67v-3.12h-10v-2.29h10.4c-.4-1-1-2.14-1.48-3.07l2.29-.68a28.06,28.06,0,0,1,1.91,3.74H1091v2.29Z"/><path class="cls-2" d="M915.23,770.35h-5.4v-2.16h5.4V765.8h2.31v2.39h2.89v2.16h-2.89v2.59h-2.31ZM912,773.87h17.64v15h-2.34v-1.08H914.25v1.08H912Zm2.24,2.11v3.67h5.28V776Zm5.28,9.68v-3.9h-5.28v3.9Zm12.26-17.47v2.16h-5.55v2.59H923.9v-2.59h-2.69v-2.16h2.69V765.8h2.34v2.39ZM927.32,776h-5.53v3.67h5.53Zm0,9.68v-3.9h-5.53v3.9Z"/><path class="cls-2" d="M918.6,808.55a17.45,17.45,0,0,1-7.94,4.93,9.75,9.75,0,0,0-1.56-1.94c2.84-.65,6-2.09,7.59-3.72Zm3.32-1.31v7h-2.36v-7H909.7v-2.06h9.85v-1.83h2.36v1.83h10v2.06Zm-5.18-12.79h-6.86v-2h21.81v2h-7.21v1.91h5.68v6.56H911.34v-6.56h5.4ZM913.52,801h3.22V798.3h-3.22Zm8.77-6.53h-3.37v1.91h3.37ZM918.93,801h3.37V798.3h-3.37Zm5.91,6.69a50.06,50.06,0,0,1,7.34,4.37l-1.76,1.56A47.39,47.39,0,0,0,923.2,809Zm-.35-9.37V801h3.39V798.3Z"/><path class="cls-2" d="M912.95,832.85a25.56,25.56,0,0,1-2.24,5.33,11.86,11.86,0,0,0-1.66-1,19.64,19.64,0,0,0,2-4.83Zm3-1.43v8h-2v-8h-4.65v-1.86h1.08V817.4h8.87v12.16h1v1.86Zm-3.62-12.29v1.56h5v-1.56Zm5,3.07h-5v1.48h5Zm-5,4.35h5v-1.38h-5Zm0,3h5v-1.51h-5Zm6,2.69a21,21,0,0,1,1.78,3.77l-1.63.75a21.58,21.58,0,0,0-1.71-3.85Zm5.86.1a24.31,24.31,0,0,1-2.92,6,13.18,13.18,0,0,0-1.61-1,17.91,17.91,0,0,0,2.51-5.45ZM929.51,818a35.54,35.54,0,0,1-8.65,3.47,7.93,7.93,0,0,0-.73-1.66,30.16,30.16,0,0,0,7.82-3.54Zm-2.44,12.77v7c0,.88-.15,1.26-.75,1.48a7.29,7.29,0,0,1-2.61.28,7.17,7.17,0,0,0-.55-1.51h1.63c.25,0,.3-.08.3-.3v-6.86a19.26,19.26,0,0,0-4,.48,15.75,15.75,0,0,0-.6-1.86,6.38,6.38,0,0,0,2.34-1.33,41.2,41.2,0,0,0,3.29-2.84c-3.74.28-4.42.4-4.88.58a11.92,11.92,0,0,0-.55-1.78,4.1,4.1,0,0,0,1.48-.7,20.76,20.76,0,0,0,4-3.47l1.71.88a27.89,27.89,0,0,1-3.44,2.84l3.47-.18c.6-.63,1.18-1.28,1.73-1.94l1.63,1.13a52.72,52.72,0,0,1-6.91,6.38l4.88-.25c-.4-.78-.85-1.56-1.28-2.21l1.58-.75a32.19,32.19,0,0,1,2.74,5l-1.71.88c-.13-.35-.28-.73-.48-1.16Zm2.46.88c.93,1.73,2.11,4,2.64,5.33l-1.83.88a48.17,48.17,0,0,0-2.54-5.45Z"/><path class="cls-2" d="M574.86,405.37a44.12,44.12,0,0,1,6.61,7.29l-2,1.46a20,20,0,0,0-1.46-2.06c-13.82.73-15.43.78-16.56,1.18a21.71,21.71,0,0,0-.75-2.29,4.63,4.63,0,0,0,2.06-1.43,40.31,40.31,0,0,0,5.55-7l2.34,1a49.48,49.48,0,0,1-6,6.94l11.69-.48c-1.08-1.21-2.24-2.41-3.32-3.42Zm-12.24,9.78H578.9V425.8h-2.49v-1.28H565v1.33h-2.36Zm2.36,2.24v4.88h11.43v-4.88Z"/><path class="cls-2" d="M573.75,443.69a23.76,23.76,0,0,0,8.65,5.2,9.82,9.82,0,0,0-1.68,2,25.67,25.67,0,0,1-8.8-6.13v6.43h-2.44v-6.33a25.42,25.42,0,0,1-8.65,6,11,11,0,0,0-1.61-2,23.91,23.91,0,0,0,8.44-5.23H562v-9.3h7.46v-1.83h-9.6V430.4h9.6v-2.24h2.44v2.24h9.83v2.16h-9.83v1.83h7.84v9.3Zm-9.45-5.5h5.18v-2H564.3Zm0,3.72h5.18v-2H564.3Zm7.61-5.73v2h5.48v-2Zm5.48,3.69h-5.48v2h5.48Z"/><path class="cls-2" d="M562.95,469.85a25.56,25.56,0,0,1-2.24,5.33,11.86,11.86,0,0,0-1.66-1,19.64,19.64,0,0,0,2-4.83Zm3-1.43v8h-2v-8h-4.65v-1.86h1.08V454.4h8.87v12.16h1v1.86Zm-3.62-12.29v1.56h5v-1.56Zm5,3.07h-5v1.48h5Zm-5,4.35h5v-1.38h-5Zm0,3h5v-1.51h-5Zm6,2.69a21,21,0,0,1,1.78,3.77l-1.63.75a21.58,21.58,0,0,0-1.71-3.85Zm5.86.1a24.31,24.31,0,0,1-2.92,6,13.18,13.18,0,0,0-1.61-1,17.91,17.91,0,0,0,2.51-5.45ZM579.51,455a35.54,35.54,0,0,1-8.65,3.47,7.93,7.93,0,0,0-.73-1.66,30.16,30.16,0,0,0,7.82-3.54Zm-2.44,12.77v7c0,.88-.15,1.26-.75,1.48a7.29,7.29,0,0,1-2.61.28,7.17,7.17,0,0,0-.55-1.51h1.63c.25,0,.3-.08.3-.3v-6.86a19.26,19.26,0,0,0-4,.48,15.75,15.75,0,0,0-.6-1.86,6.38,6.38,0,0,0,2.34-1.33,41.2,41.2,0,0,0,3.29-2.84c-3.74.28-4.42.4-4.88.58a11.92,11.92,0,0,0-.55-1.78,4.1,4.1,0,0,0,1.48-.7,20.76,20.76,0,0,0,4-3.47l1.71.88a27.89,27.89,0,0,1-3.44,2.84l3.47-.18c.6-.63,1.18-1.28,1.73-1.94l1.63,1.13a52.72,52.72,0,0,1-6.91,6.38l4.88-.25c-.4-.78-.85-1.56-1.28-2.21l1.58-.75a32.19,32.19,0,0,1,2.74,5l-1.71.88c-.13-.35-.28-.73-.48-1.16Zm2.46.88c.93,1.73,2.11,4,2.64,5.33l-1.83.88a48.17,48.17,0,0,0-2.54-5.45Z"/><path class="cls-2" d="M737,711.8h-5.91a40.81,40.81,0,0,1,4.85,4.17l-2.11,1a16.37,16.37,0,0,0-1.18-1.28c-12.69.58-14,.6-15,.93a17.27,17.27,0,0,0-.73-2.21,3.63,3.63,0,0,0,1.46-.78,17.22,17.22,0,0,0,2.24-1.83h-6V710H737Zm-19.83-9.2h-2.09v-5.25h9.52v-1.13h-8v-1.73h18.27v1.73h-8v1.13h9.63v5.25h-2.16v-3.69h-7.46v6.81h-2.29v-6.81h-7.44Zm-.18,1.88c1.66-.48,4.1-1.26,6.48-2.06l.3,1.58c-2.09.83-4.22,1.68-6,2.34Zm17.11,4H717.44V706.8h16.64Zm-15.33-9.3a41.32,41.32,0,0,1,4.85,1.71l-.85,1.46a39.49,39.49,0,0,0-4.85-1.86Zm12,14.75c-.7-.6-1.43-1.21-2.11-1.68l1.11-.5h-6a34.57,34.57,0,0,1-3,2.54Zm3.07-13.24a34.44,34.44,0,0,1-5.33,1.71l-.88-1.31a34.22,34.22,0,0,0,5.13-1.86Zm-5.38,1.73a45.38,45.38,0,0,1,6.21,2.19l-.75,1.58a58.77,58.77,0,0,0-6.18-2.36Z"/><path class="cls-2" d="M723.63,733.59c-.53-.88-1.56-2.36-2.46-3.59v12.19h-2.29V730.95a24.18,24.18,0,0,1-3.67,6.84,12.09,12.09,0,0,0-1.23-2.24,24.34,24.34,0,0,0,4.52-8.9h-3.87v-2.21h4.25v-5.3h2.29v5.3h3.42v2.21h-3.42v.5c.8.75,3.37,3.72,3.95,4.42Zm9.12-6.94c1.11,3.72,2.89,7.49,4.83,9.63a8.84,8.84,0,0,0-1.78,1.83,28.12,28.12,0,0,1-3.59-7.34v11.41h-2.34V730.92a24.84,24.84,0,0,1-4.77,7.72,10.57,10.57,0,0,0-1.36-2.14,24.13,24.13,0,0,0,5.71-9.85h-3.9v-2.21h4.32v-5.3h2.34v5.3h4.6v2.21Z"/><path class="cls-2" d="M717.95,760.85a25.56,25.56,0,0,1-2.24,5.33,11.86,11.86,0,0,0-1.66-1,19.64,19.64,0,0,0,2-4.83Zm3-1.43v8h-2v-8h-4.65v-1.86h1.08V745.4h8.87v12.16h1v1.86Zm-3.62-12.29v1.56h5v-1.56Zm5,3.07h-5v1.48h5Zm-5,4.35h5v-1.38h-5Zm0,3h5v-1.51h-5Zm6,2.69a21,21,0,0,1,1.78,3.77l-1.63.75a21.58,21.58,0,0,0-1.71-3.85Zm5.86.1a24.31,24.31,0,0,1-2.92,6,13.18,13.18,0,0,0-1.61-1,17.91,17.91,0,0,0,2.51-5.45ZM734.51,746a35.54,35.54,0,0,1-8.65,3.47,7.93,7.93,0,0,0-.73-1.66,30.16,30.16,0,0,0,7.82-3.54Zm-2.44,12.77v7c0,.88-.15,1.26-.75,1.48a7.29,7.29,0,0,1-2.61.28,7.17,7.17,0,0,0-.55-1.51h1.63c.25,0,.3-.08.3-.3v-6.86a19.26,19.26,0,0,0-4,.48,15.75,15.75,0,0,0-.6-1.86,6.38,6.38,0,0,0,2.34-1.33,41.2,41.2,0,0,0,3.29-2.84c-3.74.28-4.42.4-4.88.58a11.92,11.92,0,0,0-.55-1.78,4.1,4.1,0,0,0,1.48-.7,20.76,20.76,0,0,0,4-3.47l1.71.88a27.89,27.89,0,0,1-3.44,2.84l3.47-.18c.6-.63,1.18-1.28,1.73-1.94l1.63,1.13a52.72,52.72,0,0,1-6.91,6.38l4.88-.25c-.4-.78-.85-1.56-1.28-2.21l1.58-.75a32.19,32.19,0,0,1,2.74,5l-1.71.88c-.13-.35-.28-.73-.48-1.16Zm2.46.88c.93,1.73,2.11,4,2.64,5.33l-1.83.88a48.17,48.17,0,0,0-2.54-5.45Z"/><path class="cls-2" d="M767.82,736v2.11H745.7V736h4.65V722.94H763V736Zm-19.25-11.91h-2.29v-5.55h9.65a14.32,14.32,0,0,0-1.06-2.41l2.29-.55a12.18,12.18,0,0,1,1.28,2.87l-.4.1h9.2v5.55h-2.39v-3.44H748.57Zm4,.85v2.29h8V725Zm8,4.22h-8v2.41h8Zm-8,6.84h8v-2.51h-8Z"/><path class="cls-2" d="M750.55,744.4h-4.8v-1.94h4.8v-1.31h2.29v1.31h3.37v1.94h-3.37v1.18h-2.29ZM749,751.92v12.31h-2.16V746h8.77v5.91Zm0-4.5v1h4.52v-1Zm4.52,3.09v-1H749v1Zm7.79,12.64c-.65-.58-2.51-1.88-3.72-2.71v3.34h-1.86v-3.24a15,15,0,0,1-4.65,2.74,8.24,8.24,0,0,0-1.23-1.43,14.91,14.91,0,0,0,4.62-2.09h-3.22V755h4.47v-.85h-5.18v-1.31h5.18v-1.21h1.86v1.21H763v1.31h-5.4V755h4.67v4.73h-3.49c1.26.68,3,1.73,3.54,2.06Zm-8.49-4.67h3.09v-2.19h-3.09Zm1.53-2a12.37,12.37,0,0,1,1,1.46l-.93.45c-.23-.43-.63-1.08-1-1.56Zm13.5-14v1.94h-4.75v1.18h-2.31V744.4h-3.57v-1.94h3.57v-1.31h2.31v1.31Zm-7.19,13.82h-3.22v2.19h3.22Zm6.13,5.45c0,1.06-.23,1.61-.9,1.94a7.22,7.22,0,0,1-3.09.38,7.1,7.1,0,0,0-.68-1.94c.9,0,1.76,0,2.06,0s.38-.1.38-.4v-9.8h-6.89V746h9.12ZM758,758c.33-.5.78-1.18,1-1.61l1,.48c-.43.58-.85,1.11-1.21,1.53Zm1.78-10.61v.93h4.77v-.93Zm4.77,3.07v-.93h-4.77v.93Z"/><path class="cls-2" d="M748.95,782.85a25.56,25.56,0,0,1-2.24,5.33,11.86,11.86,0,0,0-1.66-1,19.64,19.64,0,0,0,2-4.83Zm3-1.43v8h-2v-8h-4.65v-1.86h1.08V767.4h8.87v12.16h1v1.86Zm-3.62-12.29v1.56h5v-1.56Zm5,3.07h-5v1.48h5Zm-5,4.35h5v-1.38h-5Zm0,3h5v-1.51h-5Zm6,2.69a21,21,0,0,1,1.78,3.77l-1.63.75a21.58,21.58,0,0,0-1.71-3.85Zm5.86.1a24.31,24.31,0,0,1-2.92,6,13.18,13.18,0,0,0-1.61-1,17.91,17.91,0,0,0,2.51-5.45ZM765.51,768a35.54,35.54,0,0,1-8.65,3.47,7.93,7.93,0,0,0-.73-1.66,30.16,30.16,0,0,0,7.82-3.54Zm-2.44,12.77v7c0,.88-.15,1.26-.75,1.48a7.29,7.29,0,0,1-2.61.28,7.17,7.17,0,0,0-.55-1.51h1.63c.25,0,.3-.08.3-.3v-6.86a19.26,19.26,0,0,0-4,.48,15.75,15.75,0,0,0-.6-1.86,6.38,6.38,0,0,0,2.34-1.33,41.2,41.2,0,0,0,3.29-2.84c-3.74.28-4.42.4-4.88.58a11.92,11.92,0,0,0-.55-1.78,4.1,4.1,0,0,0,1.48-.7,20.76,20.76,0,0,0,4-3.47l1.71.88a27.89,27.89,0,0,1-3.44,2.84l3.47-.18c.6-.63,1.18-1.28,1.73-1.94l1.63,1.13a52.72,52.72,0,0,1-6.91,6.38l4.88-.25c-.4-.78-.85-1.56-1.28-2.21l1.58-.75a32.19,32.19,0,0,1,2.74,5l-1.71.88c-.13-.35-.28-.73-.48-1.16Zm2.46.88c.93,1.73,2.11,4,2.64,5.33l-1.83.88a48.17,48.17,0,0,0-2.54-5.45Z"/><path class="cls-2" d="M844.86,704.37a44.12,44.12,0,0,1,6.61,7.29l-2,1.46a20,20,0,0,0-1.46-2.06c-13.82.73-15.43.78-16.56,1.18a21.71,21.71,0,0,0-.75-2.29,4.63,4.63,0,0,0,2.06-1.43,40.31,40.31,0,0,0,5.55-7l2.34,1a49.48,49.48,0,0,1-6,6.94l11.69-.48c-1.08-1.21-2.24-2.41-3.32-3.42Zm-12.24,9.78H848.9V724.8h-2.49v-1.28H835v1.33h-2.36Zm2.36,2.24v4.88h11.43v-4.88Z"/><path class="cls-2" d="M850.89,731.56v12h-2.44v-1.36h-6.53v8h-2.44v-8H833v1.48h-2.34V731.56h8.85v-4.37h2.44v4.37Zm-11.41,8.37v-6.08H833v6.08Zm9,0v-6.08h-6.53v6.08Z"/><path class="cls-2" d="M841.89,758.37v3.12H850v8.62c0,1.23-.25,1.94-1.18,2.29a13.13,13.13,0,0,1-4.37.4,8.11,8.11,0,0,0-.83-2.29c1.51.05,3,.05,3.42.05s.55-.13.55-.48v-6.31h-5.65v11.76h-2.44V763.77h-5.3v9.07h-2.36V761.49h7.67v-3.12h-10v-2.29h10.4c-.4-1-1-2.14-1.48-3.07l2.29-.68a27.89,27.89,0,0,1,1.91,3.74H852v2.29Z"/><path class="cls-2" d="M428.49,505.35a27.84,27.84,0,0,1-1.95,3.37l.14,12.19-2.31,0-.11-9.2a24.5,24.5,0,0,1-2.56,2.57,20.85,20.85,0,0,0-2-1.64,21.35,21.35,0,0,0,6.39-8Zm-.08-5.15,2.46,0,0,2.21-2.46,0,0,2.24-2.29,0,0-2.24-5.83.07,0-2.21,5.83-.07,0-2.36,2.29,0Zm5.93,2.12-2.56,0,0-2.19,2.56,0,0-2.36,2.34,0,0,2.36,5.65-.07,0,2.19-5.65.07,0,2.36-2.34,0Zm5.16,15.95c1.11,0,1.27-.67,1.39-3.81a7.27,7.27,0,0,0,2.12.93c-.23,3.85-.85,5-3.28,5l-4.3.05c-2.69,0-3.43-.69-3.46-3.38L431.83,505l2.31,0,0,3.92,8.19-.1,0,2.21-8.19.1.07,6c0,1.06.22,1.25,1.4,1.24Z"/><path class="cls-2" d="M426.89,536.69a21.41,21.41,0,0,1-2.25,5.13c.46.25,1,.67,1.8,1.16,1.75,1,4,1.16,7,1.13a98,98,0,0,0,10.07-.69,9.68,9.68,0,0,0-.6,2.29c-2,.17-6.61.38-9.52.41-3.32,0-5.48-.21-7.3-1.25-1.06-.59-2-1.41-2.48-1.4s-1.41,1.6-2.15,3.14l-1.51-2A11.21,11.21,0,0,1,422.3,542a16.16,16.16,0,0,0,2-3.84l-3.22,0c.69-1.16,1.5-2.76,2.24-4.27l-2.69,0,0-1.88,5.78-.07c-.66,1.42-1.47,3-2.19,4.32h1.16l.35-.1Zm-1.47-10.06-4.8.06,0-1.94,4.8-.06,0-1.48,2.29,0,0,1.48,3.37,0,0,1.94-3.37,0,0,1.43-2.29,0Zm-1.65,1.15c.59.92,1.33,2.1,1.74,2.82l-1.9.93c-.39-.75-1.18-2-1.69-2.95Zm9.83,15.59,0-1.58-6.73.08,0-1.71,6.73-.08v-1.21l-5.48.06-.08-7,5.48-.06v-1.16l-6.31.07,0-1.66,6.31-.07,0-1.31,2.16,0,0,1.31,6.53-.08,0,1.66-6.53.08v1.16l5.65-.07.08,7-5.65.07v1.21l7-.08,0,1.71-7,.08,0,1.58Zm-3.47-8.66,3.37,0,0-1.31-3.37,0Zm3.4,2.7,0-1.33-3.37,0,0,1.33Zm2.11-10.91-3.54,0,0-1.94,3.54,0,0-1.48,2.31,0,0,1.48,4.75-.06,0,1.94-4.75.06v1.13l-2.31,0Zm0,6.84,0,1.31,3.42,0,0-1.31ZM439.1,536l-3.42,0,0,1.33,3.42,0Z"/><path class="cls-2" d="M424.26,564.94a25.57,25.57,0,0,1-2.18,5.35,11.85,11.85,0,0,0-1.67-.94,19.67,19.67,0,0,0,2-4.85Zm3-1.47.09,8-2,0-.09-8-4.65.05,0-1.86h1.08l-.14-12.16,8.87-.1.14,12.16h1l0,1.86Zm-3.76-12.25,0,1.56,5-.06,0-1.56Zm5,3-5,.06,0,1.48,5-.06Zm-4.92,4.41,5-.06,0-1.38-5,.06Zm0,3,5-.06,0-1.51-5,.06Zm6,2.62a21,21,0,0,1,1.83,3.75l-1.62.77a21.6,21.6,0,0,0-1.75-3.83Zm5.86,0a24.29,24.29,0,0,1-2.85,6,13.16,13.16,0,0,0-1.62-1,17.92,17.92,0,0,0,2.45-5.48Zm5.19-14.41a35.56,35.56,0,0,1-8.6,3.57,7.92,7.92,0,0,0-.75-1.65,30.15,30.15,0,0,0,7.77-3.63Zm-2.29,12.79.08,7c0,.88-.14,1.26-.74,1.49a7.29,7.29,0,0,1-2.61.31,7.17,7.17,0,0,0-.57-1.5l1.63,0c.25,0,.3-.08.3-.31l-.08-6.86a19.29,19.29,0,0,0-4,.52,15.74,15.74,0,0,0-.62-1.85,6.38,6.38,0,0,0,2.32-1.36,41.31,41.31,0,0,0,3.26-2.88c-3.74.32-4.42.45-4.87.63a11.89,11.89,0,0,0-.57-1.78,4.1,4.1,0,0,0,1.47-.72,20.77,20.77,0,0,0,4-3.52l1.72.86a27.94,27.94,0,0,1-3.41,2.88l3.47-.22c.6-.64,1.17-1.3,1.71-2l1.65,1.11A52.68,52.68,0,0,1,435.7,561l4.87-.31c-.41-.77-.87-1.55-1.31-2.2l1.57-.77a32.16,32.16,0,0,1,2.8,4.92l-1.7.9c-.13-.35-.29-.73-.49-1.15Zm2.47.85c.95,1.72,2.16,4,2.7,5.3l-1.82.9a48.11,48.11,0,0,0-2.6-5.42Z"/><path class="cls-2" d="M526.74,706.3c-.1.8-.23,1.58-.35,2.29h9.22v13.7c0,1.26-.33,1.83-1.21,2.16a13.85,13.85,0,0,1-4.32.35,9.18,9.18,0,0,0-.83-2c1.43.08,3,.05,3.39,0s.58-.13.58-.53V710.75H518.3v14H516V708.59h8.17c.08-.68.2-1.48.28-2.29h-9.62v-2.19h9.85c.08-.83.13-1.63.15-2.34l2.56.25c-.08.68-.18,1.38-.28,2.09h9.68v2.19Zm.05,13.82v4.12h-2.21v-4.12h-5.05v-1.88h5.05v-2.16h-4.52v-1.83h2.31a12.07,12.07,0,0,0-1.18-2.79L523,711a13,13,0,0,1,1.31,2.87l-1.33.4h4.12a28.31,28.31,0,0,0,1.21-3.34l2.11.48c-.43,1-.85,2-1.28,2.86h2.39v1.83h-4.75v2.16H532v1.88Z"/><path class="cls-2" d="M522.34,740.18c-.8.25-1.63.5-2.44.7v6.58c0,1.21-.25,1.81-1,2.14a8.48,8.48,0,0,1-3.57.43,8.59,8.59,0,0,0-.68-2.11c1.11,0,2.16,0,2.46,0s.5-.13.5-.5v-5.91l-2.92.8-.63-2.24c1-.23,2.21-.53,3.54-.88v-5h-3.22v-2.16h3.22v-4.9h2.26v4.9h2.92v2.16h-2.92v4.37L522,738Zm13.32-1.56a15.89,15.89,0,0,1-4.62,7.24,20,20,0,0,0,6.26,2.26,10.93,10.93,0,0,0-1.48,2.16,19.93,19.93,0,0,1-6.76-2.94,24,24,0,0,1-7.09,2.94,7.32,7.32,0,0,0-1.16-2.14,20.43,20.43,0,0,0,6.36-2.31,17.53,17.53,0,0,1-3.85-5.35l.63-.23h-1.26v-2.19h11.06l.4-.08Zm-8.47-7.79a7.07,7.07,0,0,1-3.92,6.76,9.81,9.81,0,0,0-1.51-1.71,5.15,5.15,0,0,0,3.24-5.13V728h8.27v5.63c0,.7,0,1,.45,1h1.68a5.66,5.66,0,0,0,1.31-.15c0,.6.1,1.43.18,2a4.9,4.9,0,0,1-1.46.15h-1.88c-2,0-2.49-.83-2.49-3V730.2h-3.87Zm-1.61,9.42a13.27,13.27,0,0,0,3.52,4.25,13.63,13.63,0,0,0,3.47-4.25Z"/><path class="cls-2" d="M517.95,768.85a25.56,25.56,0,0,1-2.24,5.33,11.86,11.86,0,0,0-1.66-1,19.64,19.64,0,0,0,2-4.83Zm3-1.43v8h-2v-8h-4.65v-1.86h1.08V753.4h8.87v12.16h1v1.86Zm-3.62-12.29v1.56h5v-1.56Zm5,3.07h-5v1.48h5Zm-5,4.35h5v-1.38h-5Zm0,3h5v-1.51h-5Zm6,2.69a21,21,0,0,1,1.78,3.77l-1.63.75a21.58,21.58,0,0,0-1.71-3.85Zm5.86.1a24.31,24.31,0,0,1-2.92,6,13.18,13.18,0,0,0-1.61-1,17.91,17.91,0,0,0,2.51-5.45ZM534.51,754a35.54,35.54,0,0,1-8.65,3.47,7.93,7.93,0,0,0-.73-1.66,30.16,30.16,0,0,0,7.82-3.54Zm-2.44,12.77v7c0,.88-.15,1.26-.75,1.48a7.29,7.29,0,0,1-2.61.28,7.17,7.17,0,0,0-.55-1.51h1.63c.25,0,.3-.08.3-.3v-6.86a19.26,19.26,0,0,0-4,.48,15.75,15.75,0,0,0-.6-1.86,6.38,6.38,0,0,0,2.34-1.33,41.2,41.2,0,0,0,3.29-2.84c-3.74.28-4.42.4-4.88.58a11.92,11.92,0,0,0-.55-1.78,4.1,4.1,0,0,0,1.48-.7,20.76,20.76,0,0,0,4-3.47l1.71.88a27.89,27.89,0,0,1-3.44,2.84l3.47-.18c.6-.63,1.18-1.28,1.73-1.94l1.63,1.13a52.72,52.72,0,0,1-6.91,6.38l4.88-.25c-.4-.78-.85-1.56-1.28-2.21l1.58-.75a32.19,32.19,0,0,1,2.74,5l-1.71.88c-.13-.35-.28-.73-.48-1.16Zm2.46.88c.93,1.73,2.11,4,2.64,5.33l-1.83.88a48.17,48.17,0,0,0-2.54-5.45Z"/><path class="cls-2" d="M593.39,746.58c0,4-.35,9.73-2.84,13.34a10.46,10.46,0,0,0-2-1.31c2.34-3.42,2.51-8.32,2.51-12v-8.65h19.25v6.13H593.39Zm0-6.63v2.14h14.4v-2.14Zm18.09,14.22h-4.55v5.68H604.6v-5.68h-4.67c-.43,2.19-1.68,4.27-5,5.73a8.6,8.6,0,0,0-1.56-1.76c2.51-1.08,3.64-2.49,4.12-4h-3.82v-2h4.17a6.64,6.64,0,0,0,0-.7v-2.39h-3.59v-1.94h3.47a22.36,22.36,0,0,0-1.28-2.34l2.14-.65A23.74,23.74,0,0,1,600,746.4l-2.16.75h6.69a22.5,22.5,0,0,0,1.41-3l2.49.68c-.5.75-1.06,1.56-1.58,2.31h3.92v1.94h-3.82v3.09h4.55Zm-6.89-2v-3.09h-4.45v3.09Z"/><path class="cls-2" d="M603.24,777.69a23.76,23.76,0,0,0,8.65,5.2,9.82,9.82,0,0,0-1.68,2,25.67,25.67,0,0,1-8.8-6.13v6.43H599v-6.33a25.42,25.42,0,0,1-8.65,6,11,11,0,0,0-1.61-2,23.91,23.91,0,0,0,8.44-5.23H591.5v-9.3H599v-1.83h-9.6V764.4H599v-2.24h2.44v2.24h9.83v2.16h-9.83v1.83h7.84v9.3Zm-9.45-5.5H599v-2h-5.18Zm0,3.72H599v-2h-5.18Zm7.61-5.73v2h5.48v-2Zm5.48,3.69h-5.48v2h5.48Z"/><path class="cls-2" d="M592.44,803.85a25.56,25.56,0,0,1-2.24,5.33,11.86,11.86,0,0,0-1.66-1,19.64,19.64,0,0,0,2-4.83Zm3-1.43v8h-2v-8h-4.65v-1.86h1.08V788.4h8.87v12.16h1v1.86Zm-3.62-12.29v1.56h5v-1.56Zm5,3.07h-5v1.48h5Zm-5,4.35h5v-1.38h-5Zm0,3h5v-1.51h-5Zm6,2.69a21,21,0,0,1,1.78,3.77l-1.63.75a21.58,21.58,0,0,0-1.71-3.85Zm5.86.1a24.31,24.31,0,0,1-2.92,6,13.18,13.18,0,0,0-1.61-1,17.91,17.91,0,0,0,2.51-5.45ZM609,789a35.54,35.54,0,0,1-8.65,3.47,7.93,7.93,0,0,0-.73-1.66,30.16,30.16,0,0,0,7.82-3.54Zm-2.44,12.77v7c0,.88-.15,1.26-.75,1.48a7.29,7.29,0,0,1-2.61.28,7.17,7.17,0,0,0-.55-1.51h1.63c.25,0,.3-.08.3-.3v-6.86a19.26,19.26,0,0,0-4,.48,15.75,15.75,0,0,0-.6-1.86,6.38,6.38,0,0,0,2.34-1.33,41.2,41.2,0,0,0,3.29-2.84c-3.74.28-4.42.4-4.88.58a11.92,11.92,0,0,0-.55-1.78,4.1,4.1,0,0,0,1.48-.7,20.76,20.76,0,0,0,4-3.47l1.71.88a27.89,27.89,0,0,1-3.44,2.84l3.47-.18c.6-.63,1.18-1.28,1.73-1.94l1.63,1.13a52.72,52.72,0,0,1-6.91,6.38l4.88-.25c-.4-.78-.85-1.56-1.28-2.21l1.58-.75a32.19,32.19,0,0,1,2.74,5l-1.71.88c-.13-.35-.28-.73-.48-1.16Zm2.46.88c.93,1.73,2.11,4,2.64,5.33l-1.83.88a48.17,48.17,0,0,0-2.54-5.45Z"/><path class="cls-2" d="M680.17,707.6A14.37,14.37,0,0,0,685.5,711a9.59,9.59,0,0,0-1.53,1.81,16,16,0,0,1-6.33-5.23h-7.49a16,16,0,0,1-2.21,2.54h4.6v-1.88h2.36v1.88h5V712h-5v2.24h8.44v1.94H664.41v-1.94h8.12V712h-4.8v-1.66a17.55,17.55,0,0,1-4.15,2.76,7.9,7.9,0,0,0-1.51-1.78,15,15,0,0,0,5.43-3.72h-5.18v-1.94h4.88V697.9h-3.64V696h3.64V693.8h2.34V696h8.54v-2.16h2.39V696h3.59v1.91h-3.59v7.77h4.72v1.94Zm-10.63-9.7v1.41h8.54V697.9Zm0,4.55h8.54V701h-8.54Zm0,3.22h8.54v-1.51h-8.54Z"/><path class="cls-2" d="M670.67,721c-.7,2.11-1.61,4.77-2.39,6.76a7.81,7.81,0,0,1,2.09,5.3c0,1.46-.33,2.51-1.06,3a3.11,3.11,0,0,1-1.36.48,8.94,8.94,0,0,1-1.66,0,5,5,0,0,0-.53-2,7.81,7.81,0,0,0,1.31,0,1.2,1.2,0,0,0,.73-.23,2,2,0,0,0,.5-1.63,7.18,7.18,0,0,0-2.06-4.75,59.52,59.52,0,0,0,1.76-5.71h-2.69v19.9h-2.06v-22h5.55l.33-.08Zm8.14,9.93v2.16H684v1.73h-5.18v1.51h4.8v1.68h-4.8v1.73h6.41v1.86H669.69v-1.86h6.91v-1.73h-4.27v-1.68h4.27v-1.51h-3.49a12.85,12.85,0,0,1-1.38,2.26,11.75,11.75,0,0,0-1.66-1.08,12.68,12.68,0,0,0,2.36-4.85l1.94.4c-.15.53-.3,1-.5,1.53h2.74V731h-3.54v-1.63c-.78.28-1.56.48-2.34.68a7.75,7.75,0,0,0-1.11-1.83,26.18,26.18,0,0,0,6.31-2.09,14,14,0,0,1-2.16-2.24,16.35,16.35,0,0,1-2.51,2.19,6.15,6.15,0,0,0-1.51-1.51,13.77,13.77,0,0,0,4.9-5.6l2.24.35a17.74,17.74,0,0,1-.9,1.63h6l.38-.08,1.41.8a13.68,13.68,0,0,1-4.15,4.52,21.43,21.43,0,0,0,6.11,1.86,9.78,9.78,0,0,0-1.33,1.83c-.63-.13-1.23-.28-1.86-.45V731Zm3.32-1.68a19.23,19.23,0,0,1-4.37-1.94,28.86,28.86,0,0,1-4.52,1.94Zm-6.94-6.61a10.22,10.22,0,0,0,2.56,2.39,12.59,12.59,0,0,0,2.81-2.39Z"/><path class="cls-2" d="M674.89,750.37v3.12H683v8.62c0,1.23-.25,1.94-1.18,2.29a13.13,13.13,0,0,1-4.37.4,8.11,8.11,0,0,0-.83-2.29c1.51.05,3,.05,3.42.05s.55-.13.55-.48v-6.31h-5.65v11.76h-2.44V755.77h-5.3v9.07h-2.36V753.49h7.67v-3.12h-10v-2.29h10.4c-.4-1-1-2.14-1.48-3.07l2.29-.68a27.89,27.89,0,0,1,1.91,3.74H685v2.29Z"/><path class="cls-2" d="M1766.37,709.81a23.18,23.18,0,0,1-2.54,5.05,12.92,12.92,0,0,0-1.61-1.11,15.48,15.48,0,0,0,2.31-4.5Zm3.24-1.63v8.52h-2.26v-8.52h-4.83v-2h4.83v-2.29h-5v-2h2.74a12.6,12.6,0,0,0-.88-3.14l1.91-.48a15.7,15.7,0,0,1,.93,3.09l-1.86.53h4a25.9,25.9,0,0,0,1.23-3.64l2.16.45c-.43,1.11-.86,2.26-1.28,3.19h2.94v2h-4.62v2.29h4.27v2Zm4.22-9.9h-11.06v-1.94h4.6c-.28-.7-.6-1.51-.9-2.14l2.31-.6c.43.85.93,1.91,1.26,2.74h3.79Zm-1.78,10.78a21.37,21.37,0,0,1,2.09,3.77l-1.63,1a26.3,26.3,0,0,0-2-3.9Zm13.22-4.77h-2.56v12.44h-2.29V704.28h-2.94v.6c0,3.62-.33,8.65-2.56,11.84a7.92,7.92,0,0,0-1.78-1.38c2-2.92,2.16-7.16,2.16-10.45v-8.7a38.75,38.75,0,0,0,7.69-2l1.83,1.71a41.12,41.12,0,0,1-7.34,1.86v4.4h7.79Z"/><path class="cls-2" d="M1785.3,726.42h-3.54v12.87c0,1.38-.28,2.09-1.18,2.46a11.84,11.84,0,0,1-4.3.45,9.34,9.34,0,0,0-.8-2.46c1.46.05,2.92.05,3.34.05s.55-.15.55-.53V726.42h-3.29a22.43,22.43,0,0,1-2.49,4.52,12.39,12.39,0,0,0-2-1.43,15.47,15.47,0,0,0,1.94-3.09h-3.87v15.81h-2.36V726.42h-.75A26.08,26.08,0,0,1,1764,731a15.82,15.82,0,0,0-2.14-1.43c2-2.49,3.54-6.46,4.42-10.43l2.46.5c-.38,1.51-.83,3-1.33,4.45h6.28V726a33,33,0,0,0,2.21-6.84l2.36.48c-.38,1.51-.8,3-1.31,4.47h8.32Z"/><path class="cls-2" d="M1765.95,760.85a25.56,25.56,0,0,1-2.24,5.33,11.86,11.86,0,0,0-1.66-1,19.7,19.7,0,0,0,2-4.83Zm3-1.43v8h-2v-8h-4.65v-1.86h1.08V745.4h8.87v12.16h1v1.86Zm-3.62-12.29v1.56h5v-1.56Zm5,3.07h-5v1.48h5Zm-5,4.35h5v-1.38h-5Zm0,3h5v-1.51h-5Zm6,2.69a20.92,20.92,0,0,1,1.78,3.77l-1.63.75a21.68,21.68,0,0,0-1.71-3.85Zm5.86.1a24.31,24.31,0,0,1-2.92,6,13.26,13.26,0,0,0-1.61-1,17.87,17.87,0,0,0,2.51-5.45Zm5.35-14.35a35.53,35.53,0,0,1-8.65,3.47,7.9,7.9,0,0,0-.73-1.66,30.17,30.17,0,0,0,7.82-3.54Zm-2.44,12.77v7c0,.88-.15,1.26-.75,1.48a7.28,7.28,0,0,1-2.61.28,7.17,7.17,0,0,0-.55-1.51h1.63c.25,0,.3-.08.3-.3v-6.86a19.23,19.23,0,0,0-4,.48,15.85,15.85,0,0,0-.6-1.86,6.38,6.38,0,0,0,2.34-1.33,41,41,0,0,0,3.29-2.84c-3.74.28-4.42.4-4.87.58a12,12,0,0,0-.55-1.78,4.1,4.1,0,0,0,1.48-.7,20.78,20.78,0,0,0,4-3.47l1.71.88a28,28,0,0,1-3.44,2.84l3.47-.18c.6-.63,1.18-1.28,1.73-1.94l1.63,1.13a52.7,52.7,0,0,1-6.91,6.38l4.88-.25c-.4-.78-.85-1.56-1.28-2.21l1.58-.75a32.22,32.22,0,0,1,2.74,5l-1.71.88c-.13-.35-.28-.73-.48-1.16Zm2.46.88c.93,1.73,2.11,4,2.64,5.33l-1.83.88a48.09,48.09,0,0,0-2.54-5.45Z"/></g><g id="重點縣市"><path class="cls-4" d="M459.76,38.62a31.54,31.54,0,0,1-2,6.48c.45.25,1,.68,1.81,1.18,1.76,1.06,4,1.21,7,1.21a92.51,92.51,0,0,0,10.08-.58,9.66,9.66,0,0,0-.68,2.41c-2,.13-6.56.28-9.5.28-3.29,0-5.45-.28-7.26-1.33-1-.58-1.94-1.46-2.46-1.46s-1.43,1.63-2.14,3.17L453,47.81a11.45,11.45,0,0,1,2.51-2.61,23.61,23.61,0,0,0,1.66-4.88H454c.6-1.48,1.36-3.52,2-5.48H453.4V32.74h5.43c-.55,1.78-1.26,3.85-1.88,5.58h1.41l.35-.1ZM456,31.68c-.3-1.11-.9-2.86-1.31-4.2l2-.6c.48,1.31,1.08,3,1.38,4ZM466.47,44h-6.53V42.13h6.53V40.6H461V32.36h5.45V30.75h-6.53V28.84h6.53v-2h2.26v2h6.84v1.91h-6.84v1.61h5.63V40.6h-5.63v1.53h7.16V44h-7.16v2.69h-2.26Zm-3.29-8.37h3.29V34h-3.29Zm3.29,3.24V37.26h-3.29v1.66ZM468.73,34v1.63h3.39V34Zm3.39,3.22h-3.39v1.66h3.39Z"/><path class="cls-4" d="M457.9,63.72A40.47,40.47,0,0,0,453.3,61l1.26-1.71a31.92,31.92,0,0,1,4.65,2.49ZM460.56,67c-1.31,2.59-3,5.6-4.45,8l-2-1.58a65,65,0,0,0,4.72-7.94Zm-1.43-9.83a36.35,36.35,0,0,0-4.42-3l1.36-1.63a40,40,0,0,1,4.5,2.74Zm17.14,14.2v2.34h-16V71.34h6.53V56.73h-5.28V54.4H475v2.34h-5.65v14.6Z"/><path class="cls-4" d="M456.95,93.85a25.56,25.56,0,0,1-2.24,5.33,11.86,11.86,0,0,0-1.66-1,19.64,19.64,0,0,0,2-4.83Zm3-1.43v8h-2v-8h-4.65V90.56h1.08V78.4h8.87V90.56h1v1.86Zm-3.62-12.29v1.56h5V80.13Zm5,3.07h-5v1.48h5Zm-5,4.35h5V86.16h-5Zm0,3h5V89.05h-5Zm6,2.69A21,21,0,0,1,464.08,97l-1.63.75a21.58,21.58,0,0,0-1.71-3.85Zm5.86.1a24.31,24.31,0,0,1-2.92,6,13.18,13.18,0,0,0-1.61-1,17.91,17.91,0,0,0,2.51-5.45ZM473.51,79a35.54,35.54,0,0,1-8.65,3.47,7.93,7.93,0,0,0-.73-1.66,30.16,30.16,0,0,0,7.82-3.54Zm-2.44,12.77v7c0,.88-.15,1.26-.75,1.48a7.29,7.29,0,0,1-2.61.28,7.17,7.17,0,0,0-.55-1.51h1.63c.25,0,.3-.08.3-.3V91.89a19.26,19.26,0,0,0-4,.48,15.75,15.75,0,0,0-.6-1.86,6.38,6.38,0,0,0,2.34-1.33,41.2,41.2,0,0,0,3.29-2.84c-3.74.28-4.42.4-4.88.58a11.92,11.92,0,0,0-.55-1.78,4.1,4.1,0,0,0,1.48-.7,20.76,20.76,0,0,0,4-3.47l1.71.88a27.89,27.89,0,0,1-3.44,2.84L472,84.5c.6-.63,1.18-1.28,1.73-1.94l1.63,1.13a52.72,52.72,0,0,1-6.91,6.38l4.88-.25c-.4-.78-.85-1.56-1.28-2.21l1.58-.75a32.19,32.19,0,0,1,2.74,5l-1.71.88c-.13-.35-.28-.73-.48-1.16Zm2.46.88c.93,1.73,2.11,4,2.64,5.33l-1.83.88a48.17,48.17,0,0,0-2.54-5.45Z"/><path class="cls-4" d="M690.12,325.34a25.64,25.64,0,0,0-4-2.79l1.11-1.73a24.4,24.4,0,0,1,4,2.59Zm2,3.17c-1.11,2.61-2.46,5.55-3.72,7.89l-1.76-1.56a78.64,78.64,0,0,0,3.95-7.87ZM691,318.65a28.24,28.24,0,0,0-3.84-2.79l1.16-1.71a32.65,32.65,0,0,1,3.9,2.61ZM702.39,334c-3.54.8-7.31,1.56-10,2.14l-.6-2.09c1.53-.25,3.54-.6,5.73-1a38.39,38.39,0,0,0,1.41-4.67L701,329c-.45,1.21-1,2.56-1.48,3.69l2.64-.5Zm-6.46-16.29h-3.59v-1.88h3.59v-2h2.21v2h3.72v1.88h-3.72v1.78h3.12v1.83h-8.49v-1.83h3.17Zm5.18,10.43H693V322.7h8.09Zm-6.66,4.8a13.25,13.25,0,0,0-1.18-3.87l1.86-.55a12.32,12.32,0,0,1,1.31,3.82Zm4.57-8.65h-4v2.21h4Zm10.15,4.7a16.56,16.56,0,0,1-6.89,7.77,7.92,7.92,0,0,0-1.53-1.66,14,14,0,0,0,6.26-6.76Zm-.68-14a20.62,20.62,0,0,1-5.4,6.46,6.7,6.7,0,0,0-1.61-1.53,16.82,16.82,0,0,0,4.93-5.68Zm.3,6.94a18.07,18.07,0,0,1-5.5,6.43,7.42,7.42,0,0,0-1.61-1.58,14.62,14.62,0,0,0,5-5.58Z"/><path class="cls-4" d="M690.22,350.19a17.53,17.53,0,0,0-4-2.44l1.26-1.68a15.43,15.43,0,0,1,4.1,2.29Zm-3.59,10.55a78.43,78.43,0,0,0,3.37-8l1.88,1.23c-.9,2.64-2.09,5.63-3.14,8Zm4.47-17a15.43,15.43,0,0,0-3.9-2.61l1.31-1.66a17.91,17.91,0,0,1,4,2.44Zm3.42,15.13v1.88h-2V350.54h2.71v-4.22H691.7v-2.11h3.52v-4.32h2.11v4.32h3.12v2.11h-3.12v4.22h2.54v8.29Zm0-6.26v4.25h3.32v-4.25Zm14,7c0,1-.23,1.63-.9,2a7.54,7.54,0,0,1-3.32.38,7.51,7.51,0,0,0-.7-1.94c1.06,0,2.09,0,2.39,0s.45-.13.45-.48v-6.53l-2.34,2.19-.85-1.83c-.28,3.17-1,6.56-3.12,8.9a9.3,9.3,0,0,0-1.73-1.21c2.69-3,2.94-7.44,2.94-11V340.06h7.19Zm-5.15-9.5c0,1,0,2.09-.13,3.22.85-.53,2-1.38,3.19-2.29v-2.16l-.85.7a20.66,20.66,0,0,0-2.21-2.71Zm0-8v4.12l.88-.63a23.63,23.63,0,0,1,2.19,2.36v-5.86Z"/><path class="cls-4" d="M689.95,380.85a25.56,25.56,0,0,1-2.24,5.33,11.86,11.86,0,0,0-1.66-1,19.64,19.64,0,0,0,2-4.83Zm3-1.43v8h-2v-8h-4.65v-1.86h1.08V365.4h8.87v12.16h1v1.86Zm-3.62-12.29v1.56h5v-1.56Zm5,3.07h-5v1.48h5Zm-5,4.35h5v-1.38h-5Zm0,3h5v-1.51h-5Zm6,2.69a21,21,0,0,1,1.78,3.77l-1.63.75a21.58,21.58,0,0,0-1.71-3.85Zm5.86.1a24.31,24.31,0,0,1-2.92,6,13.18,13.18,0,0,0-1.61-1,17.91,17.91,0,0,0,2.51-5.45ZM706.51,366a35.54,35.54,0,0,1-8.65,3.47,7.93,7.93,0,0,0-.73-1.66,30.16,30.16,0,0,0,7.82-3.54Zm-2.44,12.77v7c0,.88-.15,1.26-.75,1.48a7.29,7.29,0,0,1-2.61.28,7.17,7.17,0,0,0-.55-1.51h1.63c.25,0,.3-.08.3-.3v-6.86a19.26,19.26,0,0,0-4,.48,15.75,15.75,0,0,0-.6-1.86,6.38,6.38,0,0,0,2.34-1.33,41.2,41.2,0,0,0,3.29-2.84c-3.74.28-4.42.4-4.88.58a11.92,11.92,0,0,0-.55-1.78,4.1,4.1,0,0,0,1.48-.7,20.76,20.76,0,0,0,4-3.47l1.71.88a27.89,27.89,0,0,1-3.44,2.84l3.47-.18c.6-.63,1.18-1.28,1.73-1.94l1.63,1.13a52.72,52.72,0,0,1-6.91,6.38l4.88-.25c-.4-.78-.85-1.56-1.28-2.21l1.58-.75a32.19,32.19,0,0,1,2.74,5l-1.71.88c-.13-.35-.28-.73-.48-1.16Zm2.46.88c.93,1.73,2.11,4,2.64,5.33l-1.83.88a48.17,48.17,0,0,0-2.54-5.45Z"/><path class="cls-4" d="M911.47,491.37c-.3.48-.55.93-.83,1.33h6v1.78H901c-.05.5-.13,1-.2,1.46l4.75,0s0,.48-.05.75c-.28,2.61-.53,3.82-1,4.32a2,2,0,0,1-1.46.58,21.76,21.76,0,0,1-2.59,0,4.74,4.74,0,0,0-.5-1.73,14.08,14.08,0,0,0,2.09.1c.35,0,.55,0,.7-.18a4.37,4.37,0,0,0,.58-2.16h-2.92c-.73,2-2.14,3.34-5.08,4.25a5.18,5.18,0,0,0-1.11-1.56c2.14-.6,3.32-1.48,4-2.69h-3v-1.71h3.57a12.65,12.65,0,0,0,.23-1.46h-4.12V492.7h6.21a6.2,6.2,0,0,0-.85-1.41l1.41-.23h-4.2v-4.8h16.76v4.8h-4.35Zm5.28-11v1.76h-9.9v1.28H915v1.68h-18.4V483.4h7.89v-1.28h-9.63v-1.76h9.63v-1.58h2.34v1.58Zm-17.16,9.12h12.34v-1.66H899.58Zm3,1.58a5.56,5.56,0,0,1,.93,1.53l-.5.1h5.23c.25-.53.55-1.16.75-1.63Zm4.27,4.45h8.75v6.26H913.4v-.65h-4.47v.7h-2.09Zm2.09,1.66v2.26h4.47v-2.26Z"/><path class="cls-4" d="M915.16,520.92a13.23,13.23,0,0,1-3.19,2.92,3.75,3.75,0,0,0,2.66,1.23c.65,0,.83-.53,1-2.14a5.09,5.09,0,0,0,1.76.9c-.35,2.71-1.08,3.37-2.84,3.37A6,6,0,0,1,910,525a31.8,31.8,0,0,1-5.35,2.16,10.19,10.19,0,0,0-1.21-1.86,24.55,24.55,0,0,0,5.4-1.88,14.85,14.85,0,0,1-1.43-3.32H902v1.36l4.15-.3v1.63c-1.38.13-2.79.25-4.15.35V525c0,1.13-.25,1.63-1.08,1.88a13.85,13.85,0,0,1-3.92.3,10.12,10.12,0,0,0-.68-1.83c1.26.08,2.59.08,2.92.05s.5-.1.5-.45v-1.63l-5,.4-.2-1.81c1.43-.08,3.24-.18,5.23-.33v-1.51h-5.13v-1.78h5.13v-1.41c-1.46.15-2.92.25-4.27.3a5.58,5.58,0,0,0-.5-1.46,59.1,59.1,0,0,0,9.45-1.16l1.38,1.41c-1.11.28-2.41.48-3.79.68v1.63h5a24.6,24.6,0,0,1-.45-3.47h2.26a18.65,18.65,0,0,0,.45,3.47h5a18.25,18.25,0,0,0-4-2.31l1.31-1.36a15.52,15.52,0,0,1,4.12,2.21l-1.33,1.46H917v1.78h-7.19a10.79,10.79,0,0,0,1,2.24,9.72,9.72,0,0,0,2.36-2.11Zm1.71-6.41H894.68v-1.83h9.85V511.4h-7.41v-1.68h7.41v-1.28h-8.75v-1.76h4.83a10.48,10.48,0,0,0-1.21-1.83l2-.68a8.85,8.85,0,0,1,1.66,2.46l-.13.05h5.58a22.7,22.7,0,0,0,1.33-2.56l2.54.55c-.5.73-1,1.43-1.43,2h4.8v1.76h-8.87v1.28h7.54v1.68h-7.54v1.28h10Z"/><path class="cls-4" d="M897.95,545.85a25.56,25.56,0,0,1-2.24,5.33,11.86,11.86,0,0,0-1.66-1,19.64,19.64,0,0,0,2-4.83Zm3-1.43v8h-2v-8h-4.65v-1.86h1.08V530.4h8.87v12.16h1v1.86Zm-3.62-12.29v1.56h5v-1.56Zm5,3.07h-5v1.48h5Zm-5,4.35h5v-1.38h-5Zm0,3h5v-1.51h-5Zm6,2.69a21,21,0,0,1,1.78,3.77l-1.63.75a21.58,21.58,0,0,0-1.71-3.85Zm5.86.1a24.31,24.31,0,0,1-2.92,6,13.18,13.18,0,0,0-1.61-1,17.91,17.91,0,0,0,2.51-5.45ZM914.51,531a35.54,35.54,0,0,1-8.65,3.47,7.93,7.93,0,0,0-.73-1.66,30.16,30.16,0,0,0,7.82-3.54Zm-2.44,12.77v7c0,.88-.15,1.26-.75,1.48a7.29,7.29,0,0,1-2.61.28,7.17,7.17,0,0,0-.55-1.51h1.63c.25,0,.3-.08.3-.3v-6.86a19.26,19.26,0,0,0-4,.48,15.75,15.75,0,0,0-.6-1.86,6.38,6.38,0,0,0,2.34-1.33,41.2,41.2,0,0,0,3.29-2.84c-3.74.28-4.42.4-4.88.58a11.92,11.92,0,0,0-.55-1.78,4.1,4.1,0,0,0,1.48-.7,20.76,20.76,0,0,0,4-3.47l1.71.88a27.89,27.89,0,0,1-3.44,2.84l3.47-.18c.6-.63,1.18-1.28,1.73-1.94l1.63,1.13a52.72,52.72,0,0,1-6.91,6.38l4.88-.25c-.4-.78-.85-1.56-1.28-2.21l1.58-.75a32.19,32.19,0,0,1,2.74,5l-1.71.88c-.13-.35-.28-.73-.48-1.16Zm2.46.88c.93,1.73,2.11,4,2.64,5.33l-1.83.88a48.17,48.17,0,0,0-2.54-5.45Z"/><path class="cls-4" d="M1070.67,444.29v2h-21.91v-2h10c-.23-.68-.48-1.43-.7-2.06l2.36-.55c.33.8.73,1.81,1,2.61Zm-.68,18.25c0,1.11-.28,1.53-1.06,1.83a11.56,11.56,0,0,1-3.62.28,7.87,7.87,0,0,0-.73-1.73c1.06.05,2.31.05,2.59,0s.45-.1.45-.4v-6.76h-15.78v9.07h-2.29v-11H1070Zm-2.56-15.05v5.15h-15.08v-5.15Zm-11,14.83v1.16h-2.16V457h10.66v5.3Zm8.52-13.19h-10.3V451H1065Zm-8.52,9.57v1.94h6.43v-1.94Z"/><path class="cls-4" d="M1053.78,473.42c-.78,4.83-2,8.95-4,12a17.56,17.56,0,0,0-2-1.33c1.88-2.59,3-6.33,3.72-10.63h-2.76v-2.24h3.12c.18-1.31.3-2.66.4-4l2.24.2c-.12,1.31-.28,2.59-.43,3.82h5v2.24Zm3.92,7.44a58.23,58.23,0,0,1,2.06,7.79l-1.88.68c-.08-.55-.2-1.13-.33-1.78-5,.9-5.8,1.11-6.28,1.41a11.35,11.35,0,0,0-.73-2c.48-.15.86-.88,1.36-2a44.66,44.66,0,0,0,2.81-8.92l2.21.53a56.06,56.06,0,0,1-3.54,9.73l3.75-.63c-.35-1.46-.78-3-1.16-4.27ZM1071,489h-8.54v1.23h-2.06V475.5a18,18,0,0,1-1.66,2.39,11.12,11.12,0,0,0-1.36-1.83,24.6,24.6,0,0,0,4.4-8.77l2,.53a39,39,0,0,1-1.51,4h8.47v2.06h-3.09v3h3v2h-3v3h3v2h-3v3H1071Zm-8.54-15.05v3h3.07v-3Zm3.07,5h-3.07v3h3.07Zm-3.07,8h3.07v-3h-3.07Zm4-19.38a20.38,20.38,0,0,1,1.68,3.57l-2.09.78a23.33,23.33,0,0,0-1.58-3.69Z"/><path class="cls-4" d="M1060.89,498.37v3.12H1069v8.62c0,1.23-.25,1.94-1.18,2.29a13.13,13.13,0,0,1-4.37.4,8.08,8.08,0,0,0-.83-2.29c1.51.05,3,.05,3.42.05s.55-.13.55-.48v-6.31h-5.66v11.76h-2.44V503.77h-5.3v9.07h-2.36V501.49h7.67v-3.12h-10v-2.29h10.4c-.4-1-1-2.14-1.48-3.07l2.29-.68a28.06,28.06,0,0,1,1.91,3.74H1071v2.29Z"/><path class="cls-4" d="M1795.16,501.3c-.33-.75-1-1.94-1.58-3v12.59h-2.21v-10.3a24.2,24.2,0,0,1-2.24,5.5,18.5,18.5,0,0,0-1.16-2.34,27.35,27.35,0,0,0,3.29-9h-2.94v-2.16h3V487.8h2.21v4.72h2.26v2.16h-2.26v.7c.73.93,2.56,3.54,3,4.2Zm7.31-13.47v10.35c0,4.62-.63,9.88-5.63,12.77a10.5,10.5,0,0,0-1.48-1.71c3.27-1.53,4.4-4.27,4.8-7.11L1796.9,505l-1.16-2.19c1.18-.7,2.89-1.94,4.6-3.17,0-.5,0-1,0-1.46V487.83Zm-4.25,3.64a27.66,27.66,0,0,1,2.14,5.18l-1.86.83a25.36,25.36,0,0,0-2-5.3Zm10.73,17c.5,0,.6-.65.65-3a5.7,5.7,0,0,0,2,1c-.23,3-.75,4.15-2.44,4.15h-2.24c-1.86,0-2.41-.68-2.41-3.29V487.8h2.21v11.61l.68-.58a38.44,38.44,0,0,1,4.17,4.35l-1.48,1.46a34.28,34.28,0,0,0-3.37-3.82v6.43c0,1,.08,1.18.6,1.18Zm2.21-16.29c-.9,1.78-1.93,3.82-2.79,5.18l-1.66-.78a32.24,32.24,0,0,0,2.31-5.28Z"/><path class="cls-4" d="M1810.24,514.22v22H1808v-1h-16.49v1h-2.19v-22ZM1808,533.14V516.33h-16.49v16.81Zm-7.31-3.24a5.37,5.37,0,0,0,0,1.43c-4.47,1.21-5.15,1.38-5.55,1.66a4.24,4.24,0,0,0-.58-1.33,1.29,1.29,0,0,0,.91-1.36v-1.43c-.8.3-1.61.58-2.39.8a9.28,9.28,0,0,0-1.13-1.36,24.84,24.84,0,0,0,5.3-1.81H1794v-3.64h11.56v3.64h-5.71a13.84,13.84,0,0,1-2.69,1.61v2.59Zm6.23-7.89h-14.32v-1.38h6.06v-1.31h-4.72V518h4.72v-1.23h2.11V518h5v1.36h-5v1.31h6.16ZM1796,525.4h7.54V524H1796Zm11,2.44a20.36,20.36,0,0,1-2.51,1.53c1,.7,1.93,1.38,2.61,2l-1.53.93a47.45,47.45,0,0,0-6.41-4.52l1.43-.83c.8.48,1.73,1,2.61,1.61a19.77,19.77,0,0,0,2.34-1.58Z"/><path class="cls-4" d="M1800.89,544.37v3.12H1809v8.62c0,1.23-.25,1.94-1.18,2.29a13.13,13.13,0,0,1-4.37.4,8.08,8.08,0,0,0-.83-2.29c1.51.05,3,.05,3.42.05s.55-.13.55-.48v-6.31h-5.66v11.76h-2.44V549.77h-5.3v9.07h-2.36V547.49h7.67v-3.12h-10v-2.29h10.4c-.4-1-1-2.14-1.48-3.07l2.29-.68a28.06,28.06,0,0,1,1.91,3.74H1811v2.29Z"/><rect class="cls-5" x="897.75" y="568.75" width="111" height="111"/><rect class="cls-5" x="689.75" y="401.75" width="124" height="124"/><rect class="cls-5" x="455.75" y="114.75" width="197" height="197"/><rect class="cls-5" x="1793.25" y="579.25" width="82" height="82"/><rect class="cls-5" x="1054.25" y="531.25" width="81" height="81"/></g><g id="說明"><rect class="cls-6" x="1524.68" y="917.5" width="27" height="27"/><rect class="cls-7" x="1573" y="917.5" width="27" height="27"/><path class="cls-8" d="M1534.61,974c-.08,1.87-.3,4-.3,4H1545a11.19,11.19,0,0,1-.1,1.32c-.48,6.94-1,9.7-2,10.73a3.4,3.4,0,0,1-2.39,1,35.43,35.43,0,0,1-4.25-.05,4.62,4.62,0,0,0-.83-2.29c1.79.15,3.49.18,4.2.18a1.76,1.76,0,0,0,1.21-.3c.7-.58,1.56-8.56,1.56-8.56H1534s-2.64,8.89-7.29,11.4a7.19,7.19,0,0,0-1.71-1.91c6.23-3.17,7.06-14.49,7.06-14.49h-7v-2h11.19a15.43,15.43,0,0,0-1.58-4.11l2.29-.85a25.41,25.41,0,0,1,1.78,3.64L1537,973h10v1Z"/><path class="cls-8" d="M1557.78,984.52c-2.44,1.13-5,2.29-7.08,3.17l-.67-2.39c.83-.28,1.84-.68,3-1.13V976h-3v-2h3v-6h2v6h3v2h-3v7.39l2.37-1Zm13.07,4.48c.61,0,.76-.29.84-1.92a5.33,5.33,0,0,0,1.8.83c-.2,2.43-.81,3.09-2.46,3.09h-3.27c-2.23,0-2.76-.61-2.76-2.85V981h-1.34c-.34,4.42-1.22,7.91-5,9.9a6.35,6.35,0,0,0-1.3-1.7c3.31-1.58,4-4.54,4.3-8.2H1559V971h2.24a24.82,24.82,0,0,0,.79-2.5l2.49.32a22.13,22.13,0,0,1-1,2.18h8.5v10h-5v7.12c0,.77.15.88,1,.88ZM1561,975h3v-2h-3Zm0,4h3v-2h-3Zm9-6h-3v2h3Zm0,4h-3v2h3Zm2.1,10.43c-.08-.23-.15-.5-.25-.75-3.19.38-3.74.48-4.07.63a10.06,10.06,0,0,0-.53-1.43c.28-.05.53-.33.73-.73a12.82,12.82,0,0,0,1.33-3.52l1.48.45a21.89,21.89,0,0,1-1.63,3.62l2.21-.2c-.28-.65-.55-1.31-.83-1.88l1.11-.43a29,29,0,0,1,1.61,3.69Z"/><path class="cls-8" d="M1589,977c1.71,5.83,4.88,10.08,9.63,12.07a9.25,9.25,0,0,0-1.73,2.19c-4.7-2.19-7.74-6.26-9.7-11.59a17.39,17.39,0,0,1-9.7,11.59,8.15,8.15,0,0,0-1.78-2c6-2.61,8.42-7.14,9.42-12.29H1576v-2h9.43a63.63,63.63,0,0,0,.3-7h2.56a64.24,64.24,0,0,1-.35,7H1598v2Z"/><path class="cls-8" d="M1607.43,974.82c-.83,3.67-2.24,8.22-4.42,11a10.88,10.88,0,0,0-2.24-1.23c2.11-2.61,3.44-6.94,4-10.25ZM1614,969v19.21c-.16,1.56-.56,2.24-1.54,2.64a15.66,15.66,0,0,1-5,.43,11.22,11.22,0,0,0-.93-2.44c1.71.08,3.54.08,4.07.05s.7-.18.4-.68V969Zm5.57,5.14a40.68,40.68,0,0,1,4.83,11.11l-2.54,1a42.57,42.57,0,0,0-4.55-11.26Z"/><path class="cls-8" d="M1647,976v2h-18v-2Zm-18,6h18v2h-18Z"/><path class="cls-8" d="M1535.43,1024.19c-3.42,1.56-7.11,3.14-9.9,4.32l-.85-2.44c1-.35,2.14-.8,3.42-1.31l-.48-15.1,2.44-.1.43,14.22c1.46-.6,2.94-1.23,4.4-1.86Zm10.73,7.06a55.62,55.62,0,0,0-5.2-6.36,17.92,17.92,0,0,1-8.17,6.46,11.81,11.81,0,0,0-1.88-2.06c8.34-3.09,11-9.15,12-19.73l2.56.25c-.58,5.28-1.51,9.5-3.19,12.87a62.71,62.71,0,0,1,5.86,6.69Zm-9.52-12.79a24.94,24.94,0,0,0-3.82-6.16l2.14-1a24,24,0,0,1,3.95,6Z"/><path class="cls-8" d="M1551,1027h4v-13h-3v-1.6a10.79,10.79,0,0,0,3.89-1.4H1558v16h4v2h-11Z"/><path class="cls-8" d="M1564.91,1020c0-6.41,2.34-9.52,6-9.52s6,3.14,6,9.52-2.36,9.65-6,9.65S1564.91,1026.43,1564.91,1020Zm9.2,0c0-5.3-1.33-7.24-3.22-7.24s-3.22,1.94-3.22,7.24,1.33,7.36,3.22,7.36S1574.11,1025.35,1574.11,1020Z"/><path class="cls-8" d="M1579.49,1020c0-6.41,2.34-9.52,6-9.52s6,3.14,6,9.52-2.36,9.65-6,9.65S1579.49,1026.43,1579.49,1020Zm9.2,0c0-5.3-1.33-7.24-3.22-7.24s-3.22,1.94-3.22,7.24,1.33,7.36,3.22,7.36S1588.68,1025.35,1588.68,1020Z"/><path class="cls-8" d="M1600,1012h-6v-3h6v-1h2v2h3v2h-3v1h-2Zm15,17c0,1.05-.15,1.63-.84,1.95a7.2,7.2,0,0,1-3.16.37,8.92,8.92,0,0,0-.62-1.89l-.44.16a9.26,9.26,0,0,0-.42-1.45c-3.76.26-7.61.47-10.33.66l-.17-2.11,5-.21V1024h-6v7h-2v-7h-1v-3h1v1h8v-1h-7v-8h17v8h-7v1h8Zm-16-12h5v-2h-5Zm5,3v-2h-5v2Zm13-11v3h-6v1h-2v-1h-3v-3h3v-1h2v1Zm-6,6h-5v2h5Zm0,3h-5v2h5Zm-.28,11.13c.92,0,1.65,0,1.89,0s.39-.08.39-.35V1024h-7v2.26l2.67-.13c-.29-.5-.6-1-.92-1.43l1.81-.45a14.41,14.41,0,0,1,2.36,4.52Z"/><path class="cls-8" d="M1639,1029c.93-.34,1.08-1,1.18-4.71a7.46,7.46,0,0,0,2.19,1c-.25,4.35-.85,5.58-3.19,5.7h-3.34c-2.49-.12-2.8-3.37-2.8-3.37V1019h-4.64c-.45,5.54-1.58,9.89-7.49,12.25a6.14,6.14,0,0,0-1.46-1.88c5.25-2,6.11-5.7,6.46-10.37H1620v-2h22v2h-7v8.61a2,2,0,0,0,1.13,1.39Zm1-17h-18v-2h18Z"/><path class="cls-8" d="M1667,1012h-3v16.19c.4,1.51,0,2.29-1,2.64s-2.84.45-5.35.45a10.36,10.36,0,0,0-1-2.51c1.91.1,4,.08,4.6.08s.73-.18.77-.7V1012h-17v-2h22Zm-17,13v2h-2v-11h10v9Zm0-7v5h6v-5Z"/><path class="cls-8" d="M1679.81,1028.21a32.21,32.21,0,0,1-7.82,3.17,16.44,16.44,0,0,0-1.76-1.73,29.11,29.11,0,0,0,7.44-2.39ZM1691,1009v6h-19v-6Zm-1,7v11h-17v-11Zm-16-3h4v-2h-4Zm2,7h12v-2h-12Zm0,3h12v-2h-12Zm0,3h12v-2h-12Zm4-13h4v-2h-4Zm5.23,14.28a80.45,80.45,0,0,1,7.82,2.84l-2.49,1.21a55.43,55.43,0,0,0-7.16-2.81ZM1685,1013h4v-2h-4Z"/><path class="cls-8" d="M1704,1026.47c1.5-.28,3-.58,4.54-.88l.11,2c-4,.85-8.27,1.73-11.27,2.36l-.45-2.21c1.36-.2,3.16-.53,5.07-.9V1023h-5v-2h5v-2h2v2h5v2h-5Zm-8-16.47h13v2h-6.77a27.11,27.11,0,0,1-2.58,4.1l5.6-.42c-.56-.79-1.11-1.58-1.67-2.25l1.7-1a32.81,32.81,0,0,1,3.7,5.26l-1.82,1.14a14.73,14.73,0,0,0-.73-1.36c-7.48.62-8.44.74-9.12,1a19.54,19.54,0,0,0-.76-2.1c.4-.1.78-.52,1.22-1.11a22,22,0,0,0,1.87-3.31H1696Zm16,15h-2v-15h2Zm5-16v19c.4,1.33.1,2-.71,2.36a11.46,11.46,0,0,1-4.1.43,8.25,8.25,0,0,0-.83-2.26c1.41.05,2.79.05,3.19,0s.55-.13.44-.55v-19Z"/><path class="cls-8" d="M1742.48,1012s0,.75,0,1c-.33,10.61-.61,14.26-1.55,15.43a2.63,2.63,0,0,1-2,1.11,25.36,25.36,0,0,1-3.55,0,5.13,5.13,0,0,0-.71-2.12c1.51.12,2.87.14,3.46.14a1.05,1.05,0,0,0,1-.4c.75-.78,1.06-4.33,1.36-13.2h-5.55a23.67,23.67,0,0,1-2.14,4,11.56,11.56,0,0,0-1.72-1.22V1029h-7v1h-2v-18h2.83a28.09,28.09,0,0,0,.89-4l2.55.42c-.43,1.23-.91,2.54-1.31,3.57h4v4.56a22.47,22.47,0,0,0,3.51-8.26l2.12.49c-.28,1.08-.59,2.16-1,3.2Zm-18.48,2v5h5v-5Zm5,13v-6h-5v6Zm8.13-2.31a41,41,0,0,0-3.67-5.81l1.83-1a45.12,45.12,0,0,1,3.79,5.6Z"/><path class="cls-8" d="M1758.31,1022a10.28,10.28,0,0,1-.3,2h8.76s0,.66-.05,1c-.36,3.62-.71,5.21-1.43,5.92a2.87,2.87,0,0,1-1.95.71,29.35,29.35,0,0,1-3.51,0,5.58,5.58,0,0,0-.68-2.14,30.63,30.63,0,0,0,3.1.14,1.39,1.39,0,0,0,1-.22c.36-.36.63-1.31.88-3.37h-6.65s-2.86,4.2-6.56,5.33a5.55,5.55,0,0,0-1.28-1.81c4.72-1.28,6.38-7.52,6.38-7.52h-5a16.36,16.36,0,0,1-3.09,8.52,7.9,7.9,0,0,0-1.64-1.59c2.54-3.19,2.75-7.82,2.75-11.32V1010h-.29a106.75,106.75,0,0,0,16-2l1.79,1.86a100.83,100.83,0,0,1-15.5,1.94V1013h16v6h-15.7c0,.32,0,1-.08,2h7.24a7.2,7.2,0,0,0-.83-1.81l2.26-.53a8.1,8.1,0,0,1,1.16,2.34H1769v1Zm-7.31-7v2h14v-2Z"/><path class="cls-8" d="M1794,1029v2h-19v-2h9v-2h-6v-2h6v-1.93c-4.26.31-5,.41-5.61.64a16.61,16.61,0,0,0-.68-2.11,2.83,2.83,0,0,0,1.35-.77,16.26,16.26,0,0,0,2-1.83h-4.71c-.13,3.93-.74,8.8-2.9,12.17a9,9,0,0,0-2.11-1.12c2.47-3.85,2.67-9.34,2.67-13.2V1010h19v5h-16v2h17v2h-4.93a31.73,31.73,0,0,1,4.85,4.16l-2,1.23c-.4-.45-.91-1-1.55-1.63l-4.4.29V1025h6v2h-6v2Zm-18-18v2h14v-2Zm7.62,8a30.69,30.69,0,0,1-2.51,2.24l7.14-.38c-.5-.4-1-.8-1.48-1.16l1.18-.7Z"/><path class="cls-8" d="M1804.33,1022.26l.35,2.09c-2.33,1.08-4.78,2.11-6.73,2.92l-.8-2.36,2.85-1V1016h-3v-2h3v-6h2v6h2v2h-2v7.14ZM1820,1022h-7v9h-2v-8h-7v-2h7v-9h-6v-2h14v2h-6v8h7Zm-12.18-9.09a28.28,28.28,0,0,1,1.43,6l-2,.5a32.12,32.12,0,0,0-1.33-6Zm7.21,6a41.63,41.63,0,0,0,1.56-6.16l2.21.48c-.63,2.14-1.36,4.6-2,6.13Z"/><path class="cls-8" d="M1833.15,1030.88a26.7,26.7,0,0,0-3.14-1.68,24.73,24.73,0,0,1-7,2,5.23,5.23,0,0,0-.9-1.51,30.15,30.15,0,0,0,5.75-1.43c-1.23-.5-2.49-.93-3.67-1.28a16.77,16.77,0,0,0,1.21-1.56l-2.64.15-.18-1.66c1.11,0,2.46-.1,3.92-.15.38-.63,1-1.76,1-1.76H1823v-4h5v-1h-4v-3h-2v-1h2v-3h4v-2h2v2h4v3h2v1h-2v3h-4v1h5v4h-5.39l-.93,1.66,3.32-.18V1023h2v.39l1-.05v1.53l-1.22.08a5.25,5.25,0,0,1-2,3.12c1.11.53,2.11,1.06,2.89,1.48ZM1825,1020h3v-1h-3Zm1-9v1h2v-1Zm2,4v-1h-2v1Zm-.4,10.3c-.2.33-.4.6-.63.9.93.3,1.94.68,2.87,1.06a4.57,4.57,0,0,0,2-2.19Zm2.4-14.3v1h2v-1Zm2,4v-1h-2v1Zm-2,4v1h3v-1Zm13.34-4a32.64,32.64,0,0,1-2.12,9.24,11.16,11.16,0,0,0,4,4.73,5.94,5.94,0,0,0-1.32,1.59,12.42,12.42,0,0,1-3.71-4.27,14,14,0,0,1-4.37,4.68,7.24,7.24,0,0,0-1.17-1.68,11.88,11.88,0,0,0,4.54-5.15,31.31,31.31,0,0,1-1.63-5.76,18.32,18.32,0,0,1-1.15,2.29,10.35,10.35,0,0,0-1.49-1.41c1.63-2.56,2.51-6.58,3-10.68l1.93.24c-.2,1.41-.41,2.83-.71,4.17H1845v2Zm-4.51,0a38.15,38.15,0,0,0,1.51,6.81,35.75,35.75,0,0,0,1.28-6.81Z"/><line class="cls-9" x1="958.5" y1="20.36" x2="958.5" y2="1062.64"/><polygon class="cls-8" points="955.6 22.34 958.5 11.5 961.4 22.34 955.6 22.34"/><polygon class="cls-8" points="955.6 1060.66 958.5 1071.5 961.4 1060.66 955.6 1060.66"/><line class="cls-9" x1="1904.64" y1="607.5" x2="107.86" y2="607.25"/><polygon class="cls-8" points="1902.66 604.59 1913.5 607.5 1902.66 610.4 1902.66 604.59"/><polygon class="cls-8" points="109.84 604.35 99 607.25 109.84 610.16 109.84 604.35"/><rect class="cls-2" x="413.75" y="583.75" width="80" height="80"/><rect class="cls-2" x="725.75" y="589.75" width="93" height="93"/><rect class="cls-10" x="741.75" y="629.75" width="77" height="77"/><rect class="cls-11" x="775.75" y="613.75" width="76" height="76"/><rect class="cls-2" x="908.25" y="669.25" width="84" height="84"/><rect class="cls-2" x="1035.75" y="635.75" width="82" height="82"/><rect class="cls-2" x="1118.25" y="482.25" width="73" height="73"/><rect class="cls-2" x="1324.75" y="518.75" width="43" height="43"/><rect class="cls-2" x="1217.25" y="626.25" width="85" height="85"/><rect class="cls-11" x="1228.25" y="621.25" width="79" height="79"/><rect class="cls-2" x="1757.75" y="608.75" width="74" height="74"/><rect class="cls-11" x="1049.75" y="618.75" width="61" height="61"/><line class="cls-12" x1="1080.75" y1="649.75" x2="1080.75" y2="821.75"/><line class="cls-12" x1="1268.25" y1="662.75" x2="1268.25" y2="821.25"/><rect class="cls-10" x="341.75" y="619.75" width="90" height="90"/><rect class="cls-2" x="554.75" y="488.75" width="114" height="114"/><rect class="cls-2" x="515.75" y="602.75" width="87" height="87"/><rect class="cls-10" x="602.75" y="597.75" width="85" height="85"/><rect class="cls-10" x="545.75" y="607.75" width="109" height="109"/><rect class="cls-1" x="871" y="99" width="174" height="64" transform="translate(1089 -827) rotate(90)"/><rect class="cls-1" x="879.5" y="926.5" width="157" height="64" transform="translate(-0.5 1916.5) rotate(-90)"/><path class="cls-8" d="M953.52,62.21a24.51,24.51,0,0,1-3.08,4,10,10,0,0,0-1.66-1.1,18.33,18.33,0,0,0,4.58-6.58l1.86.54c-.22.48-.46,1-.74,1.48h12v1.68ZM964.26,70c-.06,1.08-.12,2-.2,2.74h2.32v1.62h-2.52a4.08,4.08,0,0,1-.56,1.78,1.89,1.89,0,0,1-1.5.82,18.73,18.73,0,0,1-2.6,0,3.71,3.71,0,0,0-.44-1.48c1,.08,1.8.1,2.2.1a.79.79,0,0,0,.72-.3,2.4,2.4,0,0,0,.34-.92h-11.1c.26-1.2.5-2.74.74-4.36h-2.78V68.31h3c.2-1.5.38-3,.5-4.3h12s0,.6,0,.84c0,1.3-.08,2.44-.12,3.46h2.82V70Zm-10.72-.06c-.14,1-.28,1.94-.4,2.8h5.38a16.33,16.33,0,0,0-3.08-2l.82-.8Zm.58-4.3c-.12.88-.24,1.82-.36,2.74h5.12a16.17,16.17,0,0,0-3-1.9l.88-.84Zm8.12,7.1c.08-.74.14-1.66.2-2.8H956.9A14.25,14.25,0,0,1,960,72l-.7.72Zm.26-4.36c0-.82.06-1.74.08-2.74h-5.34a12.39,12.39,0,0,1,3.08,2l-.76.78Z"/><path class="cls-8" d="M959,79c0,.76,0,1.8-.14,3,.28,2.5,1.5,10.48,8.48,13.58a5.52,5.52,0,0,0-1.36,1.58c-4.7-2.22-6.88-6.62-7.94-10.2a15.94,15.94,0,0,1-7.64,10.3,5.74,5.74,0,0,0-1.54-1.48c8.18-4.24,8-13.56,8-16.76Z"/><path class="cls-8" d="M966.9,102.45h-2.38V115.1c0,1.2-.3,1.82-1.14,2.1a13.54,13.54,0,0,1-4.26.36,8.29,8.29,0,0,0-.78-2c1.52.08,3.18.06,3.66.06s.58-.14.58-.56v-12.6H949.14v-1.86H966.9Zm-14,10.14v1.56h-1.8v-9.08h8.24v7.52Zm0-5.76v4h4.6v-4Z"/><path class="cls-8" d="M955,124.57a22.48,22.48,0,0,1-1.68,2.48v10.8h-1.8v-8.74a20.54,20.54,0,0,1-2.1,1.94,13.71,13.71,0,0,0-.94-1.88,18.38,18.38,0,0,0,4.88-5.26Zm-.28-4.3a20.1,20.1,0,0,1-5,4.82,10.36,10.36,0,0,0-1-1.54,14.72,14.72,0,0,0,4.16-4ZM967,132.56h-2.86v3.38c0,.92-.18,1.38-.84,1.64a8.59,8.59,0,0,1-3,.3,7.68,7.68,0,0,0-.6-1.68c1,0,2,0,2.24,0s.38-.08.38-.32v-3.34h-7.7V131h7.7V129.5H955V128H966.6v1.54h-2.48V131H967Zm-9.56.12a17.49,17.49,0,0,1,2.46,2.7l-1.4,1a17.7,17.7,0,0,0-2.38-2.82Zm8.38-5.86h-9.64v-6.7h9.64Zm-1.88-5.34h-6v1.34h6Zm0,2.62h-6v1.34h6Z"/><path class="cls-8" d="M956.26,149.29h10.42v8.82H964.9v-.84H958v.88h-1.72v-7.4l-.88,1.22c-.4-.52-1.16-1.4-1.84-2.1v8.28h-1.82V151a17.33,17.33,0,0,1-2.4,2.06,6.49,6.49,0,0,0-.9-1.74,15.63,15.63,0,0,0,5.44-6.12h-4.7v-1.68h5.64l.32-.06,1,.66a20.49,20.49,0,0,1-2.18,4.14c.58.48,1.72,1.5,2.28,2Zm-4.16-5.82a23.11,23.11,0,0,0-1.54-2.9l1.46-.64a24.55,24.55,0,0,1,1.58,2.8Zm14.68-2.74v1.58H956.16v-1.58Zm-1,2.68v4.78h-8.52v-4.78Zm-7.82,7.4v1.74h2.56v-1.74Zm0,5h2.56V154H958Zm6.1-10.9h-5.14v1.86h5.14Zm.82,5.94h-2.68v1.74h2.68Zm0,5V154h-2.68v1.8Z"/><path class="cls-8" d="M955,166h3.88v1.72H955v.62c1,.84,3.12,2.9,3.68,3.44l-1.06,1.58c-.56-.7-1.66-1.94-2.62-2.94v8H953.1v-7.92a20.22,20.22,0,0,1-3.44,5.32,11.45,11.45,0,0,0-1-1.82,19.14,19.14,0,0,0,4.06-6.28H949.1V166h4v-3c-1.22.24-2.44.42-3.58.56a6.78,6.78,0,0,0-.58-1.44,37.07,37.07,0,0,0,8.14-2l1.34,1.42a21.5,21.5,0,0,1-3.46,1Zm7.1,7.46h-1.84v-11h1.84Zm4.22-13.12V176c0,1.18-.28,1.72-1,2a11.14,11.14,0,0,1-3.72.36,7.3,7.3,0,0,0-.66-1.92c1.34.06,2.6.06,3,.06s.52-.14.52-.52V160.37Z"/><path class="cls-8" d="M966.88,189.89c-2.78,5.94-9.44,8.16-16.72,8.94a6.22,6.22,0,0,0-.74-1.8,32.06,32.06,0,0,0,9-1.92,25.54,25.54,0,0,0-2.5-2.22q-1.32.69-2.88,1.32a5.39,5.39,0,0,0-1.16-1.44,17.49,17.49,0,0,0,8.32-5.42l2,.46a16.91,16.91,0,0,1-1.26,1.42h4.28l.32-.08Zm-2.8-7.14c-2.54,4.5-8.28,7.06-13.66,8.14a7.65,7.65,0,0,0-.88-1.64,27.88,27.88,0,0,0,6.32-1.84,16.38,16.38,0,0,0-2.38-2.08c-.66.36-1.36.74-2.1,1.08a5.74,5.74,0,0,0-1.26-1.34,17,17,0,0,0,6.86-4.7l2,.46a12.55,12.55,0,0,1-1.24,1.28h4.78l.32-.1Zm-8.24,1a10,10,0,0,1-.94.66,21.92,21.92,0,0,1,2.62,2.16,13.62,13.62,0,0,0,3.68-2.82Zm3.24,7.14c-.48.38-1,.74-1.56,1.1a24.47,24.47,0,0,1,2.68,2.28,11.26,11.26,0,0,0,3.9-3.38Z"/><path class="cls-8" d="M953.52,890.21a24.51,24.51,0,0,1-3.08,4,10,10,0,0,0-1.66-1.1,18.33,18.33,0,0,0,4.58-6.58l1.86.54c-.22.48-.46,1-.74,1.48h12v1.68ZM964.26,898c-.06,1.08-.12,2-.2,2.74h2.32v1.62h-2.52a4.08,4.08,0,0,1-.56,1.78,1.89,1.89,0,0,1-1.5.82,18.73,18.73,0,0,1-2.6,0,3.71,3.71,0,0,0-.44-1.48c1,.08,1.8.1,2.2.1a.79.79,0,0,0,.72-.3,2.4,2.4,0,0,0,.34-.92h-11.1c.26-1.2.5-2.74.74-4.36h-2.78v-1.68h3c.2-1.5.38-3,.5-4.3h12s0,.6,0,.84c0,1.3-.08,2.44-.12,3.46h2.82V898Zm-10.72-.06c-.14,1-.28,1.94-.4,2.8h5.38a16.33,16.33,0,0,0-3.08-2l.82-.8Zm.58-4.3c-.12.88-.24,1.82-.36,2.74h5.12a16.17,16.17,0,0,0-3-1.9l.88-.84Zm8.12,7.1c.08-.74.14-1.66.2-2.8H956.9A14.25,14.25,0,0,1,960,900l-.7.72Zm.26-4.36c0-.82.06-1.74.08-2.74h-5.34a12.39,12.39,0,0,1,3.08,2l-.76.78Z"/><path class="cls-8" d="M959,907c0,.76,0,1.8-.14,3,.28,2.5,1.5,10.48,8.48,13.58a5.52,5.52,0,0,0-1.36,1.58c-4.7-2.22-6.88-6.62-7.94-10.2a15.94,15.94,0,0,1-7.64,10.3,5.74,5.74,0,0,0-1.54-1.48c8.18-4.24,8-13.56,8-16.76Z"/><path class="cls-8" d="M966.9,930.45h-2.38V943.1c0,1.2-.3,1.82-1.14,2.1a13.54,13.54,0,0,1-4.26.36,8.29,8.29,0,0,0-.78-2c1.52.08,3.18.06,3.66.06s.58-.14.58-.56v-12.6H949.14v-1.86H966.9Zm-14,10.14v1.56h-1.8v-9.08h8.24v7.52Zm0-5.76v4h4.6v-4Z"/><path class="cls-8" d="M955,952.57a22.48,22.48,0,0,1-1.68,2.48v10.8h-1.8v-8.74a20.54,20.54,0,0,1-2.1,1.94,13.71,13.71,0,0,0-.94-1.88,18.38,18.38,0,0,0,4.88-5.26Zm-.28-4.3a20.1,20.1,0,0,1-5,4.82,10.36,10.36,0,0,0-1-1.54,14.72,14.72,0,0,0,4.16-4ZM967,960.56h-2.86v3.38c0,.92-.18,1.38-.84,1.64a8.59,8.59,0,0,1-3,.3,7.68,7.68,0,0,0-.6-1.68c1,0,2,0,2.24,0s.38-.08.38-.32v-3.34h-7.7V959h7.7V957.5H955V956H966.6v1.54h-2.48V959H967Zm-9.56.12a17.49,17.49,0,0,1,2.46,2.7l-1.4,1a17.7,17.7,0,0,0-2.38-2.82Zm8.38-5.86h-9.64v-6.7h9.64Zm-1.88-5.34h-6v1.34h6Zm0,2.62h-6v1.34h6Z"/><path class="cls-8" d="M956.26,977.29h10.42v8.82H964.9v-.84H958v.88h-1.72v-7.4l-.88,1.22c-.4-.52-1.16-1.4-1.84-2.1v8.28h-1.82V979a17.33,17.33,0,0,1-2.4,2.06,6.49,6.49,0,0,0-.9-1.74,15.63,15.63,0,0,0,5.44-6.12h-4.7v-1.68h5.64l.32-.06,1,.66a20.49,20.49,0,0,1-2.18,4.14c.58.48,1.72,1.5,2.28,2Zm-4.16-5.82a23.11,23.11,0,0,0-1.54-2.9l1.46-.64a24.55,24.55,0,0,1,1.58,2.8Zm14.68-2.74v1.58H956.16v-1.58Zm-1,2.68v4.78h-8.52v-4.78Zm-7.82,7.4v1.74h2.56v-1.74Zm0,5h2.56V982H958Zm6.1-10.9h-5.14v1.86h5.14Zm.82,5.94h-2.68v1.74h2.68Zm0,5V982h-2.68v1.8Z"/><path class="cls-8" d="M955,994h3.88v1.72H955v.62c1,.84,3.12,2.9,3.68,3.44l-1.06,1.58c-.56-.7-1.66-1.94-2.62-2.94v8H953.1v-7.92a20.22,20.22,0,0,1-3.44,5.32,11.45,11.45,0,0,0-1-1.82,19.14,19.14,0,0,0,4.06-6.28H949.1V994h4v-3c-1.22.24-2.44.42-3.58.56a6.78,6.78,0,0,0-.58-1.44,37.07,37.07,0,0,0,8.14-2l1.34,1.42a21.5,21.5,0,0,1-3.46,1Zm7.1,7.46h-1.84v-11h1.84Zm4.22-13.12V1004c0,1.18-.28,1.72-1,2a11.14,11.14,0,0,1-3.72.36,7.3,7.3,0,0,0-.66-1.92c1.34.06,2.6.06,3,.06s.52-.14.52-.52V988.37Z"/><path class="cls-8" d="M966.88,1017.89c-2.78,5.94-9.44,8.16-16.72,8.94a6.22,6.22,0,0,0-.74-1.8,32.06,32.06,0,0,0,9-1.92,25.54,25.54,0,0,0-2.5-2.22q-1.32.69-2.88,1.32a5.39,5.39,0,0,0-1.16-1.44,17.49,17.49,0,0,0,8.32-5.42l2,.46a16.91,16.91,0,0,1-1.26,1.42h4.28l.32-.08Zm-2.8-7.14c-2.54,4.5-8.28,7.06-13.66,8.14a7.65,7.65,0,0,0-.88-1.64,27.88,27.88,0,0,0,6.32-1.84,16.38,16.38,0,0,0-2.38-2.08c-.66.36-1.36.74-2.1,1.08a5.74,5.74,0,0,0-1.26-1.34,17,17,0,0,0,6.86-4.7l2,.46a12.55,12.55,0,0,1-1.24,1.28h4.78l.32-.1Zm-8.24,1a10,10,0,0,1-.94.66,21.92,21.92,0,0,1,2.62,2.16,13.62,13.62,0,0,0,3.68-2.82Zm3.24,7.14c-.48.38-1,.74-1.56,1.1a24.47,24.47,0,0,1,2.68,2.28,11.26,11.26,0,0,0,3.9-3.38Z"/><path class="cls-8" d="M1765.1,419v1.86h-17.9V419H1755V408h-6.76v-1.92h15.8V408h-7v11Z"/><path class="cls-8" d="M1773.68,404.57a31.85,31.85,0,0,1-2,4.18v13.5h-1.88V411.69a18.06,18.06,0,0,1-1.64,2,11.24,11.24,0,0,0-1-1.92,22.25,22.25,0,0,0,4.76-7.72Zm6,4.42v2.54h5.44v1.7h-5.44v2.66h5.72v1.74h-5.72v4.64h-1.9V409h-1.12a20.69,20.69,0,0,1-2.72,4,11.23,11.23,0,0,0-1.44-1.26,21.25,21.25,0,0,0,4.32-7.6l1.78.48c-.32.86-.66,1.74-1,2.58h8V409Z"/><path class="cls-8" d="M1792.24,414.84a21.21,21.21,0,0,0-1-2.18v9.64h-1.6v-8.66a22,22,0,0,1-1.64,4.46,9.6,9.6,0,0,0-.78-1.86,22.91,22.91,0,0,0,2.32-6.8h-1.84v-1.72h1.94V404h1.6v3.76h1.5v1.72h-1.5v1.1c.46.66,1.58,2.52,1.82,3Zm12.38,1.42a11.06,11.06,0,0,1-2.32,3.1,2.48,2.48,0,0,0,1.72,1.12c.38,0,.62-.68.78-2.1a5.06,5.06,0,0,0,1.2.94c-.42,2.34-1.12,3-2,3a4,4,0,0,1-3-1.88,14.46,14.46,0,0,1-3.34,1.8,8.89,8.89,0,0,0-1-1.2,12.45,12.45,0,0,0,3.56-1.94,17.81,17.81,0,0,1-1.06-3.46h-3c0,.2,0,.42,0,.62a25.26,25.26,0,0,1,2.64,2.3l-1.14,1.12a18.77,18.77,0,0,0-1.78-1.7,7.51,7.51,0,0,1-2.84,4.36,5.91,5.91,0,0,0-1.24-1.1,6.63,6.63,0,0,0,2.8-5.6h-1.4v-1.46h5.74a80.56,80.56,0,0,1-.84-10.08h1.56a68,68,0,0,0,.86,10.08h2.4a14.27,14.27,0,0,0-1.44-1.08l.82-.74a5.61,5.61,0,0,0-1.42.36,13.37,13.37,0,0,0-.46-1.36c.32-.08.62-.4,1-.9a16.69,16.69,0,0,0,1.08-1.62,5.22,5.22,0,0,0-1.82.38,10.43,10.43,0,0,0-.46-1.32c.24-.06.46-.32.7-.68a13.68,13.68,0,0,0,1.32-3.06l1.38.38a20.55,20.55,0,0,1-1.64,3.18l1.18-.12a11.57,11.57,0,0,0,.64-1.32l1.38.5a27.94,27.94,0,0,1-2.8,4.34l1.62-.2c-.14-.34-.28-.72-.4-1l1.08-.3a20.75,20.75,0,0,1,1,2.92l-1.16.4-.22-.86-1.8.28a13.39,13.39,0,0,1,1.84,1.36l-.52.5h1.62v1.46h-4.64a15.76,15.76,0,0,0,.72,2.3,9.31,9.31,0,0,0,1.54-2.24Zm-7.44-3.1c0-.22-.08-.48-.14-.76-2.66.36-3.12.48-3.4.64a9.68,9.68,0,0,0-.46-1.34c.32-.06.66-.4,1-.9a16.91,16.91,0,0,0,1.12-1.64,6,6,0,0,0-1.88.4c-.08-.3-.3-1-.44-1.32a1.38,1.38,0,0,0,.74-.72,14.3,14.3,0,0,0,1.52-3.34l1.38.4a22.76,22.76,0,0,1-1.86,3.48l1.24-.12c.24-.42.46-.86.66-1.3l1.34.5a30.61,30.61,0,0,1-2.9,4.32l1.6-.2c-.12-.38-.26-.76-.38-1.1l1.12-.3a18.13,18.13,0,0,1,1,2.9Z"/><path class="cls-8" d="M1818.4,404.41c-.1.12-.18.26-.3.38a19.22,19.22,0,0,0,8.36,3.9,7.43,7.43,0,0,0-1.18,1.42c-.48-.14-1-.3-1.5-.48v5.18h-13.52v-5c-.5.18-1,.34-1.48.48a7.08,7.08,0,0,0-1-1.42c3.62-.92,7.16-2.66,9-5Zm5.3,5.2a19.77,19.77,0,0,1-3.2-1.42v.58h-6.92v-.48a21,21,0,0,1-2.9,1.32Zm-12.3,6h11.4v6.58h-1.9v-.54h-7.66v.62h-1.84Zm2.72-4.66a8.25,8.25,0,0,1,1,2.2l-1.32.44h2.36v-2.76h-4.34v2.76h1.92a8.63,8.63,0,0,0-.94-2.24Zm-.88,5.94V418h7.66v-1.1Zm7.66,3.5v-1.12h-7.66v1.12Zm-1.58-12.9a13.56,13.56,0,0,1-2.2-1.68,15.42,15.42,0,0,1-2.18,1.68Zm2.82,3.34h-4.44v2.76h2.24l-1.24-.38a14.92,14.92,0,0,0,1-2.34l1.56.44c-.44.86-.88,1.7-1.24,2.28h2.12Z"/><path class="cls-8" d="M1846.2,413.42c-2.78,5.94-9.44,8.16-16.72,8.94a6.2,6.2,0,0,0-.74-1.8,32.05,32.05,0,0,0,9-1.92,25.44,25.44,0,0,0-2.5-2.22q-1.32.69-2.88,1.32a5.4,5.4,0,0,0-1.16-1.44,17.49,17.49,0,0,0,8.32-5.42l2,.46a16.73,16.73,0,0,1-1.26,1.42h4.28l.32-.08Zm-2.8-7.14c-2.54,4.5-8.28,7.06-13.66,8.14a7.67,7.67,0,0,0-.88-1.64,27.89,27.89,0,0,0,6.32-1.84,16.4,16.4,0,0,0-2.38-2.08c-.66.36-1.36.74-2.1,1.08a5.72,5.72,0,0,0-1.26-1.34,17,17,0,0,0,6.86-4.7l2,.46a12.25,12.25,0,0,1-1.24,1.28h4.78l.32-.1Zm-8.24,1a9.89,9.89,0,0,1-.94.66,21.92,21.92,0,0,1,2.62,2.16,13.63,13.63,0,0,0,3.68-2.82Zm3.24,7.14c-.48.38-1,.74-1.56,1.1a24.5,24.5,0,0,1,2.68,2.28,11.25,11.25,0,0,0,3.9-3.38Z"/><line class="cls-9" x1="1855" y1="411.5" x2="1904.14" y2="411.5"/><polygon class="cls-8" points="1902.16 414.4 1913 411.5 1902.16 408.6 1902.16 414.4"/><path class="cls-8" d="M188.1,426v1.86H170.2V426H178V415h-6.76v-1.92h15.8V415h-7v11Z"/><path class="cls-8" d="M196.68,411.57a31.85,31.85,0,0,1-2,4.18v13.5h-1.88V418.69a18.06,18.06,0,0,1-1.64,2,11.24,11.24,0,0,0-1-1.92A22.25,22.25,0,0,0,194.9,411Zm6,4.42v2.54h5.44v1.7h-5.44v2.66h5.72v1.74h-5.72v4.64h-1.9V416H199.7a20.69,20.69,0,0,1-2.72,4,11.23,11.23,0,0,0-1.44-1.26,21.25,21.25,0,0,0,4.32-7.6l1.78.48c-.32.86-.66,1.74-1,2.58h8V416Z"/><path class="cls-8" d="M215.24,421.84a21.21,21.21,0,0,0-1-2.18v9.64h-1.6v-8.66A22,22,0,0,1,211,425.1a9.6,9.6,0,0,0-.78-1.86,22.91,22.91,0,0,0,2.32-6.8h-1.84v-1.72h1.94V411h1.6v3.76h1.5v1.72h-1.5v1.1c.46.66,1.58,2.52,1.82,3Zm12.38,1.42a11.06,11.06,0,0,1-2.32,3.1,2.48,2.48,0,0,0,1.72,1.12c.38,0,.62-.68.78-2.1a5.06,5.06,0,0,0,1.2.94c-.42,2.34-1.12,3-2,3a4,4,0,0,1-3-1.88,14.46,14.46,0,0,1-3.34,1.8,8.89,8.89,0,0,0-1-1.2,12.45,12.45,0,0,0,3.56-1.94,17.81,17.81,0,0,1-1.06-3.46h-3c0,.2,0,.42,0,.62a25.26,25.26,0,0,1,2.64,2.3l-1.14,1.12a18.77,18.77,0,0,0-1.78-1.7,7.51,7.51,0,0,1-2.84,4.36,5.91,5.91,0,0,0-1.24-1.1,6.63,6.63,0,0,0,2.8-5.6h-1.4v-1.46h5.74a80.56,80.56,0,0,1-.84-10.08h1.56a68,68,0,0,0,.86,10.08h2.4a14.27,14.27,0,0,0-1.44-1.08l.82-.74a5.61,5.61,0,0,0-1.42.36,13.37,13.37,0,0,0-.46-1.36c.32-.08.62-.4,1-.9a16.69,16.69,0,0,0,1.08-1.62,5.22,5.22,0,0,0-1.82.38,10.43,10.43,0,0,0-.46-1.32c.24-.06.46-.32.7-.68a13.68,13.68,0,0,0,1.32-3.06l1.38.38a20.55,20.55,0,0,1-1.64,3.18l1.18-.12a11.57,11.57,0,0,0,.64-1.32l1.38.5a27.94,27.94,0,0,1-2.8,4.34l1.62-.2c-.14-.34-.28-.72-.4-1l1.08-.3a20.75,20.75,0,0,1,1,2.92l-1.16.4-.22-.86-1.8.28a13.39,13.39,0,0,1,1.84,1.36l-.52.5h1.62v1.46H223.8a15.76,15.76,0,0,0,.72,2.3,9.31,9.31,0,0,0,1.54-2.24Zm-7.44-3.1c0-.22-.08-.48-.14-.76-2.66.36-3.12.48-3.4.64a9.68,9.68,0,0,0-.46-1.34c.32-.06.66-.4,1-.9a16.91,16.91,0,0,0,1.12-1.64,6,6,0,0,0-1.88.4c-.08-.3-.3-1-.44-1.32a1.38,1.38,0,0,0,.74-.72,14.3,14.3,0,0,0,1.52-3.34l1.38.4a22.76,22.76,0,0,1-1.86,3.48l1.24-.12c.24-.42.46-.86.66-1.3l1.34.5a30.61,30.61,0,0,1-2.9,4.32l1.6-.2c-.12-.38-.26-.76-.38-1.1l1.12-.3a18.13,18.13,0,0,1,1,2.9Z"/><path class="cls-8" d="M241.4,411.41c-.1.12-.18.26-.3.38a19.22,19.22,0,0,0,8.36,3.9,7.43,7.43,0,0,0-1.18,1.42c-.48-.14-1-.3-1.5-.48v5.18H233.26v-5c-.5.18-1,.34-1.48.48a7.08,7.08,0,0,0-1-1.42c3.62-.92,7.16-2.66,9-5Zm5.3,5.2a19.77,19.77,0,0,1-3.2-1.42v.58h-6.92v-.48a21,21,0,0,1-2.9,1.32Zm-12.3,6h11.4v6.58h-1.9v-.54h-7.66v.62H234.4Zm2.72-4.66a8.25,8.25,0,0,1,1,2.2l-1.32.44h2.36v-2.76h-4.34v2.76h1.92a8.63,8.63,0,0,0-.94-2.24Zm-.88,5.94V425h7.66v-1.1Zm7.66,3.5v-1.12h-7.66v1.12Zm-1.58-12.9a13.56,13.56,0,0,1-2.2-1.68,15.42,15.42,0,0,1-2.18,1.68Zm2.82,3.34H240.7v2.76h2.24l-1.24-.38a14.92,14.92,0,0,0,1-2.34l1.56.44c-.44.86-.88,1.7-1.24,2.28h2.12Z"/><path class="cls-8" d="M267,422c-2.74,4.44-8.06,6.46-15.1,7.3a6.16,6.16,0,0,0-.88-1.78c6.72-.64,11.8-2.36,14.3-6.32Zm-10.36-7.52a32.43,32.43,0,0,1-3.62,6.76,11.36,11.36,0,0,0-1.62-.9,23,23,0,0,0,3.46-6.32ZM261,411v12.26h-1.86V411Zm4.66,3a52.33,52.33,0,0,1,3.72,6.22l-1.6.94a50.26,50.26,0,0,0-3.62-6.38Z"/><line class="cls-9" x1="156" y1="420.5" x2="106.86" y2="420.5"/><polygon class="cls-8" points="108.84 417.6 98 420.5 108.84 423.4 108.84 417.6"/></g></svg>