<svg xmlns="http://www.w3.org/2000/svg" viewBox="0 0 841.89 595.28"><defs><style>.cls-1{fill:none;stroke:#000;stroke-miterlimit:10;}.cls-2,.cls-6,.cls-7,.cls-8{font-size:12px;font-family:NotoSansCJKtc-Medium-B5pc-H, Noto Sans CJK TC;}.cls-2{letter-spacing:0.06em;}.cls-3{opacity:0.61;}.cls-4{fill:#e61b1f;}.cls-5{fill:#8d8685;}.cls-6{fill:#fdfbfb;}.cls-7{fill:#777170;}.cls-8{writing-mode:tb;text-orientation:upright;glyph-orientation-vertical:0deg;fill:#231916;letter-spacing:0.05em;}</style></defs><title>coverphoto-01</title><g id="縣市名"><line class="cls-1" x1="6.04" y1="371.2" x2="834.66" y2="371.2"/><path d="M0,371.2A30.22,30.22,0,0,1,8.55,376L6.83,371.2l1.72-4.75A30.2,30.2,0,0,1,0,371.2Z"/><path d="M840.69,371.2a30.22,30.22,0,0,0-8.55,4.76l1.72-4.76-1.72-4.75A30.2,30.2,0,0,0,840.69,371.2Z"/><line class="cls-1" x1="393.83" y1="7.06" x2="393.83" y2="588.22"/><polygon points="393.83 0 389.76 9.95 393.83 7.59 397.89 9.95 393.83 0"/><polygon points="393.83 595.28 389.76 585.33 393.83 587.69 397.89 585.33 393.83 595.28"/><text class="cls-2" transform="translate(769.56 386.48)">工作機會多</text><text class="cls-2" transform="translate(15.6 386.48)">工作機會少</text><g class="cls-3"><rect class="cls-4" x="210.18" y="103.95" width="106.5" height="106.5"/></g><g class="cls-3"><rect class="cls-4" x="294.77" y="259.27" width="68.03" height="68.03"/></g><g class="cls-3"><rect class="cls-5" x="246.02" y="306.64" width="59.69" height="59.69"/></g><g class="cls-3"><rect class="cls-4" x="169.29" y="377.45" width="45.74" height="45.74"/></g><g class="cls-3"><rect class="cls-5" x="195.17" y="357.6" width="43.73" height="43.73"/></g><g class="cls-3"><rect class="cls-5" x="242.7" y="370.72" width="59.2" height="59.2"/></g><g class="cls-3"><rect class="cls-5" x="231.94" y="368.33" width="48.43" height="47.44"/></g><g class="cls-3"><rect class="cls-5" x="263.43" y="365.76" width="44.39" height="44.39"/></g><g class="cls-3"><rect class="cls-5" x="307.83" y="361.48" width="49.99" height="49.99"/></g><g class="cls-3"><rect class="cls-5" x="326.11" y="374.18" width="41.59" height="41.59"/></g><g class="cls-3"><rect class="cls-4" x="313.66" y="382.57" width="41.62" height="41.62"/></g><g class="cls-3"><rect class="cls-5" x="426.72" y="329.33" width="43.84" height="43.84"/></g><g class="cls-3"><rect class="cls-4" x="449.64" y="302.9" width="40.87" height="40.87"/></g><g class="cls-3"><rect class="cls-4" x="524.36" y="322.75" width="23.46" height="23.46"/></g><g class="cls-3"><rect class="cls-5" x="485.69" y="381.25" width="45.82" height="45.82"/></g><g class="cls-3"><rect class="cls-5" x="489.49" y="378.25" width="38.21" height="40.8"/></g><g class="cls-3"><rect class="cls-4" x="693.94" y="355.5" width="43.64" height="44.57"/></g><g class="cls-3"><rect class="cls-4" x="680.83" y="371.49" width="39.78" height="39.78"/></g><g class="cls-3"><rect class="cls-5" x="369.96" y="350.1" width="59.94" height="59.94"/></g><g class="cls-3"><rect class="cls-5" x="419.86" y="386.29" width="44.01" height="44.01"/></g><g class="cls-3"><rect class="cls-5" x="424.88" y="376.74" width="33.29" height="33.29"/></g><g class="cls-3"><rect class="cls-5" x="374.01" y="404.31" width="45.52" height="45.52"/></g><text class="cls-6" transform="translate(247.16 160.2)">連江縣</text><text class="cls-6" transform="translate(311.66 298.9)">澎湖縣</text><text class="cls-6" transform="translate(258.43 342.77)">台東縣</text><text class="cls-6" transform="translate(175.43 406.31)">嘉義市</text><text class="cls-6" transform="translate(200.43 384.57)">花蓮縣</text><text class="cls-6" transform="translate(235.91 396.65)">南投縣</text><text class="cls-6" transform="translate(270.29 390.38)">基隆市</text><text class="cls-6" transform="translate(256.83 421.19)">屏東縣</text><text class="cls-6" transform="translate(316.69 385.48)">雲林縣</text><text class="cls-6" transform="translate(316.69 415.77)">宜蘭縣</text><text class="cls-6" transform="translate(329.82 401.33)">台中市</text><text class="cls-6" transform="translate(382.69 385.48)">嘉義縣</text><text class="cls-6" transform="translate(379.69 432.64)">苗栗縣</text><text class="cls-6" transform="translate(452.64 328.29)">金門縣</text><text class="cls-6" transform="translate(430.9 356.5)">高雄市</text><text class="cls-6" transform="translate(423.88 397.64)">新北市</text><text class="cls-6" transform="translate(424.88 419.05)">彰化縣</text><text class="cls-6" transform="translate(490.51 403.38)">新竹市</text><text class="cls-6" transform="translate(489.49 421.19)">台南市</text><text class="cls-6" transform="translate(700.72 382.57)">桃園市</text><text class="cls-6" transform="translate(683.72 400.07)">新竹縣</text><text class="cls-7" transform="translate(551.83 336.48)">台北市</text><text class="cls-8" transform="translate(405.74 15.87)">每人可獲得的福利多</text><text class="cls-8" transform="translate(405.74 466.14)">每人可獲得的福利多</text></g></svg>