<svg xmlns="http://www.w3.org/2000/svg" viewBox="0 0 841.89 595.28"><defs><style>.cls-1{fill:none;stroke:#000;stroke-miterlimit:10;}.cls-2{font-size:13px;letter-spacing:0.06em;}.cls-2,.cls-3,.cls-7,.cls-8{font-family:NotoSansCJKtc-Medium-B5pc-H, Noto Sans CJK TC;}.cls-3,.cls-7,.cls-8{font-size:12px;}.cls-3{letter-spacing:0.06em;}.cls-4{opacity:0.61;}.cls-5{fill:#e61b1f;}.cls-6{fill:#8d8685;}.cls-7{fill:#fdfbfb;}.cls-8{fill:#777170;}</style></defs><title>main-graph</title><g id="縣市名"><line class="cls-1" x1="93.4" y1="366.17" x2="752.66" y2="366.17"/><path d="M87.36,366.17a30.22,30.22,0,0,1,8.55,4.76l-1.72-4.76,1.72-4.75A30.2,30.2,0,0,1,87.36,366.17Z"/><path d="M758.7,366.17a30.22,30.22,0,0,0-8.55,4.76l1.72-4.76-1.72-4.75A30.2,30.2,0,0,0,758.7,366.17Z"/><line class="cls-1" x1="392.9" y1="39.9" x2="392.9" y2="548.17"/><polygon points="392.9 32.84 388.83 42.78 392.9 40.42 396.96 42.78 392.9 32.84"/><polygon points="392.9 555.23 388.83 545.28 392.9 547.64 396.96 545.28 392.9 555.23"/><text class="cls-2" transform="translate(767.63 370.22) scale(0.92 1)">工作機會多</text><text class="cls-3" transform="translate(14.66 373.22)">工作機會少</text><g class="cls-4"><rect class="cls-5" x="209.25" y="98.92" width="106.5" height="106.5"/></g><g class="cls-4"><rect class="cls-5" x="293.84" y="254.24" width="68.03" height="68.03"/></g><g class="cls-4"><rect class="cls-6" x="245.09" y="301.61" width="59.69" height="59.69"/></g><g class="cls-4"><rect class="cls-5" x="168.36" y="372.43" width="45.74" height="45.74"/></g><g class="cls-4"><rect class="cls-6" x="194.24" y="352.57" width="43.73" height="43.73"/></g><g class="cls-4"><rect class="cls-6" x="241.76" y="365.7" width="59.2" height="59.2"/></g><g class="cls-4"><rect class="cls-6" x="231.01" y="363.3" width="48.43" height="47.44"/></g><g class="cls-4"><rect class="cls-6" x="262.5" y="360.74" width="44.39" height="44.39"/></g><g class="cls-4"><rect class="cls-6" x="306.89" y="356.45" width="49.99" height="49.99"/></g><g class="cls-4"><rect class="cls-6" x="325.18" y="369.15" width="41.59" height="41.59"/></g><g class="cls-4"><rect class="cls-5" x="312.73" y="377.55" width="41.62" height="41.62"/></g><g class="cls-4"><rect class="cls-6" x="425.79" y="324.31" width="43.84" height="43.84"/></g><g class="cls-4"><rect class="cls-5" x="448.71" y="297.87" width="40.87" height="40.87"/></g><g class="cls-4"><rect class="cls-5" x="523.43" y="317.73" width="23.46" height="23.46"/></g><g class="cls-4"><rect class="cls-6" x="484.75" y="376.23" width="45.82" height="45.82"/></g><g class="cls-4"><rect class="cls-6" x="488.56" y="373.22" width="38.21" height="40.8"/></g><g class="cls-4"><rect class="cls-5" x="693" y="350.48" width="43.64" height="44.57"/></g><g class="cls-4"><rect class="cls-5" x="679.9" y="366.46" width="39.78" height="39.78"/></g><g class="cls-4"><rect class="cls-6" x="369.03" y="345.07" width="59.94" height="59.94"/></g><g class="cls-4"><rect class="cls-6" x="418.93" y="381.26" width="44.01" height="44.01"/></g><g class="cls-4"><rect class="cls-6" x="423.95" y="371.72" width="33.29" height="33.29"/></g><g class="cls-4"><rect class="cls-6" x="373.08" y="399.28" width="45.52" height="45.52"/></g><text class="cls-7" transform="translate(246.23 155.17)">連江縣</text><text class="cls-7" transform="translate(310.73 293.87)">澎湖縣</text><text class="cls-7" transform="translate(257.5 337.75)">台東縣</text><text class="cls-7" transform="translate(174.5 401.28)">嘉義市</text><text class="cls-7" transform="translate(199.5 379.55)">花蓮縣</text><text class="cls-7" transform="translate(234.98 391.62)">南投縣</text><text class="cls-7" transform="translate(269.36 385.35)">基隆市</text><text class="cls-7" transform="translate(255.9 416.16)">屏東縣</text><text class="cls-7" transform="translate(315.75 380.45)">雲林縣</text><text class="cls-7" transform="translate(315.75 410.74)">宜蘭縣</text><text class="cls-7" transform="translate(328.89 396.31)">台中市</text><text class="cls-7" transform="translate(381.75 380.45)">嘉義縣</text><text class="cls-7" transform="translate(378.75 427.62)">苗栗縣</text><text class="cls-7" transform="translate(451.71 323.27)">金門縣</text><text class="cls-7" transform="translate(429.97 351.48)">高雄市</text><text class="cls-7" transform="translate(422.95 392.62)">新北市</text><text class="cls-7" transform="translate(423.95 414.02)">彰化縣</text><text class="cls-7" transform="translate(489.58 398.36)">新竹市</text><text class="cls-7" transform="translate(488.56 416.16)">台南市</text><text class="cls-7" transform="translate(699.79 377.55)">桃園市</text><text class="cls-7" transform="translate(682.79 395.04)">新竹縣</text><text class="cls-8" transform="translate(550.89 331.46)">台北市</text><text class="cls-3" transform="translate(335.94 20.79)">每人可獲得的福利多</text><text class="cls-3" transform="translate(335.95 572.48)">每人可獲得的福利少</text></g></svg>